<?xml version="1.0" encoding="utf-8"?>
<!-- Generator: Adobe Illustrator 20.0.0, SVG Export Plug-In . SVG Version: 6.00 Build 0)  -->
<svg version="1.1" id="Layer_1" xmlns="http://www.w3.org/2000/svg" xmlns:xlink="http://www.w3.org/1999/xlink" x="0px" y="0px"
	 viewBox="0 0 220 277" style="enable-background:new 0 0 220 277;" xml:space="preserve">
<style type="text/css">
	.st0{fill:#FBF49C;}
	.st1{fill:#DB9FC7;}
	.st2{fill:#75C4C2;}
	.st3{fill:#DFE2F2;}
	.st4{fill:#ECF3D3;}
	.st5{fill:#F8E8CD;}
	.st6{fill:#D0CFD0;}
	.st7{fill:#EDECEC;}
	.st8{fill:#F1EEEC;}
	.st9{fill:#ABB0B5;}
	.st10{fill:#252222;}
	.st11{fill:#ADA9A4;}
	.st12{fill:#605850;}
	.st13{fill:#BEC2C5;}
	.st14{fill:#D3D4D4;}
	.st15{fill:#DBDBDB;}
	.st16{fill:#302F2F;}
	.st17{fill:#464444;}
	.st18{fill:#3B393A;}
	.st19{fill:#1E2126;}
	.st20{fill:#1C1E23;}
	.st21{fill:#24262C;}
	.st22{fill:#15171A;}
	.st23{fill:#2C2F35;}
	.st24{fill:#212329;}
	.st25{fill:#33363C;}
	.st26{fill:#2F3239;}
	.st27{fill:#A49DA1;}
	.st28{fill:#36393F;}
	.st29{fill:#393C42;}
	.st30{fill:#45454A;}
	.st31{fill:#C9CED6;}
	.st32{fill:#D0D0D0;}
	.st33{fill:#E0DEDE;}
</style>
<rect class="st2" width="220" height="277"/>
<g>
	<g>
		<path class="st6" d="M15.5,51.5c0-0.1-0.1-0.2-0.2-0.1c0,0-0.1,0.1-0.1,0.2c0,0.1,0,0.2,0.1,0.2C15.5,51.7,15.5,51.6,15.5,51.5z"
			/>
		<path class="st14" d="M15.5,51.5c0,0.1,0,0.2-0.1,0.2c-0.1,0-0.2-0.1-0.1-0.2c0-0.1,0.1-0.1,0.1-0.2
			C15.5,51.3,15.5,51.4,15.5,51.5z"/>
	</g>
</g>
<path class="st8" d="M174.4,125.4c0.2,0.2,0.4,0.2,0.6,0.2c3.2,0.5,6.3,1.1,9.5,1.5c2.3,0.3,4.6,0.7,6.9,1c0.4,0.1,0.7,0.2,0.8,0.7
	c0,0.2-0.1,0.4-0.2,0.6c-1,1.8-2,3.6-3.1,5.4c-0.3,0.5-0.7,1-0.8,1.6c-0.2,0.5-0.6,0.9-0.7,1.4c-0.2,0.2-0.3,0.5-0.4,0.8
	c-0.1,0-0.2,0.1-0.1,0.2l0,0.1c-0.1,0.1-0.2,0.2-0.2,0.3l0,0.1c-0.1,0.1-0.2,0.2-0.2,0.3c-0.2,0.3-0.4,0.5-0.5,0.8
	c-4,7.2-8,14.5-12,21.7c-2.6,4.8-5.2,9.6-7.8,14.4c-0.9,1.7-1.8,3.4-2.8,5.2c-0.1,0.1-0.2,0.2-0.2,0.4l0,0c-0.3,0.3-0.4,0.6-0.5,1
	l0,0.1c-0.1,0.1-0.2,0.2-0.2,0.3l0,0c-0.1,0.1-0.2,0.2-0.2,0.3l0,0c-0.1,0-0.1,0.1-0.1,0.2c-0.1,0-0.1,0,0,0.1
	c-0.1,0.1-0.2,0.1-0.2,0.3l0,0l0,0.1c-0.1,0.1-0.2,0.2-0.2,0.3l0,0l0,0c-0.1,0.1-0.2,0.2-0.2,0.3l0,0.1c-0.1,0.1-0.2,0.2-0.2,0.3
	l0,0c-0.1,0-0.1,0.1-0.1,0.2c0,0.1-0.1,0.1-0.1,0.2c0,0.1-0.1,0.1-0.1,0.2c-0.1,0-0.1,0.1-0.1,0.1c-0.2,0.2-0.3,0.4-0.4,0.7l0,0.1
	c-0.1,0-0.1,0.1-0.1,0.1c-0.1,0.2-0.2,0.4-0.3,0.6c-0.1,0.1-0.2,0.2-0.2,0.4l0,0c-0.3,0.2-0.3,0.5-0.5,0.8c-0.1,0.2-0.1,0.4-0.2,0.6
	c-0.1,0.1-0.2,0.2-0.2,0.4c0,0,0,0,0,0c-0.3,0.2-0.3,0.5-0.5,0.7c-0.1,0-0.1,0.1-0.1,0.2c0,0.1,0,0.2,0,0.2c-0.4,0.2-0.5,0.6-0.7,1
	c-1.1,2.1-2.4,4.2-3.4,6.4c-0.2,0.4-0.4,1-0.8,1.2c-0.8,0.5-1.1,1.3-1.3,2c-0.2,0.9-0.3,1.7-0.5,2.6c-0.2,0-0.4,0-0.7-0.1
	c-1.6-0.4-3.2-0.7-4.9-1c-2.8-0.6-5.7-1.2-8.5-1.7c-1.1-0.2-2.1-0.6-3.3-0.7c-0.2-0.2-0.4-0.2-0.6-0.2c-0.1,0-0.3,0-0.4,0
	c-0.5-0.4-1.1-0.3-1.6-0.5c-1.6-0.4-3.3-0.8-4.9-1c-0.2,0-0.4,0-0.6,0c-0.1-0.1-0.2-0.2-0.4-0.1c-0.1,0-0.1,0-0.2,0
	c-0.2-0.2-0.4-0.2-0.6-0.2c-0.1,0-0.3,0-0.4,0c-0.1-0.1-0.2-0.2-0.4-0.2c-0.2,0-0.4,0-0.6,0c-0.1-0.1-0.2-0.2-0.4-0.2
	c-1-0.2-2-0.6-3.1-0.6l-0.1,0c0,0-0.1,0-0.1,0c-0.2-0.2-0.5-0.2-0.8-0.2c0,0,0,0,0,0c-0.1-0.1-0.2-0.2-0.3-0.2
	c-1.4-0.4-2.8-0.8-4.3-1.1c-5.4-1.2-10.8-2.5-16.2-3.6c-1.6-0.3-3.2-0.8-4.9-1.1c-0.1,0-0.3,0-0.4,0c-0.1,0-0.2,0-0.2,0
	c-0.3-0.2-0.5-0.3-0.8,0c-0.1,0-0.1,0-0.2,0c-0.2-0.5-0.6-0.5-1-0.6c-5-1.2-10-2.3-15-3.5c-4.6-1.1-9.3-2.1-13.9-3.1
	c-3.2-0.7-6.4-1.5-9.7-2.2c-5.2-1.2-10.5-2.3-15.7-3.5c-4.2-0.9-8.4-1.8-12.6-2.8c-2-0.4-4-0.7-5.9-1.4c-0.4-1.2-0.4-1.2,0.5-2.1
	c3.1-3.1,6.3-6,9.4-9.2c0.5-0.5,1.2-0.8,1.5-1.4c0.4-0.2,0.6-0.5,0.9-0.8c3.8-3.8,7.7-7.5,11.6-11.3c1.9-1.9,3.8-3.9,5.9-5.7
	c3-2.7,5.8-5.8,8.7-8.5c1.3-1.2,2.5-2.4,3.8-3.7c0.2-0.2,0.5-0.4,0.6-0.7c1.2-1.1,2.4-2.2,3.5-3.5c0,0,0,0,0,0
	c1.4-1.2,2.7-2.5,4-3.8c2.7-2.6,5.5-5.3,8.2-8c1.5-1.4,2.8-2.9,4.4-4.2c0.5-0.4,1-0.6,1.6-0.3c0.5,0.1,1,0.1,1.5,0.2
	c0.6,0.3,1.3,0.3,1.9,0.4c3,0.5,6.1,1,9.1,1.4c2.4,0.3,4.8,0.7,7.2,1.1c3.2,0.5,6.4,0.9,9.6,1.4c2.2,0.3,4.5,0.7,6.7,1.1
	c2.2,0.3,4.4,0.7,6.6,1c2.2,0.4,4.4,0.7,6.6,1.1c2.1,0.3,4.3,0.8,6.4,1c1,0.1,2,0.2,2.9,0.4c0.3,0,0.5,0,0.8,0
	c0.4,0.4,0.9,0.2,1.4,0.3c1.7,0.3,3.3,0.6,5,0.7c0.1,0,0.3,0,0.4,0c0.4,0.3,0.9,0.3,1.3,0.3c1.5,0.1,2.9,0.5,4.3,0.6
	c0.3,0,0.5,0,0.8,0c1.2,0.5,2.5,0.5,3.7,0.7c1,0.2,2.1,0.3,3.1,0.4c1.6,0.2,3.1,0.5,4.7,0.8c0.3,0,0.5,0.1,0.7,0.2c0.3,0,0.6,0,1,0
	c0.3,0.3,0.6,0.2,1,0.2c0.4,0.4,0.9,0.2,1.4,0.3C171.8,125.1,173.1,125.4,174.4,125.4z M60.3,163.4c0.6,0.1,1,0.2,1.4,0.3
	c7,1.5,14.1,3,21.1,4.6c6,1.3,12.1,2.6,18.1,3.9c8.2,1.8,16.5,3.6,24.7,5.3c1.8,0.4,3.6,0.8,5.4,1.2c0.4,0.1,0.7,0.1,0.9-0.3
	c0.1-0.1,0.2-0.3,0.3-0.4c8.6-13.6,17.3-27.1,25.9-40.7c0.2-0.3,0.4-0.5,0.5-0.9c-1.5-0.3-3-0.5-4.4-0.8c-3.3-0.5-6.6-1.1-9.9-1.6
	c-4-0.7-8.1-1.4-12.1-2c-4.5-0.7-8.9-1.5-13.4-2.2c-3.6-0.6-7.1-1.2-10.7-1.8c-3.7-0.6-7.4-1.2-11.1-1.8c-0.7-0.1-1.1,0-1.6,0.5
	c-2.8,2.9-5.6,5.9-8.4,8.8c-7.4,7.7-14.7,15.5-22.1,23.2C63.4,160.2,61.9,161.7,60.3,163.4z"/>
<path class="st9" d="M18,174.4c1.9,0.6,3.9,0.9,5.9,1.4c4.2,0.9,8.4,1.8,12.6,2.8c5.2,1.1,10.5,2.3,15.7,3.5
	c3.2,0.7,6.4,1.5,9.7,2.2c4.6,1.1,9.3,2.1,13.9,3.1c5,1.1,10,2.3,15,3.5c0.4,0.1,0.8,0.1,1,0.6c-0.2,0.1-0.4,0.1-0.6,0
	c-2.9-0.6-5.7-1.2-8.6-1.8c-3.5-0.8-7-1.5-10.5-2.3c-6.3-1.4-12.6-2.8-18.9-4.2c-3.7-0.9-7.4-1.6-11.1-2.3c-2.5-0.5-5-1.1-7.5-1.7
	c-3.7-1-7.5-1.6-11.3-2.3c-1.6-0.3-3.2-0.8-4.8-1.2c-0.2-0.1-0.4-0.2-0.6-0.3C17.6,174.9,17.6,174.6,18,174.4z"/>
<path class="st10" d="M197.6,164.8c0,0.1,0,0.1-0.1,0.1c-0.3,0.1-0.4,0.4-0.5,0.7c-1.6,3.1-3.6,5.8-6,8.3c-1.9,1.9-4,3.6-6.2,5.1
	c-2.3,1.6-4.7,3.1-7.1,4.3c-4.6,2.4-9.4,4.2-14.4,5.7c-1.3,0.4-2.6,0.7-3.9,1c-0.4,0.1-0.6,0-0.6-0.4c0,0,0,0,0,0c0.2,0,0.3,0,0.5,0
	c1.3-0.4,2.6-0.8,3.9-1.2c0.9-0.3,1.7-0.7,2.6-1c1.4-0.6,2.8-1,4.2-1.5c3.3-1.3,6.5-2.8,9.6-4.6c3.9-2.2,7.5-4.7,10.7-7.9
	c2-2.1,3.9-4.2,5.4-6.8c1.3-2.3,2.3-4.9,2.9-7.5c0.1-0.4,0.2-0.6,0.6-0.6c0,0.3,0,0.6,0,0.9c0,0.1,0,0.1,0,0.2
	c-0.3,0.5-0.4,1.1-0.4,1.7c0,0.1,0,0.1,0,0.2c-0.2,0.2-0.2,0.4-0.2,0.6l0,0c-0.3,0.3-0.4,0.7-0.3,1.2c0,0,0,0,0,0
	c-0.2,0.1-0.3,0.3-0.2,0.5c0,0.1,0,0.1-0.1,0.2c-0.1,0.1-0.2,0.2-0.1,0.4c0,0,0,0,0,0C197.6,164.5,197.5,164.6,197.6,164.8z"/>
<path class="st11" d="M151.4,204.1c0.2-0.9,0.4-1.7,0.5-2.6c0.1-0.8,0.5-1.5,1.3-2c0.4-0.2,0.6-0.8,0.8-1.2c1.1-2.2,2.3-4.3,3.4-6.4
	c0.2-0.4,0.3-0.8,0.7-1c0.9-0.1,1.8-0.2,2.7-0.4c0,0.1-0.1,0.2-0.1,0.3c-1.2,0.9-1.9,2.2-2.7,3.4c-1.3,1.9-2.3,4-3.5,5.9
	c-0.7,1.1-1.3,2.4-2.1,3.4c-0.3,0.4-0.5,0.7-1,0.9C151.4,204.2,151.4,204.1,151.4,204.1z"/>
<path class="st12" d="M160.9,190.4c-0.9,0.2-1.8,0.4-2.7,0.4c0-0.1,0-0.2,0-0.2c0.1,0,0.1-0.1,0.1-0.2c0.1-0.2,0.2-0.5,0.5-0.7
	c0,0.4,0.2,0.5,0.6,0.4c1.3-0.2,2.6-0.6,3.9-1c4.9-1.6,9.8-3.4,14.4-5.7c2.5-1.3,4.8-2.7,7.1-4.3c2.2-1.5,4.3-3.2,6.2-5.1
	c2.4-2.4,4.5-5.2,6-8.3c0.1-0.3,0.2-0.6,0.5-0.7c-0.1,0.7-0.5,1.3-0.8,1.9c-2.2,4-5.2,7.3-8.7,10.2c-3.9,3.2-8.2,5.7-12.7,7.9
	c-2.1,1-4.3,1.9-6.4,2.8c-0.2,0-0.3,0-0.4,0.2c-0.2,0.1-0.5,0.2-0.7,0.3c-0.2-0.1-0.4,0-0.5,0.2c-0.2,0.1-0.3,0.1-0.5,0.2
	c-0.9,0.1-1.8,0.5-2.7,0.8c-0.6,0.2-1.2,0.3-1.7,0.7C161.8,190.1,161.4,190.3,160.9,190.4z"/>
<path class="st11" d="M188.1,136.4c0.1-0.6,0.5-1.1,0.8-1.6c1-1.8,2-3.6,3.1-5.4c0.1-0.2,0.2-0.4,0.2-0.6c0.4,0.5,0.6,1,0.3,1.6
	c-0.5,1-0.9,2-1.5,2.9c-0.5,0.9-0.9,1.9-1.5,2.7c-0.2,0.3-0.1,0.6,0,0.8c0.3,0.5,0.6,1,1.1,1.4c1.8,1.7,3.4,3.5,4.8,5.5
	c1.4,2.1,2.6,4.2,3.4,6.6c0.8,2.7,0.8,5.4,0.8,8.1c0,0.3,0,0.5-0.4,0.6c0-0.3,0-0.6,0-1c0.3-4-0.4-7.8-2.3-11.3
	c-1.2-2.2-2.7-4.3-4.4-6.2c-1.3-1.4-2.8-2.7-4.2-4C188.2,136.4,188.1,136.4,188.1,136.4z"/>
<path class="st13" d="M93.4,191.4c1.6,0.2,3.2,0.7,4.9,1.1c5.4,1.1,10.8,2.5,16.2,3.6c1.4,0.3,2.8,0.7,4.3,1.1
	c0.1,0,0.2,0.1,0.3,0.2c-1,0.1-2-0.3-3-0.5c-3.4-0.7-6.7-1.6-10.1-2.3c-3.3-0.7-6.6-1.5-10-2.1c-0.8-0.1-1.7-0.2-2.4-0.7
	C93.5,191.6,93.5,191.5,93.4,191.4z"/>
<path class="st13" d="M151.4,204.1c0,0.1,0,0.2,0,0.2c-0.1,0.4-0.3,0.3-0.6,0.2c-2-0.4-4-0.8-6-1.2c-3.4-0.7-6.7-1.6-10.1-2.3
	c-0.3,0-0.5-0.2-0.6-0.4c1.1,0,2.2,0.5,3.3,0.7c2.9,0.5,5.7,1.1,8.5,1.7c1.6,0.3,3.2,0.7,4.9,1C151,204,151.2,204.1,151.4,204.1z"/>
<path class="st11" d="M162.2,190c0.5-0.4,1.2-0.5,1.7-0.7c0.9-0.3,1.8-0.7,2.7-0.8c0,0.1-0.1,0.3-0.2,0.3c-1.3,0.5-2.6,1-4,1.3
	C162.4,190.1,162.3,190,162.2,190z"/>
<path class="st13" d="M120,197.5c1.1,0,2.1,0.4,3.1,0.6c-0.4,0.4-0.9,0-1.3,0C121.2,198,120.5,198,120,197.5z"/>
<path class="st11" d="M198.7,161.5c0-0.1,0-0.1,0-0.2c0.3-0.6,0.4-1.1,0.4-1.7c0-0.1,0-0.1,0-0.2c0,0,0.1,0,0.1,0
	c0.3,0.2,0.3,0.5,0.2,0.8c-0.2,0.5-0.1,1.2-0.7,1.6C198.7,161.6,198.7,161.5,198.7,161.5z"/>
<path class="st12" d="M198.2,163.2c-0.1-0.4,0-0.8,0.3-1.2c0,0.1,0,0.3,0,0.4C198.4,162.7,198.4,163,198.2,163.2z"/>
<path class="st12" d="M199.2,159.3c0,0-0.1,0-0.1,0c0-0.3,0-0.6,0-0.9c0-0.1,0.1-0.3,0.2-0.4c0,0.3,0,0.6,0,1
	C199.3,159.1,199.2,159.2,199.2,159.3z"/>
<path class="st9" d="M92,191.4c0.3-0.3,0.5-0.2,0.8,0C92.5,191.6,92.2,191.6,92,191.4z"/>
<path class="st9" d="M93.4,191.4c0.1,0.1,0.1,0.3,0.2,0.4c-0.3,0-0.6-0.1-0.6-0.4C93.1,191.4,93.3,191.4,93.4,191.4z"/>
<path class="st13" d="M119,197.3c0.3,0,0.6,0,0.8,0.2C119.6,197.5,119.3,197.6,119,197.3z"/>
<path class="st11" d="M167.2,188.3c0.1-0.2,0.3-0.3,0.5-0.2C167.6,188.4,167.4,188.5,167.2,188.3z"/>
<path class="st11" d="M168.4,187.9c0.1-0.2,0.2-0.2,0.4-0.2C168.8,187.9,168.7,188.1,168.4,187.9z"/>
<path class="st11" d="M198.5,162.4c0-0.1,0-0.3,0-0.4c0,0,0,0,0,0c0,0,0.1,0,0.1,0l0.1,0C198.9,162.3,198.8,162.4,198.5,162.4z"/>
<path class="st11" d="M197.9,164c0-0.1,0.1-0.1,0.1-0.2c0.1,0,0.1,0,0.2,0c0.3,0.2,0.1,0.3-0.1,0.4C197.9,164.1,197.9,164,197.9,164
	z"/>
<path class="st12" d="M198.6,162L198.6,162c-0.1,0-0.1,0-0.1,0c0-0.2,0-0.4,0.2-0.6c0,0.1,0.1,0.1,0.1,0.2
	C198.7,161.8,198.7,161.9,198.6,162z"/>
<path class="st12" d="M198.1,163.8c-0.1,0-0.1,0-0.2,0c0-0.2,0-0.4,0.2-0.5C198.1,163.4,198.1,163.6,198.1,163.8z"/>
<path class="st13" d="M133.1,200.4c0.1,0,0.3,0,0.4,0c-0.1,0.1-0.2,0.2-0.4,0.1C133.1,200.5,133.1,200.4,133.1,200.4z"/>
<path class="st13" d="M123.5,198.3c0.2,0,0.4,0,0.6,0C123.9,198.5,123.7,198.5,123.5,198.3z"/>
<path class="st13" d="M126,198.8c0.2,0,0.4,0,0.6,0C126.4,199.1,126.2,199.1,126,198.8z"/>
<path class="st13" d="M125.4,198.7c0.1,0,0.1,0,0.2,0c0,0.1-0.1,0.1-0.2,0.1C125.4,198.8,125.4,198.7,125.4,198.7z"/>
<path class="st12" d="M197.9,164c0,0.1,0,0.1,0.1,0.2c-0.1,0.1-0.1,0.1-0.2,0.2C197.7,164.2,197.7,164.1,197.9,164z"/>
<path class="st12" d="M197.6,164.8c0-0.2,0-0.3,0.2-0.4C197.8,164.5,197.7,164.7,197.6,164.8z"/>
<path class="st13" d="M124.5,198.5c0.1,0,0.3,0,0.4,0C124.7,198.7,124.6,198.7,124.5,198.5z"/>
<path class="st14" d="M174.4,125.4c-1.3,0-2.6-0.3-3.8-0.5c-0.5-0.1-1,0.1-1.4-0.3c0.5-0.4,1-0.4,1.6-0.3c0.9,0.2,1.8,0.2,2.6,0.6
	c0.2,0.1,0.5-0.1,0.7,0C174.3,125,174.7,125,174.4,125.4z"/>
<path class="st15" d="M64.3,127.5c-1.1,1.2-2.2,2.4-3.5,3.5c0-0.6,0.4-1.1,0.8-1.4c0.5-0.3,0.9-0.8,1.1-1.3
	C63.1,127.7,63.6,127.4,64.3,127.5z"/>
<path class="st14" d="M85.9,111.9c-0.7-0.1-1.3-0.1-1.9-0.4c0-0.1,0-0.1,0.1-0.2c0.4-0.4,0.9,0.1,1.3,0
	C85.7,111.3,85.8,111.6,85.9,111.9z"/>
<path class="st14" d="M168.2,124.5c-0.3,0-0.6,0-1,0c0-0.3,0.1-0.5,0.4-0.5C168.1,123.9,168.2,124.1,168.2,124.5z"/>
<path class="st14" d="M154.9,122.3c-0.3,0-0.5,0-0.8,0C154.5,121.8,154.6,121.8,154.9,122.3z"/>
<path class="st14" d="M141.8,120.4c-0.3,0-0.5,0-0.8,0C141.3,119.9,141.5,119.9,141.8,120.4z"/>
<path class="st14" d="M148.6,121.4c-0.1,0-0.3,0-0.4,0c0-0.1,0-0.3,0.2-0.3C148.5,121.1,148.5,121.2,148.6,121.4z"/>
<path class="st10" d="M60.3,163.4c1.6-1.7,3.1-3.2,4.6-4.8c7.4-7.7,14.7-15.5,22.1-23.2c2.8-2.9,5.6-5.9,8.4-8.8
	c0.5-0.5,0.9-0.7,1.6-0.5c3.7,0.7,7.4,1.2,11.1,1.8c3.6,0.6,7.1,1.2,10.7,1.8c4.5,0.7,8.9,1.5,13.4,2.2c4,0.7,8.1,1.4,12.1,2
	c3.3,0.5,6.6,1.1,9.9,1.6c1.5,0.2,3,0.5,4.4,0.8c-0.1,0.4-0.3,0.6-0.5,0.9c-8.6,13.6-17.3,27.1-25.9,40.7c-0.1,0.1-0.2,0.3-0.3,0.4
	c-0.2,0.4-0.5,0.4-0.9,0.3c-1.8-0.4-3.6-0.8-5.4-1.2c-8.2-1.8-16.5-3.6-24.7-5.3c-6-1.3-12.1-2.6-18.1-3.9c-7-1.5-14.1-3-21.1-4.6
	C61.3,163.7,60.9,163.6,60.3,163.4z M110.2,149c-0.1-0.1-0.1-0.1-0.2-0.2c0.3-0.6,0.6-1.2,0.9-1.8c0.1-0.2,0.3-0.4,0.2-0.6
	c-0.2-0.3-0.4-0.2-0.7-0.2c-0.3,0-0.5,0.1-0.6,0.4c-0.7,1.3-1.4,2.6-2.1,3.9c-0.2,0.3,0,0.5,0.3,0.5c0.5,0.1,0.9,0,1.3-0.3
	c0.7-0.5,1.4-1.1,2.2-1.6c0,0.6-0.3,1.1-0.4,1.6c0,0.2-0.3,0.5,0,0.7c0.3,0.2,0.7,0.4,1.1,0.2c0.2-0.1,0.4-0.3,0.6-0.5
	c0.8-0.7,1.6-1.4,2.3-2.2c0.4-0.4,0.9-0.8,1.3-1.2c0.3-0.3,0.2-0.5-0.2-0.7c-0.5-0.1-0.8,0.1-1.1,0.4c-0.8,0.7-1.5,1.4-2.4,2.2
	c-0.1-0.5,0.1-0.9,0.2-1.3c0.1-0.6,0-0.8-0.6-0.8c-0.3,0-0.5,0.1-0.7,0.2C111.2,148.4,110.7,148.7,110.2,149z M109.2,160.2
	c0.6-0.1,1.1-0.2,1.6-0.5c0.5-0.3,0.9-0.6,0.9-1.3c0-0.6-0.5-0.8-1-1c-0.9-0.3-1.8-0.4-2.7-0.6c-0.6-0.1-1,0-1.4,0.5
	c-0.9,1.2-1.9,2.4-2.8,3.6c-0.1,0.2-0.5,0.4-0.3,0.6c0.2,0.3,0.5,0.3,0.9,0.2c0.3,0,0.5-0.2,0.6-0.4c0.3-0.4,0.6-0.7,0.9-1.1
	c0.3-0.4,0.6-0.5,1.1-0.3c0.5,0.1,0.6,0.5,0.7,0.8c0.1,0.5,0.2,1,0.4,1.5c0.1,0.4,0.6,0.5,1.1,0.4c0.4-0.1,0.5-0.4,0.4-0.8
	C109.4,161.3,109.2,160.8,109.2,160.2z M128.8,152.7c0.7-0.2,1.4-0.2,1.9-0.6c0.8-0.6,0.7-1.5-0.3-1.8c-1.1-0.4-2.2-0.6-3.4-0.7
	c-0.4-0.1-0.7,0.1-1,0.4c-0.8,1.2-1.7,2.3-2.5,3.5c-0.4,0.5-0.3,0.7,0.4,0.8c0.4,0,0.7-0.1,0.9-0.4c0.2-0.3,0.5-0.6,0.7-0.9
	c0.2-0.3,0.5-0.6,0.9-0.5c0.4,0.1,0.8,0.2,0.9,0.7c0.1,0.5,0.3,1,0.5,1.5c0.2,0.4,0.4,0.5,1,0.3c0.5-0.1,0.5-0.4,0.4-0.8
	C129.1,153.7,129,153.2,128.8,152.7z M120.3,148.2c-1.5,0-2.9,0.5-3.8,1.4c-1.4,1.3-1,2.9,0.8,3.4c1.4,0.4,2.7,0.2,4-0.3
	c0.8-0.4,1.6-0.9,2-1.7c0.5-0.9,0.3-1.8-0.6-2.3C122.1,148.3,121.2,148.1,120.3,148.2z M114.7,160.3c0.7-1.2,0.7-1.2,1.9-0.9
	c0.1,0,0.1,0,0.2,0.1c0.8,0.2,1.6,0.3,2.4,0.5c0.4,0.1,0.9,0.1,1-0.4c0.1-0.5-0.5-0.5-0.8-0.5c-1.3-0.3-2.6-0.5-3.9-0.8
	c-0.5-0.1-0.9,0-1.2,0.4c-1,1.3-1.9,2.6-2.9,3.8c-0.3,0.5-0.3,0.6,0.3,0.7c1.5,0.3,2.9,0.6,4.4,0.9c0.2,0,0.4,0.1,0.7,0
	c0.2-0.1,0.3-0.2,0.4-0.4c0-0.3-0.2-0.3-0.4-0.3c-0.2-0.1-0.4-0.1-0.7-0.1c-1-0.2-2-0.3-3-0.7c0.9-1.5,0.9-1.5,2.5-1.2
	c0.2,0,0.3,0.1,0.5,0.1c0.2,0,0.3,0,0.5,0c0.2-0.1,0.4-0.2,0.4-0.4c0-0.2-0.2-0.3-0.4-0.3C115.9,160.6,115.4,160.5,114.7,160.3z
	 M97.8,154.8c-1-0.4-1.1-0.4-1.7,0.2c-0.3,0.3-0.6,0.7-0.9,1c-0.1,0.2-0.3,0.4-0.6,0.3c-0.7-0.2-1.5-0.2-2.2-0.5
	c0.4-0.7,1.1-1.1,1.3-1.8c-0.9-0.4-1.1-0.4-1.6,0.3c-1.1,1.2-2.1,2.4-3.1,3.7c-0.1,0.2-0.3,0.3-0.3,0.6c0.8,0.4,1,0.4,1.6-0.2
	c0.4-0.4,0.7-0.8,1.1-1.2c0.1-0.2,0.3-0.4,0.5-0.4c0.7,0.2,1.5,0.2,2.3,0.6c-0.4,0.5-0.8,0.9-1.1,1.4c-0.2,0.2-0.5,0.4-0.3,0.7
	c0.1,0.2,0.9,0.3,1.2,0.1c0.2-0.1,0.3-0.3,0.5-0.5c0.6-0.7,1.2-1.4,1.8-2.1C96.7,156.2,97.3,155.6,97.8,154.8z M100,157.3
	c0-0.2,0.1-0.3,0.2-0.5c0.3-0.5,0.7-0.7,1.3-0.5c0.9,0.3,1.8,0.3,2.6,0.5c0.3,0.1,0.6,0.1,0.8-0.1c0.2-0.1,0.3-0.2,0.3-0.3
	c0-0.2-0.1-0.3-0.3-0.3c-0.1,0-0.2-0.1-0.3-0.1c-1.3-0.3-2.6-0.5-4-0.8c-0.4-0.1-0.8,0-1.1,0.4c-1.1,1.3-2.1,2.6-3.2,3.9
	c-0.3,0.3-0.2,0.5,0.2,0.6c1.5,0.3,2.9,0.6,4.4,0.9c0.2,0,0.4,0,0.6,0c0.2-0.1,0.4-0.2,0.4-0.4c0-0.2-0.2-0.3-0.4-0.3
	c-0.3-0.1-0.6-0.1-0.8-0.2c-0.9-0.2-1.7-0.3-2.7-0.6c0.3-0.4,0.5-0.6,0.7-1c0.2-0.3,0.5-0.4,0.9-0.3c0.5,0.1,0.9,0.2,1.4,0.2
	c0.4,0,0.7,0,0.8-0.5C101.4,157.5,100.7,157.6,100,157.3z M135.7,153.2c0.3-0.1,0.6-0.2,0.8-0.3c0.9-0.3,1.7-0.5,2.6-0.8
	c0.2-0.1,0.4-0.1,0.4-0.3c0-0.3-0.3-0.3-0.5-0.4c-0.2,0-0.4,0.1-0.6,0.1c-1,0.3-2,0.6-2.9,0.8c-0.3,0.1-0.7,0.2-1.1,0.2
	c0.1-0.4,0.4-0.7,0.6-1c0.1-0.2,0.4-0.4,0.2-0.7c-0.2-0.2-0.5-0.3-0.8-0.2c-0.3,0-0.5,0.2-0.7,0.5c-0.8,1.2-1.7,2.4-2.5,3.6
	c-0.1,0.2-0.3,0.4-0.2,0.6c0.1,0.3,0.4,0.3,0.7,0.3c0.3,0,0.6-0.1,0.7-0.4c0.2-0.3,0.5-0.6,0.7-0.9c0.3-0.5,0.7-0.7,1.2-0.6
	c0.5,0.1,0.7,0.5,0.8,1c0.1,0.4,0.1,0.9,0.3,1.3c0.1,0.4,0.5,0.5,0.9,0.4c0.3-0.1,0.6-0.2,0.5-0.7
	C136.6,154.9,136.5,154,135.7,153.2z M98,146.9c0.8-0.2,1.5-0.3,2.1-0.8c0.7-0.7,0.6-1.3-0.3-1.6c-0.9-0.3-1.8-0.4-2.7-0.6
	c-0.6-0.1-1,0-1.4,0.5c-0.9,1-1.8,2-2.7,3c-0.2,0.2-0.4,0.4-0.4,0.7c0.7,0.3,0.9,0.3,1.4-0.2c0.3-0.3,0.6-0.7,1-1.1
	c0.5-0.5,1.3-0.3,1.5,0.4c0.1,0.5,0.2,0.9,0.3,1.4c0.1,0.4,0.4,0.6,0.8,0.5c0.3-0.1,0.8-0.1,0.7-0.7C98.1,147.9,98.1,147.4,98,146.9
	z M132.6,141.9c0.5-0.8,0.5-0.8,1.4-0.7c0.2,0,0.4,0.1,0.7,0.1c0.8,0.1,1.5,0.3,2.3,0.3c0.2,0,0.5,0,0.5-0.3
	c0.1-0.3-0.2-0.3-0.4-0.4c-1.4-0.2-2.7-0.5-4.1-0.7c-0.4-0.1-0.7,0-1,0.3c-0.8,1.1-1.6,2.2-2.5,3.3c-0.2,0.3-0.1,0.5,0.3,0.6
	c1.1,0.2,2.1,0.4,3.2,0.6c0.4,0.1,0.8,0.2,1.2,0.2c0.3,0,0.6,0,0.6-0.3c0.1-0.3-0.3-0.4-0.5-0.4c-0.1,0-0.3,0-0.4,0
	c-0.9-0.2-1.9-0.3-2.8-0.6c0.7-1.3,0.7-1.3,2.1-1c0.3,0.1,0.6,0.1,1,0.1c0.2,0,0.4-0.1,0.4-0.4c0-0.2-0.2-0.2-0.3-0.3
	C133.7,142.1,133.1,142.3,132.6,141.9z M90.2,147.2c-0.1,0.4,0.1,0.6,0.5,0.6c0.4,0,0.8-0.1,0.9-0.6c0.3-1.3,0.6-2.6,0.9-3.8
	c0.1-0.4-0.1-0.6-0.5-0.6c-0.3,0-0.6,0-0.9,0.1c-0.3,0.2-0.6,0.3-0.8,0.5c-1.6,0.9-3.2,1.8-4.8,2.8c-0.2,0.1-0.4,0.2-0.3,0.4
	c0.1,0.2,0.3,0.3,0.6,0.3c0.4-0.1,0.8-0.3,1.1-0.5c0.7-0.6,1.5-0.6,2.3-0.4c0.1,0,0.2,0.1,0.3,0.1c0.3,0.1,0.8,0,1,0.3
	C90.5,146.6,90.1,146.9,90.2,147.2z M125.8,143.7c0.7,0,1.3,0,2-0.2c0.1-0.1,0.3-0.1,0.3-0.3c0-0.2-0.2-0.3-0.4-0.3
	c-0.2,0-0.4,0-0.6,0.1c-0.8,0.1-1.7,0.1-2.5-0.1c-1.1-0.3-1.2-1-0.6-1.8c0.9-1.2,3-1.5,4.2-0.7c0.2,0.2,0.4,0.3,0.7,0.4
	c0.4,0.1,0.8,0.1,0.9-0.3c0.1-0.4-0.3-0.5-0.5-0.6c-0.3-0.3-0.7-0.4-1.1-0.5c-1.6-0.4-3.2-0.2-4.6,0.6c-0.5,0.3-0.9,0.6-1.2,1.1
	c-0.5,0.8-0.3,1.6,0.5,2.1C123.8,143.7,124.8,143.8,125.8,143.7z M119.2,141.3c-0.1,0.4-0.1,0.6-0.1,0.9c0,0.3,0,0.6,0.4,0.6
	c0.4,0,0.8,0,0.8-0.4c0.2-1.3,0.3-2.6,0.4-3.9c0-0.3-0.2-0.5-0.5-0.5c-0.5-0.1-0.9,0.1-1.4,0.3c-1.5,0.9-3.1,1.8-4.6,2.8
	c-0.1,0.1-0.3,0.2-0.4,0.3c-0.2,0.2-0.1,0.4,0.1,0.5c0.3,0.1,0.5,0.1,0.7-0.1c0.4-0.2,0.7-0.4,1.1-0.6c0.3-0.2,0.5-0.3,0.9-0.3
	C117.6,141,118.4,141,119.2,141.3z M105.7,138.4c0.2,0,0.3,0,0.5,0c0.8,0,1.5-0.1,2.2-0.6c0.8-0.6,0.7-1.3-0.1-1.7
	c-1-0.5-2.1-0.6-3.2-0.7c-0.4,0-0.6,0.2-0.8,0.4c-0.9,1-1.7,2-2.6,3c-0.1,0.2-0.4,0.3-0.3,0.6c0.1,0.3,0.4,0.2,0.7,0.2
	c0.3,0,0.5-0.1,0.7-0.3c0.2-0.2,0.4-0.4,0.6-0.7c0.2-0.4,0.6-0.5,1-0.3C104.7,138.4,105.2,138.3,105.7,138.4z M104.3,146.1
	c0,0.2-0.1,0.3-0.2,0.4c-0.8,0.9-1.5,1.8-2.3,2.7c-0.1,0.2-0.4,0.4-0.2,0.6c0.1,0.2,0.4,0.3,0.7,0.2c0.3-0.1,0.6-0.3,0.8-0.5
	c0.5-0.7,1.2-1.3,1.6-2c0.6-1,1.4-1.4,2.5-0.9c0.2,0.1,0.4,0.1,0.7,0.1c0.2,0,0.4,0,0.6-0.1c0.1,0,0.2-0.2,0.2-0.3
	c0-0.1-0.1-0.2-0.2-0.3c-0.1,0-0.2-0.1-0.3-0.1c-1.7-0.3-3.3-0.6-5-0.9c-0.2,0-0.4,0-0.7,0c-0.2,0-0.3,0.1-0.3,0.3
	c0,0.2,0.1,0.3,0.3,0.3C103.1,145.8,103.7,145.9,104.3,146.1z M109.6,140.1c0.9-1.1,1.7-2,2.4-2.9c0.1-0.1,0.3-0.3,0.2-0.5
	c-0.1-0.2-0.4-0.2-0.6-0.2c-0.3,0-0.5,0.1-0.7,0.3c-1,1.1-1.9,2.2-2.8,3.4c-0.3,0.3-0.2,0.5,0.3,0.6c0.6,0.1,1.2,0.2,1.8,0.3
	c0.8,0.1,1.5,0.3,2.3,0.4c0.3,0.1,0.7,0,0.8-0.4c0.1-0.4-0.3-0.4-0.6-0.4C111.7,140.5,110.7,140.3,109.6,140.1z"/>
<path class="st16" d="M159,189.2c0.1-0.2,0.1-0.4,0.2-0.6c0.4-0.1,0.5-0.4,0.5-0.8c0,0,0,0,0,0c0.1-0.1,0.2-0.2,0.2-0.4
	c0.1-0.2,0.2-0.4,0.3-0.6c0.1,0,0.1-0.1,0.1-0.1c0,0,0-0.1,0-0.1c0.3-0.1,0.4-0.4,0.4-0.7c0-0.1,0-0.1,0.1-0.1
	c0.1,0,0.1-0.1,0.1-0.2c0-0.1,0.1-0.1,0.1-0.2c0-0.1,0.1-0.1,0.1-0.2c0,0,0,0,0,0c0.1-0.1,0.2-0.2,0.2-0.3c0,0,0-0.1,0-0.1
	c0.1-0.1,0.2-0.2,0.2-0.3l0,0c0,0,0,0,0,0c0.1-0.1,0.2-0.2,0.2-0.3l0-0.1c0,0,0,0,0,0c0.1-0.1,0.2-0.2,0.2-0.3c0,0,0-0.1,0-0.1
	c0.1,0,0.1-0.1,0.1-0.2c0,0,0,0,0,0c0.1-0.1,0.2-0.2,0.2-0.3c0,0,0,0,0,0c0.1-0.1,0.2-0.2,0.2-0.3c0,0,0-0.1,0-0.1
	c0.4-0.2,0.5-0.6,0.5-1c0,0,0,0,0,0c0.1-0.1,0.2-0.2,0.2-0.4c0.9-1.7,1.8-3.5,2.8-5.2c2.6-4.8,5.2-9.6,7.8-14.4
	c4-7.2,8-14.5,12-21.7c0.2-0.3,0.3-0.5,0.5-0.8c0.1-0.1,0.2-0.2,0.2-0.3c0,0,0-0.1,0-0.1c0.1-0.1,0.2-0.2,0.2-0.3c0,0,0-0.1,0-0.1
	c0.1,0,0.1-0.1,0.1-0.2c0.1-0.3,0.2-0.6,0.4-0.8c0.1,0,0.2,0,0.4,0c0,0.1,0,0.1,0,0.2c-0.1,0.4-0.3,0.7-0.4,1.1
	c-0.2,0.8-1,1.4-0.8,2.4c0.1,0.2-0.2,0.4-0.4,0.6c-0.5,0.4-0.6,0.4-0.1,0.9c0.5,0.5,0.5,0.9,0.2,1.5c-0.4,1-0.5,2-0.8,3.1
	c-0.2,1.1,0.4,2,1.4,2.5c0.8,0.3,1.5,0.7,2.3,1c0.9,0.4,1.3,1,1.3,1.9c0,0.3-0.1,0.7,0.1,1c0.2,0,0.3-0.2,0.2-0.3
	c-0.2-0.5-0.1-1.1-0.2-1.6c-0.1-0.8,0-0.8,0.7-0.8c0.9,0,1.8-0.1,2.7-0.3c0.5-0.1,0.9-0.1,1.4,0.1c0.3,0.1,0.6,0.4,0.9,0.5
	c0.4,1.3,0.5,2.7,0.6,4.1c0.1,1.3-0.2,2.6-0.4,3.8c-0.6,3.4-2.1,6.4-4,9.2c-1.4,1.9-3,3.7-4.7,5.3c-1.3,1.2-2.7,2.4-4.1,3.4
	c-3.7,2.6-7.6,4.8-11.7,6.6c-3.5,1.5-7,2.8-10.6,3.8c-0.4,0.1-0.7,0.3-0.9,0.7C160.1,188.6,159.8,189.2,159,189.2z M190.2,158.5
	c0.5-0.5,0.4-0.9,0.4-1.3c0-0.3,0-0.9-0.1-1.1C190.4,156.9,190.3,157.6,190.2,158.5z M190.7,154.4c-0.1,0.4-0.1,0.7,0,1.2
	C190.8,155.1,190.8,154.9,190.7,154.4z"/>
<path class="st17" d="M187.7,137.9c0-0.1,0-0.1,0-0.2c0.3-0.4,0.6-0.8,0.6-1.3c1.4,1.3,2.9,2.6,4.2,4c1.7,1.9,3.2,3.9,4.4,6.2
	c1.9,3.5,2.7,7.3,2.3,11.3c-0.1,0.1-0.2,0.3-0.2,0.4c-0.4,0-0.5,0.3-0.6,0.6c-0.6,2.6-1.5,5.2-2.9,7.5c-1.4,2.5-3.3,4.7-5.4,6.8
	c-3.2,3.2-6.8,5.7-10.7,7.9c-3.1,1.8-6.3,3.3-9.6,4.6c-1.4,0.6-2.9,1-4.2,1.5c-0.9,0.4-1.7,0.8-2.6,1c-1.3,0.4-2.6,0.8-3.9,1.2
	c-0.1,0-0.3,0-0.5,0c0-0.2,0.1-0.3,0.2-0.4c0.8,0,1.1-0.6,1.5-1.1c0.3-0.4,0.5-0.6,0.9-0.7c3.6-1,7.1-2.3,10.6-3.8
	c4.1-1.8,8-4,11.7-6.6c1.5-1,2.8-2.2,4.1-3.4c1.7-1.6,3.3-3.4,4.7-5.3c2-2.8,3.4-5.8,4-9.2c0.2-1.3,0.5-2.5,0.4-3.8
	c-0.1-1.4-0.1-2.7-0.6-4.1c-0.2-1.6-0.8-3-1.5-4.4c-1.6-3.4-4-6.1-6.6-8.6C188.1,138.1,188,138,187.7,137.9z"/>
<path class="st18" d="M188.3,136.4c0,0.5-0.3,0.9-0.6,1.3c-0.1,0-0.2,0-0.4,0c0.2-0.5,0.5-0.9,0.7-1.4
	C188.1,136.4,188.2,136.4,188.3,136.4z"/>
<path class="st17" d="M163,181.9c-0.1,0.4-0.2,0.7-0.5,1C162.6,182.5,162.7,182.2,163,181.9z"/>
<path class="st12" d="M159.7,187.9c0,0.3-0.1,0.6-0.5,0.8C159.4,188.4,159.5,188.1,159.7,187.9z"/>
<path class="st17" d="M160.7,186.1c0,0.3-0.1,0.5-0.4,0.7C160.4,186.5,160.5,186.2,160.7,186.1z"/>
<path class="st12" d="M159.9,187.5c0,0.2,0,0.3-0.2,0.4C159.7,187.7,159.8,187.6,159.9,187.5z"/>
<path class="st17" d="M163.2,181.5c0,0.2,0,0.3-0.2,0.4C163,181.7,163.1,181.6,163.2,181.5z"/>
<path class="st17" d="M161.7,184.3c0,0.1,0,0.2-0.2,0.3C161.5,184.5,161.6,184.4,161.7,184.3z"/>
<path class="st17" d="M162.3,183.3c0,0.2,0,0.3-0.2,0.3C162.1,183.5,162.1,183.4,162.3,183.3z"/>
<path class="st17" d="M161.9,183.9c0,0.1,0,0.2-0.2,0.3C161.7,184.1,161.8,184,161.9,183.9z"/>
<path class="st17" d="M186.6,139.2c0,0.1-0.1,0.3-0.2,0.3C186.4,139.3,186.4,139.2,186.6,139.2z"/>
<path class="st17" d="M186.8,138.8c0,0.1,0,0.3-0.2,0.3C186.6,138.9,186.7,138.9,186.8,138.8z"/>
<path class="st17" d="M161.5,184.7c0,0.1,0,0.3-0.2,0.3C161.3,184.8,161.4,184.8,161.5,184.7z"/>
<path class="st17" d="M161.3,185c0,0.1,0,0.3-0.2,0.3C161.1,185.2,161.2,185.1,161.3,185z"/>
<path class="st17" d="M162.5,182.9c0,0.1-0.1,0.3-0.2,0.3C162.2,183.1,162.3,183,162.5,182.9z"/>
<path class="st17" d="M160.9,185.7c0,0.1,0,0.2-0.1,0.2C160.8,185.9,160.9,185.8,160.9,185.7z"/>
<path class="st11" d="M158.3,190.4c0,0.1,0,0.2-0.1,0.2C158.2,190.5,158.2,190.4,158.3,190.4z"/>
<path class="st17" d="M162.1,183.7c0,0.1,0,0.2-0.1,0.2C161.9,183.7,162,183.7,162.1,183.7z"/>
<path class="st17" d="M186.9,138.5c0,0.1,0,0.2-0.1,0.2C186.8,138.6,186.8,138.6,186.9,138.5z"/>
<path class="st17" d="M161.1,185.4c0,0.1-0.1,0.1-0.1,0.2C161,185.5,161,185.4,161.1,185.4z"/>
<path class="st17" d="M160.3,186.8c0,0.1,0,0.1-0.1,0.1C160.2,186.9,160.3,186.8,160.3,186.8z"/>
<path class="st12" d="M199.1,159.5c0,0.6-0.1,1.2-0.4,1.7C198.7,160.7,198.7,160.1,199.1,159.5z"/>
<path class="st8" d="M109.2,160.2c-0.1,0.6,0.2,1.1,0.3,1.6c0.1,0.4,0,0.7-0.4,0.8c-0.6,0.1-1,0-1.1-0.4c-0.1-0.5-0.2-1-0.4-1.5
	c-0.1-0.4-0.2-0.7-0.7-0.8c-0.5-0.1-0.8-0.1-1.1,0.3c-0.3,0.4-0.6,0.8-0.9,1.1c-0.2,0.2-0.4,0.4-0.6,0.4c-0.3,0.1-0.7,0-0.9-0.2
	c-0.2-0.3,0.1-0.5,0.3-0.6c0.9-1.2,1.9-2.4,2.8-3.6c0.4-0.5,0.8-0.7,1.4-0.5c0.9,0.2,1.8,0.3,2.7,0.6c0.5,0.2,1,0.4,1,1
	c0.1,0.6-0.4,1-0.9,1.3C110.4,160,109.8,160.1,109.2,160.2z M107,158.9c0.7,0.3,1.4,0.3,2.1,0.4c0.3,0,0.6-0.1,0.8-0.3
	c0.4-0.3,0.4-0.7-0.1-1c-0.6-0.3-1.2-0.4-1.8-0.4c-0.4,0-0.6,0.6-0.9,0.9C107.1,158.7,107,158.8,107,158.9z"/>
<path class="st7" d="M110.2,149c0.5-0.3,1-0.6,1.4-0.9c0.2-0.1,0.4-0.3,0.7-0.2c0.6,0,0.7,0.2,0.6,0.8c-0.1,0.4-0.3,0.8-0.2,1.3
	c0.8-0.8,1.6-1.5,2.4-2.2c0.3-0.3,0.6-0.5,1.1-0.4c0.4,0.1,0.5,0.3,0.2,0.7c-0.4,0.4-0.8,0.8-1.3,1.2c-0.8,0.7-1.6,1.4-2.3,2.2
	c-0.2,0.2-0.4,0.3-0.6,0.5c-0.4,0.2-0.8,0-1.1-0.2c-0.3-0.2,0-0.5,0-0.7c0.1-0.5,0.4-1,0.4-1.6c-0.8,0.4-1.5,1-2.2,1.6
	c-0.4,0.3-0.8,0.3-1.3,0.3c-0.3,0-0.5-0.2-0.3-0.5c0.7-1.3,1.4-2.6,2.1-3.9c0.1-0.2,0.3-0.4,0.6-0.4c0.2,0,0.5-0.1,0.7,0.2
	c0.2,0.2-0.1,0.4-0.2,0.6c-0.3,0.6-0.6,1.2-0.9,1.8c0,0.1-0.2,0.2-0.1,0.3C110.1,149.2,110.2,149.1,110.2,149z"/>
<path class="st8" d="M128.8,152.7c0.2,0.6,0.3,1,0.5,1.5c0.1,0.4,0.1,0.7-0.4,0.8c-0.6,0.2-0.9,0.1-1-0.3c-0.2-0.5-0.4-1-0.5-1.5
	c-0.1-0.5-0.5-0.6-0.9-0.7c-0.5-0.1-0.7,0.1-0.9,0.5c-0.2,0.3-0.5,0.6-0.7,0.9c-0.2,0.3-0.5,0.4-0.9,0.4c-0.6,0-0.7-0.2-0.4-0.8
	c0.8-1.2,1.7-2.3,2.5-3.5c0.3-0.4,0.6-0.5,1-0.4c1.1,0.2,2.3,0.3,3.4,0.7c1,0.4,1.1,1.2,0.3,1.8
	C130.2,152.5,129.5,152.5,128.8,152.7z M126.6,151.6c0.7,0.2,1.4,0.3,2,0.3c0.4,0,0.7-0.1,0.9-0.4c0.2-0.2,0.2-0.4,0-0.6
	c-0.6-0.3-1.3-0.5-2-0.5C127,150.4,126.8,151,126.6,151.6z"/>
<path class="st7" d="M120.3,148.2c0.9,0,1.7,0.1,2.5,0.6c0.9,0.5,1.2,1.4,0.6,2.3c-0.5,0.8-1.2,1.3-2,1.7c-1.3,0.5-2.7,0.7-4,0.3
	c-1.9-0.5-2.2-2.1-0.8-3.4C117.5,148.7,118.8,148.2,120.3,148.2z M120.2,148.9c-1.3,0-2.2,0.6-2.8,1.7c-0.4,0.7-0.2,1.2,0.5,1.5
	c1.4,0.7,3.6-0.2,4.1-1.6c0.3-0.7,0.1-1.1-0.6-1.4C121.1,149,120.7,148.9,120.2,148.9z"/>
<path class="st7" d="M114.7,160.3c0.7,0.1,1.2,0.3,1.8,0.4c0.2,0,0.4,0.1,0.4,0.3c0,0.2-0.2,0.3-0.4,0.4c-0.1,0.1-0.3,0.1-0.5,0
	c-0.2,0-0.3-0.1-0.5-0.1c-1.6-0.3-1.6-0.3-2.5,1.2c1,0.3,2,0.4,3,0.7c0.2,0.1,0.4,0.1,0.7,0.1c0.2,0,0.4,0.1,0.4,0.3
	c0,0.2-0.2,0.3-0.4,0.4c-0.2,0.1-0.4,0.1-0.7,0c-1.5-0.3-2.9-0.6-4.4-0.9c-0.6-0.1-0.6-0.2-0.3-0.7c1-1.3,1.9-2.6,2.9-3.8
	c0.3-0.4,0.7-0.5,1.2-0.4c1.3,0.3,2.6,0.5,3.9,0.8c0.3,0.1,0.8,0,0.8,0.5c-0.1,0.5-0.6,0.4-1,0.4c-0.8-0.1-1.6-0.3-2.4-0.5
	c-0.1,0-0.1,0-0.2-0.1C115.4,159.2,115.4,159.2,114.7,160.3z"/>
<path class="st7" d="M97.8,154.8c-0.5,0.8-1.1,1.4-1.6,2c-0.6,0.7-1.2,1.4-1.8,2.1c-0.1,0.2-0.3,0.4-0.5,0.5c-0.3,0.2-1,0.2-1.2-0.1
	c-0.2-0.3,0.2-0.5,0.3-0.7c0.3-0.5,0.7-0.9,1.1-1.4c-0.8-0.3-1.6-0.4-2.3-0.6c-0.3-0.1-0.4,0.2-0.5,0.4c-0.4,0.4-0.7,0.8-1.1,1.2
	c-0.5,0.6-0.8,0.6-1.6,0.2c0-0.3,0.2-0.4,0.3-0.6c1-1.2,2.1-2.4,3.1-3.7c0.6-0.6,0.7-0.7,1.6-0.3c-0.3,0.7-1,1.1-1.3,1.8
	c0.7,0.3,1.5,0.3,2.2,0.5c0.3,0.1,0.4-0.1,0.6-0.3c0.3-0.3,0.6-0.7,0.9-1C96.7,154.4,96.9,154.4,97.8,154.8z"/>
<path class="st7" d="M100,157.3c0.7,0.3,1.4,0.2,2,0.6c-0.1,0.5-0.5,0.5-0.8,0.5c-0.5-0.1-1-0.1-1.4-0.2c-0.4-0.1-0.7,0-0.9,0.3
	c-0.2,0.3-0.5,0.6-0.7,1c0.9,0.4,1.8,0.4,2.7,0.6c0.3,0.1,0.6,0.1,0.8,0.2c0.2,0,0.4,0.1,0.4,0.3c0,0.2-0.2,0.3-0.4,0.4
	c-0.2,0.1-0.4,0.1-0.6,0c-1.5-0.3-2.9-0.6-4.4-0.9c-0.4-0.1-0.5-0.3-0.2-0.6c1.1-1.3,2.1-2.6,3.2-3.9c0.3-0.4,0.7-0.4,1.1-0.4
	c1.3,0.3,2.6,0.5,4,0.8c0.1,0,0.2,0.1,0.3,0.1c0.2,0.1,0.3,0.2,0.3,0.3c0,0.2-0.1,0.3-0.3,0.3c-0.3,0.1-0.5,0.1-0.8,0.1
	c-0.9-0.2-1.8-0.3-2.6-0.5c-0.6-0.2-1,0-1.3,0.5C100.1,157,100,157.1,100,157.3z"/>
<path class="st7" d="M135.7,153.2c0.8,0.8,0.9,1.6,1.1,2.5c0.1,0.4-0.2,0.6-0.5,0.7c-0.5,0.1-0.8,0-0.9-0.4
	c-0.1-0.4-0.2-0.9-0.3-1.3c-0.1-0.5-0.3-0.9-0.8-1c-0.5-0.1-0.9,0.1-1.2,0.6c-0.2,0.3-0.4,0.6-0.7,0.9c-0.2,0.2-0.4,0.4-0.7,0.4
	c-0.3,0-0.5,0-0.7-0.3c-0.1-0.2,0.1-0.4,0.2-0.6c0.8-1.2,1.7-2.4,2.5-3.6c0.2-0.2,0.4-0.5,0.7-0.5c0.3,0,0.6,0,0.8,0.2
	c0.2,0.3-0.1,0.5-0.2,0.7c-0.2,0.3-0.5,0.6-0.6,1c0.4,0,0.7-0.1,1.1-0.2c1-0.3,2-0.6,2.9-0.8c0.2-0.1,0.4-0.1,0.6-0.1
	c0.2,0,0.5,0.1,0.5,0.4c0,0.2-0.2,0.3-0.4,0.3c-0.9,0.3-1.7,0.5-2.6,0.8C136.3,153.1,136,153.1,135.7,153.2z"/>
<path class="st7" d="M98,146.9c0.1,0.5,0.2,1,0.3,1.5c0.1,0.6-0.3,0.6-0.7,0.7c-0.4,0.1-0.7,0-0.8-0.5c-0.1-0.5-0.2-0.9-0.3-1.4
	c-0.2-0.6-1-0.9-1.5-0.4c-0.3,0.3-0.6,0.7-1,1.1c-0.5,0.5-0.7,0.5-1.4,0.2c0-0.3,0.2-0.5,0.4-0.6c0.9-1,1.8-2,2.7-3
	c0.4-0.5,0.8-0.6,1.4-0.5c0.9,0.2,1.8,0.3,2.7,0.6c0.9,0.3,1,0.9,0.3,1.6C99.5,146.6,98.7,146.6,98,146.9z M96,145.8
	c0.6,0.1,1.2,0.3,1.8,0.3c0.3,0,0.6-0.1,0.9-0.3c0.2-0.1,0.3-0.2,0.3-0.5c0-0.2-0.2-0.3-0.4-0.3c-0.4-0.1-0.7-0.2-1.1-0.3
	c-0.4-0.1-0.8,0-1.1,0.4C96.3,145.3,96.1,145.5,96,145.8z"/>
<path class="st7" d="M132.6,141.9c0.5,0.3,1.1,0.2,1.7,0.4c0.1,0.1,0.3,0.1,0.3,0.3c0,0.2-0.2,0.3-0.4,0.4c-0.3,0-0.6,0-1-0.1
	c-1.4-0.3-1.4-0.3-2.1,1c0.9,0.3,1.9,0.4,2.8,0.6c0.1,0,0.3,0,0.4,0c0.2,0.1,0.6,0.1,0.5,0.4c-0.1,0.3-0.4,0.3-0.6,0.3
	c-0.4,0-0.8-0.1-1.2-0.2c-1.1-0.2-2.1-0.4-3.2-0.6c-0.4-0.1-0.5-0.3-0.3-0.6c0.8-1.1,1.6-2.2,2.5-3.3c0.2-0.3,0.6-0.4,1-0.3
	c1.4,0.2,2.7,0.5,4.1,0.7c0.2,0,0.5,0,0.4,0.4c0,0.3-0.3,0.3-0.5,0.3c-0.8,0-1.5-0.2-2.3-0.3c-0.2,0-0.4-0.1-0.7-0.1
	C133.1,141.1,133.1,141.1,132.6,141.9z"/>
<path class="st7" d="M90.2,147.2c0-0.3,0.4-0.7,0.1-1c-0.2-0.3-0.7-0.2-1-0.3c-0.1,0-0.2-0.1-0.3-0.1c-0.8-0.2-1.6-0.2-2.3,0.4
	c-0.3,0.3-0.7,0.4-1.1,0.5c-0.2,0-0.5,0-0.6-0.3c-0.1-0.2,0.2-0.3,0.3-0.4c1.6-0.9,3.2-1.8,4.8-2.8c0.3-0.2,0.6-0.3,0.8-0.5
	c0.3-0.2,0.6-0.2,0.9-0.1c0.4,0,0.6,0.2,0.5,0.6c-0.3,1.3-0.6,2.6-0.9,3.8c-0.1,0.5-0.5,0.6-0.9,0.6
	C90.2,147.8,90.1,147.6,90.2,147.2z M90.8,143.9c-0.7,0.3-1.3,0.7-2,1.1c2.1,0.6,1.7,0.6,2-1C90.9,144,90.9,144,90.8,143.9z"/>
<path class="st7" d="M125.8,143.7c-1,0.1-2-0.1-2.9-0.6c-0.8-0.5-1-1.3-0.5-2.1c0.3-0.5,0.7-0.8,1.2-1.1c1.5-0.8,3-1,4.6-0.6
	c0.4,0.1,0.8,0.3,1.1,0.5c0.2,0.2,0.6,0.3,0.5,0.6c-0.2,0.4-0.6,0.3-0.9,0.3c-0.3-0.1-0.5-0.2-0.7-0.4c-1.2-0.9-3.3-0.6-4.2,0.7
	c-0.6,0.8-0.5,1.5,0.6,1.8c0.8,0.2,1.6,0.2,2.5,0.1c0.2,0,0.4-0.1,0.6-0.1c0.2,0,0.4,0.1,0.4,0.3c0,0.2-0.2,0.3-0.3,0.3
	C127.1,143.8,126.5,143.7,125.8,143.7z"/>
<path class="st8" d="M119.2,141.3c-0.8-0.3-1.6-0.3-2.4-0.5c-0.4-0.1-0.6,0.1-0.9,0.3c-0.4,0.2-0.7,0.4-1.1,0.6
	c-0.2,0.1-0.5,0.2-0.7,0.1c-0.3-0.1-0.4-0.3-0.1-0.5c0.1-0.1,0.3-0.2,0.4-0.3c1.5-0.9,3.1-1.8,4.6-2.8c0.4-0.3,0.9-0.4,1.4-0.3
	c0.3,0,0.5,0.2,0.5,0.5c-0.1,1.3-0.3,2.6-0.4,3.9c-0.1,0.4-0.5,0.4-0.8,0.4c-0.4,0-0.5-0.3-0.4-0.6
	C119.1,141.9,119.2,141.6,119.2,141.3z M119.4,138.9c-0.6,0.4-1.1,0.7-1.6,1c-0.1,0.1-0.1,0.1-0.1,0.3c0.1,0,0.2,0,0.3,0.1
	C119.4,140.5,119.4,140.5,119.4,138.9z"/>
<path class="st7" d="M105.7,138.4c-0.4,0-0.9,0-1.4-0.2c-0.4-0.1-0.7-0.1-1,0.3c-0.1,0.2-0.4,0.4-0.6,0.7c-0.2,0.2-0.4,0.3-0.7,0.3
	c-0.2,0-0.6,0.1-0.7-0.2c-0.1-0.2,0.1-0.4,0.3-0.6c0.9-1,1.7-2,2.6-3c0.2-0.3,0.5-0.4,0.8-0.4c1.1,0.1,2.2,0.2,3.2,0.7
	c0.9,0.4,0.9,1.1,0.1,1.7c-0.6,0.5-1.4,0.6-2.2,0.6C106,138.4,105.9,138.4,105.7,138.4z M104.4,137.5c0.4,0.1,0.8,0.2,1.2,0.2
	c0.2,0,0.3,0,0.5,0c0.4,0,0.8-0.1,1.1-0.4c0.3-0.3,0.3-0.6-0.1-0.8c-0.5-0.3-1.1-0.4-1.7-0.4c-0.4,0-0.6,0.5-0.8,0.8
	C104.5,137.1,104.4,137.2,104.4,137.5z"/>
<path class="st7" d="M104.3,146.1c-0.6-0.1-1.2-0.3-1.8-0.4c-0.2,0-0.3-0.1-0.3-0.3c0-0.2,0.1-0.3,0.3-0.3c0.2,0,0.5-0.1,0.7,0
	c1.7,0.3,3.3,0.6,5,0.9c0.1,0,0.2,0.1,0.3,0.1c0.1,0,0.3,0.1,0.2,0.3c0,0.1-0.1,0.2-0.2,0.3c-0.2,0.1-0.4,0.1-0.6,0.1
	c-0.2,0-0.5,0-0.7-0.1c-1.1-0.5-1.9,0-2.5,0.9c-0.5,0.7-1.1,1.3-1.6,2c-0.2,0.3-0.5,0.5-0.8,0.5c-0.3,0-0.5,0-0.7-0.2
	c-0.2-0.2,0.1-0.4,0.2-0.6c0.8-0.9,1.5-1.8,2.3-2.7C104.3,146.4,104.4,146.3,104.3,146.1z"/>
<path class="st7" d="M109.6,140.1c1.1,0.2,2.1,0.4,3,0.6c0.3,0.1,0.7,0,0.6,0.4c-0.1,0.3-0.5,0.4-0.8,0.4c-0.8-0.1-1.5-0.3-2.3-0.4
	c-0.6-0.1-1.2-0.2-1.8-0.3c-0.4-0.1-0.5-0.3-0.3-0.6c0.9-1.1,1.9-2.3,2.8-3.4c0.2-0.2,0.4-0.3,0.7-0.3c0.2,0,0.5,0,0.6,0.2
	c0.1,0.2-0.1,0.4-0.2,0.5C111.3,138.1,110.5,139,109.6,140.1z"/>
<path class="st18" d="M187.7,137.9c0.2,0,0.4,0.2,0.6,0.3c2.7,2.5,5.1,5.3,6.6,8.6c0.6,1.4,1.3,2.8,1.5,4.4c-0.4,0-0.6-0.3-0.9-0.5
	c-0.5-0.2-1-0.2-1.4-0.1c-0.9,0.3-1.8,0.3-2.7,0.3c-0.8,0-0.8,0.1-0.7,0.8c0,0.5,0,1.1,0.2,1.6c0,0.1,0,0.3-0.2,0.3
	c-0.2-0.3-0.1-0.6-0.1-1c0-0.9-0.4-1.6-1.3-1.9c-0.8-0.3-1.5-0.7-2.3-1c-1.1-0.5-1.7-1.4-1.4-2.5c0.2-1,0.3-2.1,0.8-3.1
	c0.2-0.6,0.2-1-0.2-1.5c-0.5-0.5-0.4-0.5,0.1-0.9c0.2-0.2,0.5-0.3,0.4-0.6c-0.2-1,0.5-1.6,0.8-2.4
	C187.4,138.6,187.7,138.3,187.7,137.9z"/>
<path class="st18" d="M190.2,158.5c0.1-0.9,0.2-1.6,0.3-2.3c0.1,0.1,0.2,0.8,0.1,1.1C190.6,157.6,190.7,158,190.2,158.5z"/>
<path class="st18" d="M190.7,154.4c0.2,0.4,0.1,0.7,0,1.2C190.6,155.2,190.6,154.9,190.7,154.4z"/>
<path class="st16" d="M107,158.9c0.1-0.2,0.1-0.2,0.1-0.3c0.3-0.3,0.4-0.9,0.9-0.9c0.6,0,1.2,0.1,1.8,0.4c0.5,0.2,0.5,0.6,0.1,1
	c-0.2,0.2-0.5,0.3-0.8,0.3C108.4,159.3,107.7,159.2,107,158.9z"/>
<path class="st10" d="M110.2,149c-0.1,0.1-0.1,0.2-0.3,0.1c-0.1-0.1,0-0.2,0.1-0.3C110.1,148.9,110.2,148.9,110.2,149z"/>
<path class="st16" d="M126.6,151.6c0.2-0.5,0.5-1.2,0.9-1.2c0.7,0,1.4,0.1,2,0.5c0.2,0.1,0.2,0.4,0,0.6c-0.2,0.3-0.6,0.4-0.9,0.4
	C127.9,151.9,127.3,151.7,126.6,151.6z"/>
<path class="st10" d="M120.2,148.9c0.4,0,0.8,0,1.2,0.2c0.7,0.3,0.9,0.7,0.6,1.4c-0.6,1.4-2.7,2.3-4.1,1.6c-0.6-0.3-0.8-0.8-0.5-1.5
	C118.1,149.6,119,149,120.2,148.9z"/>
<path class="st16" d="M96,145.8c0.1-0.3,0.3-0.5,0.5-0.7c0.3-0.4,0.6-0.5,1.1-0.4c0.4,0.1,0.7,0.2,1.1,0.3c0.2,0.1,0.4,0.1,0.4,0.3
	c0,0.2-0.1,0.3-0.3,0.5c-0.3,0.2-0.6,0.2-0.9,0.3C97.2,146.1,96.6,145.9,96,145.8z"/>
<path class="st18" d="M90.8,143.9c0,0.1,0.1,0.1,0.1,0.1c-0.3,1.7,0,1.6-2,1C89.5,144.6,90.2,144.2,90.8,143.9z"/>
<path class="st18" d="M119.4,138.9c0,1.6,0,1.6-1.4,1.3c-0.1,0-0.2,0-0.3-0.1c0-0.2,0-0.2,0.1-0.3
	C118.3,139.6,118.8,139.3,119.4,138.9z"/>
<path class="st16" d="M104.4,137.5c0-0.3,0.1-0.4,0.2-0.5c0.3-0.3,0.4-0.7,0.8-0.8c0.6,0,1.1,0.1,1.7,0.4c0.4,0.2,0.4,0.5,0.1,0.8
	c-0.3,0.2-0.7,0.4-1.1,0.4c-0.2,0-0.3,0-0.5,0C105.2,137.7,104.8,137.6,104.4,137.5z"/>
<polygon class="st10" points="129,177.4 68.8,161.5 103.2,128.3 155.6,136.9 "/>
</svg>
