<?xml version="1.0" encoding="utf-8"?>
<!-- Generator: Adobe Illustrator 20.0.0, SVG Export Plug-In . SVG Version: 6.00 Build 0)  -->
<svg version="1.1" id="Layer_1" xmlns="http://www.w3.org/2000/svg" xmlns:xlink="http://www.w3.org/1999/xlink" x="0px" y="0px"
	 viewBox="0 0 220 277" style="enable-background:new 0 0 220 277;" xml:space="preserve">
<style type="text/css">
	.st0{fill:#FBF49C;}
	.st1{fill:#DB9FC7;}
	.st2{fill:#75C4C2;}
	.st3{fill:#DFE2F2;}
	.st4{fill:#ECF3D3;}
	.st5{fill:#F8E8CD;}
	.st6{fill:#D0CFD0;}
	.st7{fill:#EDECEC;}
	.st8{fill:#F1EEEC;}
	.st9{fill:#ABB0B5;}
	.st10{fill:#252222;}
	.st11{fill:#ADA9A4;}
	.st12{fill:#605850;}
	.st13{fill:#BEC2C5;}
	.st14{fill:#D3D4D4;}
	.st15{fill:#DBDBDB;}
	.st16{fill:#302F2F;}
	.st17{fill:#464444;}
	.st18{fill:#3B393A;}
	.st19{fill:#1E2126;}
	.st20{fill:#1C1E23;}
	.st21{fill:#24262C;}
	.st22{fill:#15171A;}
	.st23{fill:#2C2F35;}
	.st24{fill:#212329;}
	.st25{fill:#33363C;}
	.st26{fill:#2F3239;}
	.st27{fill:#A49DA1;}
	.st28{fill:#36393F;}
	.st29{fill:#393C42;}
	.st30{fill:#45454A;}
	.st31{fill:#C9CED6;}
	.st32{fill:#D0D0D0;}
	.st33{fill:#E0DEDE;}
</style>
<rect class="st0" width="220" height="277"/>
<g>
	<g>
		<path class="st7" d="M176.6,249.1c1.8,0,3.6,0,5.4,0c0.3,0,0.7-0.1,1,0.2c-2,0-4.1,0-6.1,0C176.8,249.3,176.6,249.4,176.6,249.1z"
			/>
	</g>
</g>
<path class="st8" d="M191.4,135.2c-2.3-0.3-4.6-0.7-6.9-1c-3.2-0.5-6.3-1-9.5-1.5c-0.2,0-0.4,0-0.6-0.2c-0.8,0-1.6-0.1-2.4-0.3
	c-1.9,0.2-3.8,0-5.6-0.9c-1.6-0.3-3.1-0.5-4.7-0.7c-1-0.2-2.1-0.2-3.1-0.4c-1.2-0.3-2.5-0.3-3.7-0.7c-0.3,0-0.5,0-0.8,0
	c-1.4-0.2-2.9-0.5-4.3-0.6c-0.4,0-0.9,0-1.3-0.3c-0.1,0-0.3,0-0.4,0c-1.7-0.1-3.3-0.4-5-0.7c-0.5-0.1-1,0.1-1.4-0.3
	c-0.3,0-0.5,0-0.8,0c-1-0.2-1.9-0.3-2.9-0.4c-2.2-0.2-4.3-0.6-6.4-1c-2.2-0.4-4.4-0.7-6.6-1.1c-2.2-0.3-4.4-0.7-6.6-1
	c-2.2-0.4-4.5-0.7-6.7-1.1c-3.2-0.5-6.4-0.9-9.6-1.4c-2.4-0.4-4.8-0.8-7.2-1.1c-3-0.4-6.1-0.8-9.1-1.4c-0.7-0.1-1.3-0.1-1.9-0.4
	c-0.5-0.1-1-0.1-1.5-0.2c-0.6-0.3-1-0.2-1.6,0.3c-1.6,1.3-2.9,2.8-4.4,4.2c-2.7,2.7-5.5,5.3-8.2,8c-1.3,1.3-2.6,2.6-4,3.8
	c0,0,0,0,0,0c-1.1,1.2-2.2,2.4-3.5,3.5c-0.1,0.3-0.4,0.5-0.6,0.7c-1.3,1.2-2.5,2.5-3.8,3.7c-3,2.8-5.7,5.8-8.7,8.5
	c-2,1.8-3.9,3.8-5.9,5.7c-3.8,3.8-7.8,7.5-11.6,11.3c-0.3,0.3-0.5,0.6-0.9,0.8c-0.4,0.6-1,0.9-1.5,1.4c-3,3.1-6.2,6.1-9.4,9.2
	c-0.9,0.9-0.9,0.9-0.5,2.1c1.9,0.6,3.9,0.9,5.9,1.4c4.2,0.9,8.4,1.8,12.6,2.8c5.2,1.1,10.5,2.3,15.7,3.5c3.2,0.7,6.4,1.5,9.7,2.2
	c4.6,1.1,9.3,2.1,13.9,3.1c5,1.1,10,2.3,15,3.5c0.4,0.1,0.8,0.1,1,0.6c0.1,0,0.1,0,0.2,0c0.3-0.3,0.5-0.2,0.8,0c0.1,0,0.2,0,0.2,0
	l0.4,0c1.6,0.2,3.2,0.7,4.9,1.1c5.4,1.1,10.8,2.5,16.2,3.6c1.4,0.3,2.8,0.7,4.3,1.1c0.1,0,0.2,0.1,0.3,0.2c0.3,0,0.6,0,0.8,0.2
	c0,0,0.1,0,0.1,0l0.1,0c1.1,0,2.1,0.4,3.1,0.6c0.1,0,0.3,0,0.4,0.2c0.2,0,0.4,0,0.6,0c0.2,0,0.3,0,0.4,0.2c0.1,0,0.3,0,0.4,0
	c0.2,0,0.4,0,0.6,0.2c0.1,0,0.1,0,0.2,0c0.1,0,0.3,0,0.4,0.1c0.2,0,0.4,0,0.6,0c1.7,0.3,3.3,0.7,4.9,1c0.5,0.1,1.2,0.1,1.6,0.5
	c0.1,0,0.3,0,0.4,0c0.2,0,0.4,0,0.6,0.2c1.1,0,2.2,0.5,3.3,0.7c2.9,0.5,5.7,1.1,8.5,1.7c1.6,0.3,3.2,0.7,4.9,1
	c0.2,0,0.4,0.1,0.7,0.1c0.2-0.9,0.4-1.7,0.5-2.6c0.1-0.8,0.5-1.5,1.3-2c0.4-0.2,0.6-0.8,0.8-1.2c1.1-2.2,2.3-4.3,3.4-6.4
	c0.2-0.4,0.3-0.8,0.7-1c0-0.1,0-0.2,0-0.2c0-0.1,0-0.2,0.1-0.2c0.1-0.2,0.2-0.5,0.5-0.7c0,0,0,0,0,0c0-0.2,0.1-0.3,0.2-0.4
	c0.1-0.2,0.1-0.4,0.2-0.6c0.2-0.3,0.2-0.6,0.5-0.8l0,0c0-0.2,0.1-0.3,0.2-0.4c0.1-0.2,0.2-0.4,0.3-0.6c0-0.1,0.1-0.1,0.1-0.1l0-0.1
	c0.1-0.3,0.2-0.5,0.4-0.7c0-0.1,0-0.1,0.1-0.1c0-0.1,0.1-0.1,0.1-0.2c0-0.1,0.1-0.1,0.1-0.2c0-0.1,0-0.1,0.1-0.2l0,0
	c0-0.2,0.1-0.2,0.2-0.3l0-0.1c0-0.2,0.1-0.2,0.2-0.3l0,0l0,0c0-0.1,0.1-0.2,0.2-0.3l0-0.1l0,0c0-0.1,0.1-0.2,0.2-0.3
	c0,0,0-0.1,0-0.1c0-0.1,0-0.2,0.1-0.2l0,0c0-0.2,0.1-0.3,0.2-0.3l0,0c0-0.2,0.1-0.2,0.2-0.3l0-0.1c0.1-0.4,0.3-0.7,0.5-1l0,0
	c0-0.2,0.1-0.3,0.2-0.4c0.9-1.7,1.8-3.5,2.8-5.2c2.6-4.8,5.2-9.6,7.8-14.4c4-7.2,8-14.5,12-21.7c0.2-0.3,0.3-0.5,0.5-0.8
	c0-0.2,0.1-0.2,0.2-0.3l0-0.1c0-0.1,0.1-0.2,0.2-0.3l0-0.1c0-0.1,0-0.2,0.1-0.2c0.1-0.3,0.2-0.6,0.4-0.8c0.2-0.5,0.5-0.9,0.7-1.4
	c0.1-0.6,0.5-1.1,0.8-1.6c1-1.8,2-3.6,3.1-5.4c0.1-0.2,0.2-0.4,0.2-0.6C192.1,135.4,191.8,135.2,191.4,135.2z M158.1,144.4
	c-8.6,13.6-17.3,27.1-25.9,40.7c-0.1,0.1-0.2,0.3-0.3,0.4c-0.2,0.4-0.5,0.4-0.9,0.3c-1.8-0.4-3.6-0.8-5.4-1.2
	c-8.2-1.8-16.5-3.6-24.7-5.3c-6-1.3-12.1-2.6-18.1-3.9c-7-1.5-14.1-3-21.1-4.6c-0.4-0.1-0.8-0.2-1.4-0.3c1.6-1.7,3.1-3.2,4.6-4.8
	c7.4-7.7,14.7-15.5,22.1-23.2c2.8-2.9,5.6-5.9,8.4-8.8c0.5-0.5,0.9-0.7,1.6-0.5c3.7,0.7,7.4,1.2,11.1,1.8c3.6,0.6,7.1,1.2,10.7,1.8
	c4.5,0.7,8.9,1.5,13.4,2.2c4,0.7,8.1,1.4,12.1,2c3.3,0.5,6.6,1.1,9.9,1.6c1.5,0.2,3,0.5,4.4,0.8
	C158.4,143.9,158.2,144.1,158.1,144.4z"/>
<path class="st9" d="M18,181.4c1.9,0.6,3.9,0.9,5.9,1.4c4.2,0.9,8.4,1.8,12.6,2.8c5.2,1.1,10.5,2.3,15.7,3.5
	c3.2,0.7,6.4,1.5,9.7,2.2c4.6,1.1,9.3,2.1,13.9,3.1c5,1.1,10,2.3,15,3.5c0.4,0.1,0.8,0.1,1,0.6c-0.2,0.1-0.4,0.1-0.6,0
	c-2.9-0.6-5.7-1.2-8.6-1.8c-3.5-0.8-7-1.5-10.5-2.3c-6.3-1.4-12.6-2.8-18.9-4.2c-3.7-0.9-7.4-1.6-11.1-2.3c-2.5-0.5-5-1.1-7.5-1.7
	c-3.7-1-7.5-1.6-11.3-2.3c-1.6-0.3-3.2-0.8-4.8-1.2c-0.2-0.1-0.4-0.2-0.6-0.3C17.6,182,17.6,181.7,18,181.4z"/>
<path class="st10" d="M197.6,171.8c0,0.1,0,0.1-0.1,0.1c-0.3,0.1-0.4,0.4-0.5,0.7c-1.6,3.1-3.6,5.8-6,8.3c-1.9,1.9-4,3.6-6.2,5.1
	c-2.3,1.6-4.7,3.1-7.1,4.3c-4.6,2.4-9.4,4.2-14.4,5.7c-1.3,0.4-2.6,0.7-3.9,1c-0.4,0.1-0.6,0-0.6-0.4c0,0,0,0,0,0c0.2,0,0.3,0,0.5,0
	c1.3-0.4,2.6-0.8,3.9-1.2c0.9-0.3,1.7-0.7,2.6-1c1.4-0.6,2.8-1,4.2-1.5c3.3-1.3,6.5-2.8,9.6-4.6c3.9-2.2,7.5-4.7,10.7-7.9
	c2-2.1,3.9-4.2,5.4-6.8c1.3-2.3,2.3-4.9,2.9-7.5c0.1-0.4,0.2-0.6,0.6-0.6c0,0.3,0,0.6,0,0.9c0,0.1,0,0.1,0,0.2
	c-0.3,0.5-0.4,1.1-0.4,1.7c0,0.1,0,0.1,0,0.2c-0.2,0.2-0.2,0.4-0.2,0.6l0,0c-0.3,0.3-0.4,0.7-0.3,1.2c0,0,0,0,0,0
	c-0.2,0.1-0.3,0.3-0.2,0.5c0,0.1,0,0.1-0.1,0.2c-0.1,0.1-0.2,0.2-0.1,0.4c0,0,0,0,0,0C197.6,171.5,197.5,171.7,197.6,171.8z"/>
<path class="st11" d="M151.4,211.1c0.2-0.9,0.4-1.7,0.5-2.6c0.1-0.8,0.5-1.5,1.3-2c0.4-0.2,0.6-0.8,0.8-1.2c1.1-2.2,2.3-4.3,3.4-6.4
	c0.2-0.4,0.3-0.8,0.7-1c0.9-0.1,1.8-0.2,2.7-0.4c0,0.1-0.1,0.2-0.1,0.3c-1.2,0.9-1.9,2.2-2.7,3.4c-1.3,1.9-2.3,4-3.5,5.9
	c-0.7,1.1-1.3,2.4-2.1,3.4c-0.3,0.4-0.5,0.7-1,0.9C151.4,211.3,151.4,211.2,151.4,211.1z"/>
<path class="st12" d="M160.9,197.5c-0.9,0.2-1.8,0.4-2.7,0.4c0-0.1,0-0.2,0-0.2c0.1,0,0.1-0.1,0.1-0.2c0.1-0.2,0.2-0.5,0.5-0.7
	c0,0.4,0.2,0.5,0.6,0.4c1.3-0.2,2.6-0.6,3.9-1c4.9-1.6,9.8-3.4,14.4-5.7c2.5-1.3,4.8-2.7,7.1-4.3c2.2-1.5,4.3-3.2,6.2-5.1
	c2.4-2.4,4.5-5.2,6-8.3c0.1-0.3,0.2-0.6,0.5-0.7c-0.1,0.7-0.5,1.3-0.8,1.9c-2.2,4-5.2,7.3-8.7,10.2c-3.9,3.2-8.2,5.7-12.7,7.9
	c-2.1,1-4.3,1.9-6.4,2.8c-0.2,0-0.3,0-0.4,0.2c-0.2,0.1-0.5,0.2-0.7,0.3c-0.2-0.1-0.4,0-0.5,0.2c-0.2,0.1-0.3,0.1-0.5,0.2
	c-0.9,0.1-1.8,0.5-2.7,0.8c-0.6,0.2-1.2,0.3-1.7,0.7C161.8,197.2,161.4,197.3,160.9,197.5z"/>
<path class="st11" d="M188.1,143.4c0.1-0.6,0.5-1.1,0.8-1.6c1-1.8,2-3.6,3.1-5.4c0.1-0.2,0.2-0.4,0.2-0.6c0.4,0.5,0.6,1,0.3,1.6
	c-0.5,1-0.9,2-1.5,2.9c-0.5,0.9-0.9,1.9-1.5,2.7c-0.2,0.3-0.1,0.6,0,0.8c0.3,0.5,0.6,1,1.1,1.4c1.8,1.7,3.4,3.5,4.8,5.5
	c1.4,2.1,2.6,4.2,3.4,6.6c0.8,2.7,0.8,5.4,0.8,8.1c0,0.3,0,0.5-0.4,0.6c0-0.3,0-0.6,0-1c0.3-4-0.4-7.8-2.3-11.3
	c-1.2-2.2-2.7-4.3-4.4-6.2c-1.3-1.4-2.8-2.7-4.2-4C188.2,143.5,188.1,143.5,188.1,143.4z"/>
<path class="st13" d="M93.4,198.4c1.6,0.2,3.2,0.7,4.9,1.1c5.4,1.1,10.8,2.5,16.2,3.6c1.4,0.3,2.8,0.7,4.3,1.1
	c0.1,0,0.2,0.1,0.3,0.2c-1,0.1-2-0.3-3-0.5c-3.4-0.7-6.7-1.6-10.1-2.3c-3.3-0.7-6.6-1.5-10-2.1c-0.8-0.1-1.7-0.2-2.4-0.7
	C93.5,198.7,93.5,198.6,93.4,198.4z"/>
<path class="st13" d="M151.4,211.1c0,0.1,0,0.2,0,0.2c-0.1,0.4-0.3,0.3-0.6,0.2c-2-0.4-4-0.8-6-1.2c-3.4-0.7-6.7-1.6-10.1-2.3
	c-0.3,0-0.5-0.2-0.6-0.4c1.1,0,2.2,0.5,3.3,0.7c2.9,0.5,5.7,1.1,8.5,1.7c1.6,0.3,3.2,0.7,4.9,1C151,211.1,151.2,211.1,151.4,211.1z"
	/>
<path class="st11" d="M162.2,197c0.5-0.4,1.2-0.5,1.7-0.7c0.9-0.3,1.8-0.7,2.7-0.8c0,0.1-0.1,0.3-0.2,0.3c-1.3,0.5-2.6,1-4,1.3
	C162.4,197.2,162.3,197.1,162.2,197z"/>
<path class="st13" d="M120,204.6c1.1,0,2.1,0.4,3.1,0.6c-0.4,0.4-0.9,0-1.3,0C121.2,205,120.5,205.1,120,204.6z"/>
<path class="st11" d="M198.7,168.5c0-0.1,0-0.1,0-0.2c0.3-0.6,0.4-1.1,0.4-1.7c0-0.1,0-0.1,0-0.2c0,0,0.1,0,0.1,0
	c0.3,0.2,0.3,0.5,0.2,0.8c-0.2,0.5-0.1,1.2-0.7,1.6C198.7,168.7,198.7,168.6,198.7,168.5z"/>
<path class="st12" d="M198.2,170.3c-0.1-0.4,0-0.8,0.3-1.2c0,0.1,0,0.3,0,0.4C198.4,169.7,198.4,170.1,198.2,170.3z"/>
<path class="st12" d="M199.2,166.4c0,0-0.1,0-0.1,0c0-0.3,0-0.6,0-0.9c0-0.1,0.1-0.3,0.2-0.4c0,0.3,0,0.6,0,1
	C199.3,166.1,199.2,166.3,199.2,166.4z"/>
<path class="st9" d="M92,198.4c0.3-0.3,0.5-0.2,0.8,0C92.5,198.6,92.2,198.6,92,198.4z"/>
<path class="st9" d="M93.4,198.4c0.1,0.1,0.1,0.3,0.2,0.4c-0.3,0-0.6-0.1-0.6-0.4C93.1,198.4,93.3,198.4,93.4,198.4z"/>
<path class="st13" d="M119,204.4c0.3,0,0.6,0,0.8,0.2C119.6,204.6,119.3,204.7,119,204.4z"/>
<path class="st11" d="M167.2,195.4c0.1-0.2,0.3-0.3,0.5-0.2C167.6,195.4,167.4,195.5,167.2,195.4z"/>
<path class="st11" d="M168.4,194.9c0.1-0.2,0.2-0.2,0.4-0.2C168.8,195,168.7,195.2,168.4,194.9z"/>
<path class="st11" d="M198.5,169.5c0-0.1,0-0.3,0-0.4c0,0,0,0,0,0c0,0,0.1,0,0.1,0l0.1,0C198.9,169.3,198.8,169.4,198.5,169.5z"/>
<path class="st11" d="M197.9,171c0-0.1,0.1-0.1,0.1-0.2c0.1,0,0.1,0,0.2,0c0.3,0.2,0.1,0.3-0.1,0.4
	C197.9,171.2,197.9,171.1,197.9,171z"/>
<path class="st12" d="M198.6,169.1L198.6,169.1c-0.1,0-0.1,0-0.1,0c0-0.2,0-0.4,0.2-0.6c0,0.1,0.1,0.1,0.1,0.2
	C198.7,168.9,198.7,169,198.6,169.1z"/>
<path class="st12" d="M198.1,170.8c-0.1,0-0.1,0-0.2,0c0-0.2,0-0.4,0.2-0.5C198.1,170.5,198.1,170.6,198.1,170.8z"/>
<path class="st13" d="M133.1,207.4c0.1,0,0.3,0,0.4,0c-0.1,0.1-0.2,0.2-0.4,0.1C133.1,207.6,133.1,207.5,133.1,207.4z"/>
<path class="st13" d="M123.5,205.3c0.2,0,0.4,0,0.6,0C123.9,205.6,123.7,205.6,123.5,205.3z"/>
<path class="st13" d="M126,205.9c0.2,0,0.4,0,0.6,0C126.4,206.2,126.2,206.2,126,205.9z"/>
<path class="st13" d="M125.4,205.7c0.1,0,0.1,0,0.2,0c0,0.1-0.1,0.1-0.2,0.1C125.4,205.9,125.4,205.8,125.4,205.7z"/>
<path class="st12" d="M197.9,171c0,0.1,0,0.1,0.1,0.2c-0.1,0.1-0.1,0.1-0.2,0.2C197.7,171.3,197.7,171.1,197.9,171z"/>
<path class="st12" d="M197.6,171.8c0-0.2,0-0.3,0.2-0.4C197.8,171.6,197.7,171.7,197.6,171.8z"/>
<path class="st13" d="M124.5,205.5c0.1,0,0.3,0,0.4,0C124.7,205.7,124.6,205.7,124.5,205.5z"/>
<path class="st14" d="M85.9,119c-0.7-0.1-1.3-0.1-1.9-0.4c0-0.1,0-0.1,0.1-0.2"/>
<path class="st10" d="M60.3,170.5c1.6-1.7,3.1-3.2,4.6-4.8c7.4-7.7,14.7-15.5,22.1-23.2c2.8-2.9,5.6-5.9,8.4-8.8
	c0.5-0.5,0.9-0.7,1.6-0.5c3.7,0.7,7.4,1.2,11.1,1.8c3.6,0.6,7.1,1.2,10.7,1.8c4.5,0.7,8.9,1.5,13.4,2.2c4,0.7,8.1,1.4,12.1,2
	c3.3,0.5,6.6,1.1,9.9,1.6c1.5,0.2,3,0.5,4.4,0.8c-0.1,0.4-0.3,0.6-0.5,0.9c-8.6,13.6-17.3,27.1-25.9,40.7c-0.1,0.1-0.2,0.3-0.3,0.4
	c-0.2,0.4-0.5,0.4-0.9,0.3c-1.8-0.4-3.6-0.8-5.4-1.2c-8.2-1.8-16.5-3.6-24.7-5.3c-6-1.3-12.1-2.6-18.1-3.9c-7-1.5-14.1-3-21.1-4.6
	C61.3,170.7,60.9,170.6,60.3,170.5z M110.2,156.1c-0.1-0.1-0.1-0.1-0.2-0.2c0.3-0.6,0.6-1.2,0.9-1.8c0.1-0.2,0.3-0.4,0.2-0.6
	c-0.2-0.3-0.4-0.2-0.7-0.2c-0.3,0-0.5,0.1-0.6,0.4c-0.7,1.3-1.4,2.6-2.1,3.9c-0.2,0.3,0,0.5,0.3,0.5c0.5,0.1,0.9,0,1.3-0.3
	c0.7-0.5,1.4-1.1,2.2-1.6c0,0.6-0.3,1.1-0.4,1.6c0,0.2-0.3,0.5,0,0.7c0.3,0.2,0.7,0.4,1.1,0.2c0.2-0.1,0.4-0.3,0.6-0.5
	c0.8-0.7,1.6-1.4,2.3-2.2c0.4-0.4,0.9-0.8,1.3-1.2c0.3-0.3,0.2-0.5-0.2-0.7c-0.5-0.1-0.8,0.1-1.1,0.4c-0.8,0.7-1.5,1.4-2.4,2.2
	c-0.1-0.5,0.1-0.9,0.2-1.3c0.1-0.6,0-0.8-0.6-0.8c-0.3,0-0.5,0.1-0.7,0.2C111.2,155.4,110.7,155.7,110.2,156.1z M109.2,167.3
	c0.6-0.1,1.1-0.2,1.6-0.5c0.5-0.3,0.9-0.6,0.9-1.3c0-0.6-0.5-0.8-1-1c-0.9-0.3-1.8-0.4-2.7-0.6c-0.6-0.1-1,0-1.4,0.5
	c-0.9,1.2-1.9,2.4-2.8,3.6c-0.1,0.2-0.5,0.4-0.3,0.6c0.2,0.3,0.5,0.3,0.9,0.2c0.3,0,0.5-0.2,0.6-0.4c0.3-0.4,0.6-0.7,0.9-1.1
	c0.3-0.4,0.6-0.5,1.1-0.3c0.5,0.1,0.6,0.5,0.7,0.8c0.1,0.5,0.2,1,0.4,1.5c0.1,0.4,0.6,0.5,1.1,0.4c0.4-0.1,0.5-0.4,0.4-0.8
	C109.4,168.4,109.2,167.9,109.2,167.3z M128.8,159.7c0.7-0.2,1.4-0.2,1.9-0.6c0.8-0.6,0.7-1.5-0.3-1.8c-1.1-0.4-2.2-0.6-3.4-0.7
	c-0.4-0.1-0.7,0.1-1,0.4c-0.8,1.2-1.7,2.3-2.5,3.5c-0.4,0.5-0.3,0.7,0.4,0.8c0.4,0,0.7-0.1,0.9-0.4c0.2-0.3,0.5-0.6,0.7-0.9
	c0.2-0.3,0.5-0.6,0.9-0.5c0.4,0.1,0.8,0.2,0.9,0.7c0.1,0.5,0.3,1,0.5,1.5c0.2,0.4,0.4,0.5,1,0.3c0.5-0.1,0.5-0.4,0.4-0.8
	C129.1,160.8,129,160.3,128.8,159.7z M120.3,155.2c-1.5,0-2.9,0.5-3.8,1.4c-1.4,1.3-1,2.9,0.8,3.4c1.4,0.4,2.7,0.2,4-0.3
	c0.8-0.4,1.6-0.9,2-1.7c0.5-0.9,0.3-1.8-0.6-2.3C122.1,155.3,121.2,155.2,120.3,155.2z M114.7,167.4c0.7-1.2,0.7-1.2,1.9-0.9
	c0.1,0,0.1,0,0.2,0.1c0.8,0.2,1.6,0.3,2.4,0.5c0.4,0.1,0.9,0.1,1-0.4c0.1-0.5-0.5-0.5-0.8-0.5c-1.3-0.3-2.6-0.5-3.9-0.8
	c-0.5-0.1-0.9,0-1.2,0.4c-1,1.3-1.9,2.6-2.9,3.8c-0.3,0.5-0.3,0.6,0.3,0.7c1.5,0.3,2.9,0.6,4.4,0.9c0.2,0,0.4,0.1,0.7,0
	c0.2-0.1,0.3-0.2,0.4-0.4c0-0.3-0.2-0.3-0.4-0.3c-0.2-0.1-0.4-0.1-0.7-0.1c-1-0.2-2-0.3-3-0.7c0.9-1.5,0.9-1.5,2.5-1.2
	c0.2,0,0.3,0.1,0.5,0.1c0.2,0,0.3,0,0.5,0c0.2-0.1,0.4-0.2,0.4-0.4c0-0.2-0.2-0.3-0.4-0.3C115.9,167.6,115.4,167.5,114.7,167.4z
	 M97.8,161.9c-1-0.4-1.1-0.4-1.7,0.2c-0.3,0.3-0.6,0.7-0.9,1c-0.1,0.2-0.3,0.4-0.6,0.3c-0.7-0.2-1.5-0.2-2.2-0.5
	c0.4-0.7,1.1-1.1,1.3-1.8c-0.9-0.4-1.1-0.4-1.6,0.3c-1.1,1.2-2.1,2.4-3.1,3.7c-0.1,0.2-0.3,0.3-0.3,0.6c0.8,0.4,1,0.4,1.6-0.2
	c0.4-0.4,0.7-0.8,1.1-1.2c0.1-0.2,0.3-0.4,0.5-0.4c0.7,0.2,1.5,0.2,2.3,0.6c-0.4,0.5-0.8,0.9-1.1,1.4c-0.2,0.2-0.5,0.4-0.3,0.7
	c0.1,0.2,0.9,0.3,1.2,0.1c0.2-0.1,0.3-0.3,0.5-0.5c0.6-0.7,1.2-1.4,1.8-2.1C96.7,163.2,97.3,162.6,97.8,161.9z M100,164.4
	c0-0.2,0.1-0.3,0.2-0.5c0.3-0.5,0.7-0.7,1.3-0.5c0.9,0.3,1.8,0.3,2.6,0.5c0.3,0.1,0.6,0.1,0.8-0.1c0.2-0.1,0.3-0.2,0.3-0.3
	c0-0.2-0.1-0.3-0.3-0.3c-0.1,0-0.2-0.1-0.3-0.1c-1.3-0.3-2.6-0.5-4-0.8c-0.4-0.1-0.8,0-1.1,0.4c-1.1,1.3-2.1,2.6-3.2,3.9
	c-0.3,0.3-0.2,0.5,0.2,0.6c1.5,0.3,2.9,0.6,4.4,0.9c0.2,0,0.4,0,0.6,0c0.2-0.1,0.4-0.2,0.4-0.4c0-0.2-0.2-0.3-0.4-0.3
	c-0.3-0.1-0.6-0.1-0.8-0.2c-0.9-0.2-1.7-0.3-2.7-0.6c0.3-0.4,0.5-0.6,0.7-1c0.2-0.3,0.5-0.4,0.9-0.3c0.5,0.1,0.9,0.2,1.4,0.2
	c0.4,0,0.7,0,0.8-0.5C101.4,164.6,100.7,164.7,100,164.4z M135.7,160.3c0.3-0.1,0.6-0.2,0.8-0.3c0.9-0.3,1.7-0.5,2.6-0.8
	c0.2-0.1,0.4-0.1,0.4-0.3c0-0.3-0.3-0.3-0.5-0.4c-0.2,0-0.4,0.1-0.6,0.1c-1,0.3-2,0.6-2.9,0.8c-0.3,0.1-0.7,0.2-1.1,0.2
	c0.1-0.4,0.4-0.7,0.6-1c0.1-0.2,0.4-0.4,0.2-0.7c-0.2-0.2-0.5-0.3-0.8-0.2c-0.3,0-0.5,0.2-0.7,0.5c-0.8,1.2-1.7,2.4-2.5,3.6
	c-0.1,0.2-0.3,0.4-0.2,0.6c0.1,0.3,0.4,0.3,0.7,0.3c0.3,0,0.6-0.1,0.7-0.4c0.2-0.3,0.5-0.6,0.7-0.9c0.3-0.5,0.7-0.7,1.2-0.6
	c0.5,0.1,0.7,0.5,0.8,1c0.1,0.4,0.1,0.9,0.3,1.3c0.1,0.4,0.5,0.5,0.9,0.4c0.3-0.1,0.6-0.2,0.5-0.7
	C136.6,162,136.5,161.1,135.7,160.3z M98,153.9c0.8-0.2,1.5-0.3,2.1-0.8c0.7-0.7,0.6-1.3-0.3-1.6c-0.9-0.3-1.8-0.4-2.7-0.6
	c-0.6-0.1-1,0-1.4,0.5c-0.9,1-1.8,2-2.7,3c-0.2,0.2-0.4,0.4-0.4,0.7c0.7,0.3,0.9,0.3,1.4-0.2c0.3-0.3,0.6-0.7,1-1.1
	c0.5-0.5,1.3-0.3,1.5,0.4c0.1,0.5,0.2,0.9,0.3,1.4c0.1,0.4,0.4,0.6,0.8,0.5c0.3-0.1,0.8-0.1,0.7-0.7C98.1,154.9,98.1,154.5,98,153.9
	z M132.6,149c0.5-0.8,0.5-0.8,1.4-0.7c0.2,0,0.4,0.1,0.7,0.1c0.8,0.1,1.5,0.3,2.3,0.3c0.2,0,0.5,0,0.5-0.3c0.1-0.3-0.2-0.3-0.4-0.4
	c-1.4-0.2-2.7-0.5-4.1-0.7c-0.4-0.1-0.7,0-1,0.3c-0.8,1.1-1.6,2.2-2.5,3.3c-0.2,0.3-0.1,0.5,0.3,0.6c1.1,0.2,2.1,0.4,3.2,0.6
	c0.4,0.1,0.8,0.2,1.2,0.2c0.3,0,0.6,0,0.6-0.3c0.1-0.3-0.3-0.4-0.5-0.4c-0.1,0-0.3,0-0.4,0c-0.9-0.2-1.9-0.3-2.8-0.6
	c0.7-1.3,0.7-1.3,2.1-1c0.3,0.1,0.6,0.1,1,0.1c0.2,0,0.4-0.1,0.4-0.4c0-0.2-0.2-0.2-0.3-0.3C133.7,149.2,133.1,149.3,132.6,149z
	 M90.2,154.3c-0.1,0.4,0.1,0.6,0.5,0.6c0.4,0,0.8-0.1,0.9-0.6c0.3-1.3,0.6-2.6,0.9-3.8c0.1-0.4-0.1-0.6-0.5-0.6
	c-0.3,0-0.6,0-0.9,0.1c-0.3,0.2-0.6,0.3-0.8,0.5c-1.6,0.9-3.2,1.8-4.8,2.8c-0.2,0.1-0.4,0.2-0.3,0.4c0.1,0.2,0.3,0.3,0.6,0.3
	c0.4-0.1,0.8-0.3,1.1-0.5c0.7-0.6,1.5-0.6,2.3-0.4c0.1,0,0.2,0.1,0.3,0.1c0.3,0.1,0.8,0,1,0.3C90.5,153.6,90.1,154,90.2,154.3z
	 M125.8,150.8c0.7,0,1.3,0,2-0.2c0.1-0.1,0.3-0.1,0.3-0.3c0-0.2-0.2-0.3-0.4-0.3c-0.2,0-0.4,0-0.6,0.1c-0.8,0.1-1.7,0.1-2.5-0.1
	c-1.1-0.3-1.2-1-0.6-1.8c0.9-1.2,3-1.5,4.2-0.7c0.2,0.2,0.4,0.3,0.7,0.4c0.4,0.1,0.8,0.1,0.9-0.3c0.1-0.4-0.3-0.5-0.5-0.6
	c-0.3-0.3-0.7-0.4-1.1-0.5c-1.6-0.4-3.2-0.2-4.6,0.6c-0.5,0.3-0.9,0.6-1.2,1.1c-0.5,0.8-0.3,1.6,0.5,2.1
	C123.8,150.7,124.8,150.9,125.8,150.8z M119.2,148.3c-0.1,0.4-0.1,0.6-0.1,0.9c0,0.3,0,0.6,0.4,0.6c0.4,0,0.8,0,0.8-0.4
	c0.2-1.3,0.3-2.6,0.4-3.9c0-0.3-0.2-0.5-0.5-0.5c-0.5-0.1-0.9,0.1-1.4,0.3c-1.5,0.9-3.1,1.8-4.6,2.8c-0.1,0.1-0.3,0.2-0.4,0.3
	c-0.2,0.2-0.1,0.4,0.1,0.5c0.3,0.1,0.5,0.1,0.7-0.1c0.4-0.2,0.7-0.4,1.1-0.6c0.3-0.2,0.5-0.3,0.9-0.3
	C117.6,148,118.4,148.1,119.2,148.3z M105.7,145.4c0.2,0,0.3,0,0.5,0c0.8,0,1.5-0.1,2.2-0.6c0.8-0.6,0.7-1.3-0.1-1.7
	c-1-0.5-2.1-0.6-3.2-0.7c-0.4,0-0.6,0.2-0.8,0.4c-0.9,1-1.7,2-2.6,3c-0.1,0.2-0.4,0.3-0.3,0.6c0.1,0.3,0.4,0.2,0.7,0.2
	c0.3,0,0.5-0.1,0.7-0.3c0.2-0.2,0.4-0.4,0.6-0.7c0.2-0.4,0.6-0.5,1-0.3C104.7,145.4,105.2,145.4,105.7,145.4z M104.3,153.1
	c0,0.2-0.1,0.3-0.2,0.4c-0.8,0.9-1.5,1.8-2.3,2.7c-0.1,0.2-0.4,0.4-0.2,0.6c0.1,0.2,0.4,0.3,0.7,0.2c0.3-0.1,0.6-0.3,0.8-0.5
	c0.5-0.7,1.2-1.3,1.6-2c0.6-1,1.4-1.4,2.5-0.9c0.2,0.1,0.4,0.1,0.7,0.1c0.2,0,0.4,0,0.6-0.1c0.1,0,0.2-0.2,0.2-0.3
	c0-0.1-0.1-0.2-0.2-0.3c-0.1,0-0.2-0.1-0.3-0.1c-1.7-0.3-3.3-0.6-5-0.9c-0.2,0-0.4,0-0.7,0c-0.2,0-0.3,0.1-0.3,0.3
	c0,0.2,0.1,0.3,0.3,0.3C103.1,152.9,103.7,153,104.3,153.1z M109.6,147.1c0.9-1.1,1.7-2,2.4-2.9c0.1-0.1,0.3-0.3,0.2-0.5
	c-0.1-0.2-0.4-0.2-0.6-0.2c-0.3,0-0.5,0.1-0.7,0.3c-1,1.1-1.9,2.2-2.8,3.4c-0.3,0.3-0.2,0.5,0.3,0.6c0.6,0.1,1.2,0.2,1.8,0.3
	c0.8,0.1,1.5,0.3,2.3,0.4c0.3,0.1,0.7,0,0.8-0.4c0.1-0.4-0.3-0.4-0.6-0.4C111.7,147.5,110.7,147.3,109.6,147.1z"/>
<path class="st16" d="M159,196.3c0.1-0.2,0.1-0.4,0.2-0.6c0.4-0.1,0.5-0.4,0.5-0.8c0,0,0,0,0,0c0.1-0.1,0.2-0.2,0.2-0.4
	c0.1-0.2,0.2-0.4,0.3-0.6c0.1,0,0.1-0.1,0.1-0.1c0,0,0-0.1,0-0.1c0.3-0.1,0.4-0.4,0.4-0.7c0-0.1,0-0.1,0.1-0.1
	c0.1,0,0.1-0.1,0.1-0.2c0-0.1,0.1-0.1,0.1-0.2c0-0.1,0.1-0.1,0.1-0.2c0,0,0,0,0,0c0.1-0.1,0.2-0.2,0.2-0.3c0,0,0-0.1,0-0.1
	c0.1-0.1,0.2-0.2,0.2-0.3l0,0c0,0,0,0,0,0c0.1-0.1,0.2-0.2,0.2-0.3l0-0.1c0,0,0,0,0,0c0.1-0.1,0.2-0.2,0.2-0.3c0,0,0-0.1,0-0.1
	c0.1,0,0.1-0.1,0.1-0.2c0,0,0,0,0,0c0.1-0.1,0.2-0.2,0.2-0.3c0,0,0,0,0,0c0.1-0.1,0.2-0.2,0.2-0.3c0,0,0-0.1,0-0.1
	c0.4-0.2,0.5-0.6,0.5-1c0,0,0,0,0,0c0.1-0.1,0.2-0.2,0.2-0.4c0.9-1.7,1.8-3.5,2.8-5.2c2.6-4.8,5.2-9.6,7.8-14.4
	c4-7.2,8-14.5,12-21.7c0.2-0.3,0.3-0.5,0.5-0.8c0.1-0.1,0.2-0.2,0.2-0.3c0,0,0-0.1,0-0.1c0.1-0.1,0.2-0.2,0.2-0.3c0,0,0-0.1,0-0.1
	c0.1,0,0.1-0.1,0.1-0.2c0.1-0.3,0.2-0.6,0.4-0.8c0.1,0,0.2,0,0.4,0c0,0.1,0,0.1,0,0.2c-0.1,0.4-0.3,0.7-0.4,1.1
	c-0.2,0.8-1,1.4-0.8,2.4c0.1,0.2-0.2,0.4-0.4,0.6c-0.5,0.4-0.6,0.4-0.1,0.9c0.5,0.5,0.5,0.9,0.2,1.5c-0.4,1-0.5,2-0.8,3.1
	c-0.2,1.1,0.4,2,1.4,2.5c0.8,0.3,1.5,0.7,2.3,1c0.9,0.4,1.3,1,1.3,1.9c0,0.3-0.1,0.7,0.1,1c0.2,0,0.3-0.2,0.2-0.3
	c-0.2-0.5-0.1-1.1-0.2-1.6c-0.1-0.8,0-0.8,0.7-0.8c0.9,0,1.8-0.1,2.7-0.3c0.5-0.1,0.9-0.1,1.4,0.1c0.3,0.1,0.6,0.4,0.9,0.5
	c0.4,1.3,0.5,2.7,0.6,4.1c0.1,1.3-0.2,2.6-0.4,3.8c-0.6,3.4-2.1,6.4-4,9.2c-1.4,1.9-3,3.7-4.7,5.3c-1.3,1.2-2.7,2.4-4.1,3.4
	c-3.7,2.6-7.6,4.8-11.7,6.6c-3.5,1.5-7,2.8-10.6,3.8c-0.4,0.1-0.7,0.3-0.9,0.7C160.1,195.7,159.8,196.3,159,196.3z M190.2,165.6
	c0.5-0.5,0.4-0.9,0.4-1.3c0-0.3,0-0.9-0.1-1.1C190.4,164,190.3,164.7,190.2,165.6z M190.7,161.5c-0.1,0.4-0.1,0.7,0,1.2
	C190.8,162.2,190.8,161.9,190.7,161.5z"/>
<path class="st17" d="M187.7,145c0-0.1,0-0.1,0-0.2c0.3-0.4,0.6-0.8,0.6-1.3c1.4,1.3,2.9,2.6,4.2,4c1.7,1.9,3.2,3.9,4.4,6.2
	c1.9,3.5,2.7,7.3,2.3,11.3c-0.1,0.1-0.2,0.3-0.2,0.4c-0.4,0-0.5,0.3-0.6,0.6c-0.6,2.6-1.5,5.2-2.9,7.5c-1.4,2.5-3.3,4.7-5.4,6.8
	c-3.2,3.2-6.8,5.7-10.7,7.9c-3.1,1.8-6.3,3.3-9.6,4.6c-1.4,0.6-2.9,1-4.2,1.5c-0.9,0.4-1.7,0.8-2.6,1c-1.3,0.4-2.6,0.8-3.9,1.2
	c-0.1,0-0.3,0-0.5,0c0-0.2,0.1-0.3,0.2-0.4c0.8,0,1.1-0.6,1.5-1.1c0.3-0.4,0.5-0.6,0.9-0.7c3.6-1,7.1-2.3,10.6-3.8
	c4.1-1.8,8-4,11.7-6.6c1.5-1,2.8-2.2,4.1-3.4c1.7-1.6,3.3-3.4,4.7-5.3c2-2.8,3.4-5.8,4-9.2c0.2-1.3,0.5-2.5,0.4-3.8
	c-0.1-1.4-0.1-2.7-0.6-4.1c-0.2-1.6-0.8-3-1.5-4.4c-1.6-3.4-4-6.1-6.6-8.6C188.1,145.1,188,145,187.7,145z"/>
<path class="st18" d="M188.3,143.5c0,0.5-0.3,0.9-0.6,1.3c-0.1,0-0.2,0-0.4,0c0.2-0.5,0.5-0.9,0.7-1.4
	C188.1,143.5,188.2,143.5,188.3,143.5z"/>
<path class="st17" d="M163,189c-0.1,0.4-0.2,0.7-0.5,1C162.6,189.6,162.7,189.2,163,189z"/>
<path class="st12" d="M159.7,195c0,0.3-0.1,0.6-0.5,0.8C159.4,195.5,159.5,195.2,159.7,195z"/>
<path class="st17" d="M160.7,193.1c0,0.3-0.1,0.5-0.4,0.7C160.4,193.5,160.5,193.3,160.7,193.1z"/>
<path class="st12" d="M159.9,194.5c0,0.2,0,0.3-0.2,0.4C159.7,194.8,159.8,194.7,159.9,194.5z"/>
<path class="st17" d="M163.2,188.6c0,0.2,0,0.3-0.2,0.4C163,188.8,163.1,188.7,163.2,188.6z"/>
<path class="st17" d="M161.7,191.4c0,0.1,0,0.2-0.2,0.3C161.5,191.5,161.6,191.4,161.7,191.4z"/>
<path class="st17" d="M162.3,190.3c0,0.2,0,0.3-0.2,0.3C162.1,190.5,162.1,190.4,162.3,190.3z"/>
<path class="st17" d="M161.9,191c0,0.1,0,0.2-0.2,0.3C161.7,191.1,161.8,191.1,161.9,191z"/>
<path class="st17" d="M186.6,146.2c0,0.1-0.1,0.3-0.2,0.3C186.4,146.4,186.4,146.3,186.6,146.2z"/>
<path class="st17" d="M186.8,145.8c0,0.1,0,0.3-0.2,0.3C186.6,146,186.7,145.9,186.8,145.8z"/>
<path class="st17" d="M161.5,191.7c0,0.1,0,0.3-0.2,0.3C161.3,191.9,161.4,191.8,161.5,191.7z"/>
<path class="st17" d="M161.3,192.1c0,0.1,0,0.3-0.2,0.3C161.1,192.3,161.2,192.2,161.3,192.1z"/>
<path class="st17" d="M162.5,190c0,0.1-0.1,0.3-0.2,0.3C162.2,190.2,162.3,190.1,162.5,190z"/>
<path class="st17" d="M160.9,192.8c0,0.1,0,0.2-0.1,0.2C160.8,192.9,160.9,192.9,160.9,192.8z"/>
<path class="st11" d="M158.3,197.4c0,0.1,0,0.2-0.1,0.2C158.2,197.5,158.2,197.5,158.3,197.4z"/>
<path class="st17" d="M162.1,190.7c0,0.1,0,0.2-0.1,0.2C161.9,190.8,162,190.7,162.1,190.7z"/>
<path class="st17" d="M186.9,145.6c0,0.1,0,0.2-0.1,0.2C186.8,145.7,186.8,145.6,186.9,145.6z"/>
<path class="st17" d="M161.1,192.5c0,0.1-0.1,0.1-0.1,0.2C161,192.5,161,192.5,161.1,192.5z"/>
<path class="st17" d="M160.3,193.9c0,0.1,0,0.1-0.1,0.1C160.2,193.9,160.3,193.9,160.3,193.9z"/>
<path class="st12" d="M199.1,166.6c0,0.6-0.1,1.2-0.4,1.7C198.7,167.7,198.7,167.1,199.1,166.6z"/>
<path class="st8" d="M109.2,167.3c-0.1,0.6,0.2,1.1,0.3,1.6c0.1,0.4,0,0.7-0.4,0.8c-0.6,0.1-1,0-1.1-0.4c-0.1-0.5-0.2-1-0.4-1.5
	c-0.1-0.4-0.2-0.7-0.7-0.8c-0.5-0.1-0.8-0.1-1.1,0.3c-0.3,0.4-0.6,0.8-0.9,1.1c-0.2,0.2-0.4,0.4-0.6,0.4c-0.3,0.1-0.7,0-0.9-0.2
	c-0.2-0.3,0.1-0.5,0.3-0.6c0.9-1.2,1.9-2.4,2.8-3.6c0.4-0.5,0.8-0.7,1.4-0.5c0.9,0.2,1.8,0.3,2.7,0.6c0.5,0.2,1,0.4,1,1
	c0.1,0.6-0.4,1-0.9,1.3C110.4,167,109.8,167.2,109.2,167.3z M107,166c0.7,0.3,1.4,0.3,2.1,0.4c0.3,0,0.6-0.1,0.8-0.3
	c0.4-0.3,0.4-0.7-0.1-1c-0.6-0.3-1.2-0.4-1.8-0.4c-0.4,0-0.6,0.6-0.9,0.9C107.1,165.8,107,165.8,107,166z"/>
<path class="st7" d="M110.2,156.1c0.5-0.3,1-0.6,1.4-0.9c0.2-0.1,0.4-0.3,0.7-0.2c0.6,0,0.7,0.2,0.6,0.8c-0.1,0.4-0.3,0.8-0.2,1.3
	c0.8-0.8,1.6-1.5,2.4-2.2c0.3-0.3,0.6-0.5,1.1-0.4c0.4,0.1,0.5,0.3,0.2,0.7c-0.4,0.4-0.8,0.8-1.3,1.2c-0.8,0.7-1.6,1.4-2.3,2.2
	c-0.2,0.2-0.4,0.3-0.6,0.5c-0.4,0.2-0.8,0-1.1-0.2c-0.3-0.2,0-0.5,0-0.7c0.1-0.5,0.4-1,0.4-1.6c-0.8,0.4-1.5,1-2.2,1.6
	c-0.4,0.3-0.8,0.3-1.3,0.3c-0.3,0-0.5-0.2-0.3-0.5c0.7-1.3,1.4-2.6,2.1-3.9c0.1-0.2,0.3-0.4,0.6-0.4c0.2,0,0.5-0.1,0.7,0.2
	c0.2,0.2-0.1,0.4-0.2,0.6c-0.3,0.6-0.6,1.2-0.9,1.8c0,0.1-0.2,0.2-0.1,0.3C110.1,156.3,110.2,156.1,110.2,156.1z"/>
<path class="st8" d="M128.8,159.7c0.2,0.6,0.3,1,0.5,1.5c0.1,0.4,0.1,0.7-0.4,0.8c-0.6,0.2-0.9,0.1-1-0.3c-0.2-0.5-0.4-1-0.5-1.5
	c-0.1-0.5-0.5-0.6-0.9-0.7c-0.5-0.1-0.7,0.1-0.9,0.5c-0.2,0.3-0.5,0.6-0.7,0.9c-0.2,0.3-0.5,0.4-0.9,0.4c-0.6,0-0.7-0.2-0.4-0.8
	c0.8-1.2,1.7-2.3,2.5-3.5c0.3-0.4,0.6-0.5,1-0.4c1.1,0.2,2.3,0.3,3.4,0.7c1,0.4,1.1,1.2,0.3,1.8
	C130.2,159.5,129.5,159.6,128.8,159.7z M126.6,158.6c0.7,0.2,1.4,0.3,2,0.3c0.4,0,0.7-0.1,0.9-0.4c0.2-0.2,0.2-0.4,0-0.6
	c-0.6-0.3-1.3-0.5-2-0.5C127,157.5,126.8,158.1,126.6,158.6z"/>
<path class="st7" d="M120.3,155.2c0.9,0,1.7,0.1,2.5,0.6c0.9,0.5,1.2,1.4,0.6,2.3c-0.5,0.8-1.2,1.3-2,1.7c-1.3,0.5-2.7,0.7-4,0.3
	c-1.9-0.5-2.2-2.1-0.8-3.4C117.5,155.7,118.8,155.2,120.3,155.2z M120.2,156c-1.3,0-2.2,0.6-2.8,1.7c-0.4,0.7-0.2,1.2,0.5,1.5
	c1.4,0.7,3.6-0.2,4.1-1.6c0.3-0.7,0.1-1.1-0.6-1.4C121.1,156,120.7,156,120.2,156z"/>
<path class="st7" d="M114.7,167.4c0.7,0.1,1.2,0.3,1.8,0.4c0.2,0,0.4,0.1,0.4,0.3c0,0.2-0.2,0.3-0.4,0.4c-0.1,0.1-0.3,0.1-0.5,0
	c-0.2,0-0.3-0.1-0.5-0.1c-1.6-0.3-1.6-0.3-2.5,1.2c1,0.3,2,0.4,3,0.7c0.2,0.1,0.4,0.1,0.7,0.1c0.2,0,0.4,0.1,0.4,0.3
	c0,0.2-0.2,0.3-0.4,0.4c-0.2,0.1-0.4,0.1-0.7,0c-1.5-0.3-2.9-0.6-4.4-0.9c-0.6-0.1-0.6-0.2-0.3-0.7c1-1.3,1.9-2.6,2.9-3.8
	c0.3-0.4,0.7-0.5,1.2-0.4c1.3,0.3,2.6,0.5,3.9,0.8c0.3,0.1,0.8,0,0.8,0.5c-0.1,0.5-0.6,0.4-1,0.4c-0.8-0.1-1.6-0.3-2.4-0.5
	c-0.1,0-0.1,0-0.2-0.1C115.4,166.2,115.4,166.2,114.7,167.4z"/>
<path class="st7" d="M97.8,161.9c-0.5,0.8-1.1,1.4-1.6,2c-0.6,0.7-1.2,1.4-1.8,2.1c-0.1,0.2-0.3,0.4-0.5,0.5c-0.3,0.2-1,0.2-1.2-0.1
	c-0.2-0.3,0.2-0.5,0.3-0.7c0.3-0.5,0.7-0.9,1.1-1.4c-0.8-0.3-1.6-0.4-2.3-0.6c-0.3-0.1-0.4,0.2-0.5,0.4c-0.4,0.4-0.7,0.8-1.1,1.2
	c-0.5,0.6-0.8,0.6-1.6,0.2c0-0.3,0.2-0.4,0.3-0.6c1-1.2,2.1-2.4,3.1-3.7c0.6-0.6,0.7-0.7,1.6-0.3c-0.3,0.7-1,1.1-1.3,1.8
	c0.7,0.3,1.5,0.3,2.2,0.5c0.3,0.1,0.4-0.1,0.6-0.3c0.3-0.3,0.6-0.7,0.9-1C96.7,161.5,96.9,161.4,97.8,161.9z"/>
<path class="st7" d="M100,164.4c0.7,0.3,1.4,0.2,2,0.6c-0.1,0.5-0.5,0.5-0.8,0.5c-0.5-0.1-1-0.1-1.4-0.2c-0.4-0.1-0.7,0-0.9,0.3
	c-0.2,0.3-0.5,0.6-0.7,1c0.9,0.4,1.8,0.4,2.7,0.6c0.3,0.1,0.6,0.1,0.8,0.2c0.2,0,0.4,0.1,0.4,0.3c0,0.2-0.2,0.3-0.4,0.4
	c-0.2,0.1-0.4,0.1-0.6,0c-1.5-0.3-2.9-0.6-4.4-0.9c-0.4-0.1-0.5-0.3-0.2-0.6c1.1-1.3,2.1-2.6,3.2-3.9c0.3-0.4,0.7-0.4,1.1-0.4
	c1.3,0.3,2.6,0.5,4,0.8c0.1,0,0.2,0.1,0.3,0.1c0.2,0.1,0.3,0.2,0.3,0.3c0,0.2-0.1,0.3-0.3,0.3c-0.3,0.1-0.5,0.1-0.8,0.1
	c-0.9-0.2-1.8-0.3-2.6-0.5c-0.6-0.2-1,0-1.3,0.5C100.1,164.1,100,164.2,100,164.4z"/>
<path class="st7" d="M135.7,160.3c0.8,0.8,0.9,1.6,1.1,2.5c0.1,0.4-0.2,0.6-0.5,0.7c-0.5,0.1-0.8,0-0.9-0.4
	c-0.1-0.4-0.2-0.9-0.3-1.3c-0.1-0.5-0.3-0.9-0.8-1c-0.5-0.1-0.9,0.1-1.2,0.6c-0.2,0.3-0.4,0.6-0.7,0.9c-0.2,0.2-0.4,0.4-0.7,0.4
	c-0.3,0-0.5,0-0.7-0.3c-0.1-0.2,0.1-0.4,0.2-0.6c0.8-1.2,1.7-2.4,2.5-3.6c0.2-0.2,0.4-0.5,0.7-0.5c0.3,0,0.6,0,0.8,0.2
	c0.2,0.3-0.1,0.5-0.2,0.7c-0.2,0.3-0.5,0.6-0.6,1c0.4,0,0.7-0.1,1.1-0.2c1-0.3,2-0.6,2.9-0.8c0.2-0.1,0.4-0.1,0.6-0.1
	c0.2,0,0.5,0.1,0.5,0.4c0,0.2-0.2,0.3-0.4,0.3c-0.9,0.3-1.7,0.5-2.6,0.8C136.3,160.1,136,160.2,135.7,160.3z"/>
<path class="st7" d="M98,153.9c0.1,0.5,0.2,1,0.3,1.5c0.1,0.6-0.3,0.6-0.7,0.7c-0.4,0.1-0.7,0-0.8-0.5c-0.1-0.5-0.2-0.9-0.3-1.4
	c-0.2-0.6-1-0.9-1.5-0.4c-0.3,0.3-0.6,0.7-1,1.1c-0.5,0.5-0.7,0.5-1.4,0.2c0-0.3,0.2-0.5,0.4-0.6c0.9-1,1.8-2,2.7-3
	c0.4-0.5,0.8-0.6,1.4-0.5c0.9,0.2,1.8,0.3,2.7,0.6c0.9,0.3,1,0.9,0.3,1.6C99.5,153.7,98.7,153.7,98,153.9z M96,152.9
	c0.6,0.1,1.2,0.3,1.8,0.3c0.3,0,0.6-0.1,0.9-0.3c0.2-0.1,0.3-0.2,0.3-0.5c0-0.2-0.2-0.3-0.4-0.3c-0.4-0.1-0.7-0.2-1.1-0.3
	c-0.4-0.1-0.8,0-1.1,0.4C96.3,152.4,96.1,152.5,96,152.9z"/>
<path class="st7" d="M132.6,149c0.5,0.3,1.1,0.2,1.7,0.4c0.1,0.1,0.3,0.1,0.3,0.3c0,0.2-0.2,0.3-0.4,0.4c-0.3,0-0.6,0-1-0.1
	c-1.4-0.3-1.4-0.3-2.1,1c0.9,0.3,1.9,0.4,2.8,0.6c0.1,0,0.3,0,0.4,0c0.2,0.1,0.6,0.1,0.5,0.4c-0.1,0.3-0.4,0.3-0.6,0.3
	c-0.4,0-0.8-0.1-1.2-0.2c-1.1-0.2-2.1-0.4-3.2-0.6c-0.4-0.1-0.5-0.3-0.3-0.6c0.8-1.1,1.6-2.2,2.5-3.3c0.2-0.3,0.6-0.4,1-0.3
	c1.4,0.2,2.7,0.5,4.1,0.7c0.2,0,0.5,0,0.4,0.4c0,0.3-0.3,0.3-0.5,0.3c-0.8,0-1.5-0.2-2.3-0.3c-0.2,0-0.4-0.1-0.7-0.1
	C133.1,148.2,133.1,148.2,132.6,149z"/>
<path class="st7" d="M90.2,154.3c0-0.3,0.4-0.7,0.1-1c-0.2-0.3-0.7-0.2-1-0.3c-0.1,0-0.2-0.1-0.3-0.1c-0.8-0.2-1.6-0.2-2.3,0.4
	c-0.3,0.3-0.7,0.4-1.1,0.5c-0.2,0-0.5,0-0.6-0.3c-0.1-0.2,0.2-0.3,0.3-0.4c1.6-0.9,3.2-1.8,4.8-2.8c0.3-0.2,0.6-0.3,0.8-0.5
	c0.3-0.2,0.6-0.2,0.9-0.1c0.4,0,0.6,0.2,0.5,0.6c-0.3,1.3-0.6,2.6-0.9,3.8c-0.1,0.5-0.5,0.6-0.9,0.6
	C90.2,154.8,90.1,154.7,90.2,154.3z M90.8,150.9c-0.7,0.3-1.3,0.7-2,1.1c2.1,0.6,1.7,0.6,2-1C90.9,151,90.9,151,90.8,150.9z"/>
<path class="st7" d="M125.8,150.8c-1,0.1-2-0.1-2.9-0.6c-0.8-0.5-1-1.3-0.5-2.1c0.3-0.5,0.7-0.8,1.2-1.1c1.5-0.8,3-1,4.6-0.6
	c0.4,0.1,0.8,0.3,1.1,0.5c0.2,0.2,0.6,0.3,0.5,0.6c-0.2,0.4-0.6,0.3-0.9,0.3c-0.3-0.1-0.5-0.2-0.7-0.4c-1.2-0.9-3.3-0.6-4.2,0.7
	c-0.6,0.8-0.5,1.5,0.6,1.8c0.8,0.2,1.6,0.2,2.5,0.1c0.2,0,0.4-0.1,0.6-0.1c0.2,0,0.4,0.1,0.4,0.3c0,0.2-0.2,0.3-0.3,0.3
	C127.1,150.9,126.5,150.8,125.8,150.8z"/>
<path class="st8" d="M119.2,148.3c-0.8-0.3-1.6-0.3-2.4-0.5c-0.4-0.1-0.6,0.1-0.9,0.3c-0.4,0.2-0.7,0.4-1.1,0.6
	c-0.2,0.1-0.5,0.2-0.7,0.1c-0.3-0.1-0.4-0.3-0.1-0.5c0.1-0.1,0.3-0.2,0.4-0.3c1.5-0.9,3.1-1.8,4.6-2.8c0.4-0.3,0.9-0.4,1.4-0.3
	c0.3,0,0.5,0.2,0.5,0.5c-0.1,1.3-0.3,2.6-0.4,3.9c-0.1,0.4-0.5,0.4-0.8,0.4c-0.4,0-0.5-0.3-0.4-0.6
	C119.1,148.9,119.2,148.7,119.2,148.3z M119.4,146c-0.6,0.4-1.1,0.7-1.6,1c-0.1,0.1-0.1,0.1-0.1,0.3c0.1,0,0.2,0,0.3,0.1
	C119.4,147.6,119.4,147.6,119.4,146z"/>
<path class="st7" d="M105.7,145.4c-0.4,0-0.9,0-1.4-0.2c-0.4-0.1-0.7-0.1-1,0.3c-0.1,0.2-0.4,0.4-0.6,0.7c-0.2,0.2-0.4,0.3-0.7,0.3
	c-0.2,0-0.6,0.1-0.7-0.2c-0.1-0.2,0.1-0.4,0.3-0.6c0.9-1,1.7-2,2.6-3c0.2-0.3,0.5-0.4,0.8-0.4c1.1,0.1,2.2,0.2,3.2,0.7
	c0.9,0.4,0.9,1.1,0.1,1.7c-0.6,0.5-1.4,0.6-2.2,0.6C106,145.4,105.9,145.4,105.7,145.4z M104.4,144.6c0.4,0.1,0.8,0.2,1.2,0.2
	c0.2,0,0.3,0,0.5,0c0.4,0,0.8-0.1,1.1-0.4c0.3-0.3,0.3-0.6-0.1-0.8c-0.5-0.3-1.1-0.4-1.7-0.4c-0.4,0-0.6,0.5-0.8,0.8
	C104.5,144.2,104.4,144.3,104.4,144.6z"/>
<path class="st7" d="M104.3,153.1c-0.6-0.1-1.2-0.3-1.8-0.4c-0.2,0-0.3-0.1-0.3-0.3c0-0.2,0.1-0.3,0.3-0.3c0.2,0,0.5-0.1,0.7,0
	c1.7,0.3,3.3,0.6,5,0.9c0.1,0,0.2,0.1,0.3,0.1c0.1,0,0.3,0.1,0.2,0.3c0,0.1-0.1,0.2-0.2,0.3c-0.2,0.1-0.4,0.1-0.6,0.1
	c-0.2,0-0.5,0-0.7-0.1c-1.1-0.5-1.9,0-2.5,0.9c-0.5,0.7-1.1,1.3-1.6,2c-0.2,0.3-0.5,0.5-0.8,0.5c-0.3,0-0.5,0-0.7-0.2
	c-0.2-0.2,0.1-0.4,0.2-0.6c0.8-0.9,1.5-1.8,2.3-2.7C104.3,153.5,104.4,153.4,104.3,153.1z"/>
<path class="st7" d="M109.6,147.1c1.1,0.2,2.1,0.4,3,0.6c0.3,0.1,0.7,0,0.6,0.4c-0.1,0.3-0.5,0.4-0.8,0.4c-0.8-0.1-1.5-0.3-2.3-0.4
	c-0.6-0.1-1.2-0.2-1.8-0.3c-0.4-0.1-0.5-0.3-0.3-0.6c0.9-1.1,1.9-2.3,2.8-3.4c0.2-0.2,0.4-0.3,0.7-0.3c0.2,0,0.5,0,0.6,0.2
	c0.1,0.2-0.1,0.4-0.2,0.5C111.3,145.1,110.5,146,109.6,147.1z"/>
<path class="st18" d="M187.7,145c0.2,0,0.4,0.2,0.6,0.3c2.7,2.5,5.1,5.3,6.6,8.6c0.6,1.4,1.3,2.8,1.5,4.4c-0.4,0-0.6-0.3-0.9-0.5
	c-0.5-0.2-1-0.2-1.4-0.1c-0.9,0.3-1.8,0.3-2.7,0.3c-0.8,0-0.8,0.1-0.7,0.8c0,0.5,0,1.1,0.2,1.6c0,0.1,0,0.3-0.2,0.3
	c-0.2-0.3-0.1-0.6-0.1-1c0-0.9-0.4-1.6-1.3-1.9c-0.8-0.3-1.5-0.7-2.3-1c-1.1-0.5-1.7-1.4-1.4-2.5c0.2-1,0.3-2.1,0.8-3.1
	c0.2-0.6,0.2-1-0.2-1.5c-0.5-0.5-0.4-0.5,0.1-0.9c0.2-0.2,0.5-0.3,0.4-0.6c-0.2-1,0.5-1.6,0.8-2.4
	C187.4,145.7,187.7,145.4,187.7,145z"/>
<path class="st18" d="M190.2,165.6c0.1-0.9,0.2-1.6,0.3-2.3c0.1,0.1,0.2,0.8,0.1,1.1C190.6,164.7,190.7,165.1,190.2,165.6z"/>
<path class="st18" d="M190.7,161.5c0.2,0.4,0.1,0.7,0,1.2C190.6,162.2,190.6,161.9,190.7,161.5z"/>
<path class="st16" d="M107,166c0.1-0.2,0.1-0.2,0.1-0.3c0.3-0.3,0.4-0.9,0.9-0.9c0.6,0,1.2,0.1,1.8,0.4c0.5,0.2,0.5,0.6,0.1,1
	c-0.2,0.2-0.5,0.3-0.8,0.3C108.4,166.3,107.7,166.2,107,166z"/>
<path class="st10" d="M110.2,156.1c-0.1,0.1-0.1,0.2-0.3,0.1c-0.1-0.1,0-0.2,0.1-0.3C110.1,156,110.2,156,110.2,156.1z"/>
<path class="st16" d="M126.6,158.6c0.2-0.5,0.5-1.2,0.9-1.2c0.7,0,1.4,0.1,2,0.5c0.2,0.1,0.2,0.4,0,0.6c-0.2,0.3-0.6,0.4-0.9,0.4
	C127.9,158.9,127.3,158.8,126.6,158.6z"/>
<path class="st10" d="M120.2,156c0.4,0,0.8,0,1.2,0.2c0.7,0.3,0.9,0.7,0.6,1.4c-0.6,1.4-2.7,2.3-4.1,1.6c-0.6-0.3-0.8-0.8-0.5-1.5
	C118.1,156.6,119,156,120.2,156z"/>
<path class="st16" d="M96,152.9c0.1-0.3,0.3-0.5,0.5-0.7c0.3-0.4,0.6-0.5,1.1-0.4c0.4,0.1,0.7,0.2,1.1,0.3c0.2,0.1,0.4,0.1,0.4,0.3
	c0,0.2-0.1,0.3-0.3,0.5c-0.3,0.2-0.6,0.2-0.9,0.3C97.2,153.1,96.6,153,96,152.9z"/>
<path class="st18" d="M90.8,150.9c0,0.1,0.1,0.1,0.1,0.1c-0.3,1.7,0,1.6-2,1C89.5,151.6,90.2,151.2,90.8,150.9z"/>
<path class="st18" d="M119.4,146c0,1.6,0,1.6-1.4,1.3c-0.1,0-0.2,0-0.3-0.1c0-0.2,0-0.2,0.1-0.3C118.3,146.7,118.8,146.4,119.4,146z
	"/>
<path class="st16" d="M104.4,144.6c0-0.3,0.1-0.4,0.2-0.5c0.3-0.3,0.4-0.7,0.8-0.8c0.6,0,1.1,0.1,1.7,0.4c0.4,0.2,0.4,0.5,0.1,0.8
	c-0.3,0.2-0.7,0.4-1.1,0.4c-0.2,0-0.3,0-0.5,0C105.2,144.7,104.8,144.6,104.4,144.6z"/>
<polygon class="st10" points="126.4,183.8 66.2,167.9 100.7,134.6 153,143.2 "/>
</svg>
