<?xml version="1.0" encoding="utf-8"?>
<!-- Generator: Adobe Illustrator 20.0.0, SVG Export Plug-In . SVG Version: 6.00 Build 0)  -->
<svg version="1.1" id="Layer_1" xmlns="http://www.w3.org/2000/svg" xmlns:xlink="http://www.w3.org/1999/xlink" x="0px" y="0px"
	 viewBox="0 0 220 277" style="enable-background:new 0 0 220 277;" xml:space="preserve">
<style type="text/css">
	.st0{fill:#FBF49C;}
	.st1{fill:#DB9FC7;}
	.st2{fill:#75C4C2;}
	.st3{fill:#DFE2F2;}
	.st4{fill:#ECF3D3;}
	.st5{fill:#F8E8CD;}
	.st6{fill:#D0CFD0;}
	.st7{fill:#EDECEC;}
	.st8{fill:#F1EEEC;}
	.st9{fill:#ABB0B5;}
	.st10{fill:#252222;}
	.st11{fill:#ADA9A4;}
	.st12{fill:#605850;}
	.st13{fill:#BEC2C5;}
	.st14{fill:#D3D4D4;}
	.st15{fill:#DBDBDB;}
	.st16{fill:#302F2F;}
	.st17{fill:#464444;}
	.st18{fill:#3B393A;}
	.st19{fill:#1E2126;}
	.st20{fill:#1C1E23;}
	.st21{fill:#24262C;}
	.st22{fill:#15171A;}
	.st23{fill:#2C2F35;}
	.st24{fill:#212329;}
	.st25{fill:#33363C;}
	.st26{fill:#2F3239;}
	.st27{fill:#A49DA1;}
	.st28{fill:#36393F;}
	.st29{fill:#393C42;}
	.st30{fill:#45454A;}
	.st31{fill:#C9CED6;}
	.st32{fill:#D0D0D0;}
	.st33{fill:#E0DEDE;}
</style>
<rect y="0" class="st1" width="220" height="277"/>
<g>
	<g>
		<path class="st8" d="M166.5,119.5c0.2,0.2,0.4,0.2,0.6,0.2c3.2,0.5,6.3,1.1,9.5,1.5c2.3,0.3,4.6,0.7,6.9,1
			c0.4,0.1,0.7,0.2,0.8,0.7c0,0.2-0.1,0.4-0.2,0.6c-1,1.8-2,3.6-3.1,5.4c-0.3,0.5-0.7,1-0.8,1.6c-0.2,0.5-0.6,0.9-0.7,1.4
			c-0.2,0.2-0.3,0.5-0.4,0.8c-0.1,0-0.2,0.1-0.1,0.2l0,0.1c-0.1,0.1-0.2,0.2-0.2,0.3l0,0.1c-0.1,0.1-0.2,0.2-0.2,0.3
			c-0.2,0.3-0.4,0.5-0.5,0.8c-4,7.2-8,14.5-12,21.7c-2.6,4.8-5.2,9.6-7.8,14.4c-0.9,1.7-1.8,3.4-2.8,5.2c-0.1,0.1-0.2,0.2-0.2,0.4
			l0,0c-0.3,0.3-0.4,0.6-0.5,1l0,0.1c-0.1,0.1-0.2,0.2-0.2,0.3l0,0c-0.1,0.1-0.2,0.2-0.2,0.3l0,0c-0.1,0-0.1,0.1-0.1,0.2
			c-0.1,0-0.1,0,0,0.1c-0.1,0.1-0.2,0.1-0.2,0.3l0,0l0,0.1c-0.1,0.1-0.2,0.2-0.2,0.3l0,0l0,0c-0.1,0.1-0.2,0.2-0.2,0.3l0,0.1
			c-0.1,0.1-0.2,0.2-0.2,0.3l0,0c-0.1,0-0.1,0.1-0.1,0.2c0,0.1-0.1,0.1-0.1,0.2c0,0.1-0.1,0.1-0.1,0.2c-0.1,0-0.1,0.1-0.1,0.1
			c-0.2,0.2-0.3,0.4-0.4,0.7l0,0.1c-0.1,0-0.1,0.1-0.1,0.1c-0.1,0.2-0.2,0.4-0.3,0.6c-0.1,0.1-0.2,0.2-0.2,0.4l0,0
			c-0.3,0.2-0.3,0.5-0.5,0.8c-0.1,0.2-0.1,0.4-0.2,0.6c-0.1,0.1-0.2,0.2-0.2,0.4c0,0,0,0,0,0c-0.3,0.2-0.3,0.5-0.5,0.7
			c-0.1,0-0.1,0.1-0.1,0.2c0,0.1,0,0.2,0,0.2c-0.4,0.2-0.5,0.6-0.7,1c-1.1,2.1-2.4,4.2-3.4,6.4c-0.2,0.4-0.4,1-0.8,1.2
			c-0.8,0.5-1.1,1.3-1.3,2c-0.2,0.9-0.3,1.7-0.5,2.6c-0.2,0-0.4,0-0.7-0.1c-1.6-0.4-3.2-0.7-4.9-1c-2.8-0.6-5.7-1.2-8.5-1.7
			c-1.1-0.2-2.1-0.6-3.3-0.7c-0.2-0.2-0.4-0.2-0.6-0.2c-0.1,0-0.3,0-0.4,0c-0.5-0.4-1.1-0.3-1.6-0.5c-1.6-0.4-3.3-0.8-4.9-1
			c-0.2,0-0.4,0-0.6,0c-0.1-0.1-0.2-0.2-0.4-0.1c-0.1,0-0.1,0-0.2,0c-0.2-0.2-0.4-0.2-0.6-0.2c-0.1,0-0.3,0-0.4,0
			c-0.1-0.1-0.2-0.2-0.4-0.2c-0.2,0-0.4,0-0.6,0c-0.1-0.1-0.2-0.2-0.4-0.2c-1-0.2-2-0.6-3.1-0.6l-0.1,0c0,0-0.1,0-0.1,0
			c-0.2-0.2-0.5-0.2-0.8-0.2c0,0,0,0,0,0c-0.1-0.1-0.2-0.2-0.3-0.2c-1.4-0.4-2.8-0.8-4.3-1.1c-5.4-1.2-10.8-2.5-16.2-3.6
			c-1.6-0.3-3.2-0.8-4.9-1.1c-0.1,0-0.3,0-0.4,0c-0.1,0-0.2,0-0.2,0c-0.3-0.2-0.5-0.3-0.8,0c-0.1,0-0.1,0-0.2,0
			c-0.2-0.5-0.6-0.5-1-0.6c-5-1.2-10-2.3-15-3.5c-4.6-1.1-9.3-2.1-13.9-3.1c-3.2-0.7-6.4-1.5-9.7-2.2c-5.2-1.2-10.5-2.3-15.7-3.5
			c-4.2-0.9-8.4-1.8-12.6-2.8c-2-0.4-4-0.7-5.9-1.4c-0.4-1.2-0.4-1.2,0.5-2.1c3.1-3.1,6.3-6,9.4-9.2c0.5-0.5,1.2-0.8,1.5-1.4
			c0.4-0.2,0.6-0.5,0.9-0.8c3.8-3.8,7.7-7.5,11.6-11.3c1.9-1.9,3.8-3.9,5.9-5.7c3-2.7,5.8-5.8,8.7-8.5c1.3-1.2,2.5-2.4,3.8-3.7
			c0.2-0.2,0.5-0.4,0.6-0.7c1.2-1.1,2.4-2.2,3.5-3.5c0,0,0,0,0,0c1.4-1.2,2.7-2.5,4-3.8c2.7-2.6,5.5-5.3,8.2-8
			c1.5-1.4,2.8-2.9,4.4-4.2c0.5-0.4,1-0.6,1.6-0.3c0.5,0.1,1,0.1,1.5,0.2c0.6,0.3,1.3,0.3,1.9,0.4c3,0.5,6.1,1,9.1,1.4
			c2.4,0.3,4.8,0.7,7.2,1.1c3.2,0.5,6.4,0.9,9.6,1.4c2.2,0.3,4.5,0.7,6.7,1.1c2.2,0.3,4.4,0.7,6.6,1c2.2,0.4,4.4,0.7,6.6,1.1
			c2.1,0.3,4.3,0.8,6.4,1c1,0.1,2,0.2,2.9,0.4c0.3,0,0.5,0,0.8,0c0.4,0.4,0.9,0.2,1.4,0.3c1.7,0.3,3.3,0.6,5,0.7c0.1,0,0.3,0,0.4,0
			c0.4,0.3,0.9,0.3,1.3,0.3c1.5,0.1,2.9,0.5,4.3,0.6c0.3,0,0.5,0,0.8,0c1.2,0.5,2.5,0.5,3.7,0.7c1,0.2,2.1,0.3,3.1,0.4
			c1.6,0.2,3.1,0.5,4.7,0.8c0.3,0,0.5,0.1,0.7,0.2c0.3,0,0.6,0,1,0c0.3,0.3,0.6,0.2,1,0.2c0.4,0.4,0.9,0.2,1.4,0.3
			C163.9,119.2,165.2,119.5,166.5,119.5z M52.5,157.5c0.6,0.1,1,0.2,1.4,0.3c7,1.5,14.1,3,21.1,4.6c6,1.3,12.1,2.6,18.1,3.9
			c8.2,1.8,16.5,3.6,24.7,5.3c1.8,0.4,3.6,0.8,5.4,1.2c0.4,0.1,0.7,0.1,0.9-0.3c0.1-0.1,0.2-0.3,0.3-0.4
			c8.6-13.6,17.3-27.1,25.9-40.7c0.2-0.3,0.4-0.5,0.5-0.9c-1.5-0.3-3-0.5-4.4-0.8c-3.3-0.5-6.6-1.1-9.9-1.6c-4-0.7-8.1-1.4-12.1-2
			c-4.5-0.7-8.9-1.5-13.4-2.2c-3.6-0.6-7.1-1.2-10.7-1.8c-3.7-0.6-7.4-1.2-11.1-1.8c-0.7-0.1-1.1,0-1.6,0.5
			c-2.8,2.9-5.6,5.9-8.4,8.8c-7.4,7.7-14.7,15.5-22.1,23.2C55.5,154.3,54,155.8,52.5,157.5z"/>
		<path class="st9" d="M10.1,168.5c1.9,0.6,3.9,0.9,5.9,1.4c4.2,0.9,8.4,1.8,12.6,2.8c5.2,1.1,10.5,2.3,15.7,3.5
			c3.2,0.7,6.4,1.5,9.7,2.2c4.6,1.1,9.3,2.1,13.9,3.1c5,1.1,10,2.3,15,3.5c0.4,0.1,0.8,0.1,1,0.6c-0.2,0.1-0.4,0.1-0.6,0
			c-2.9-0.6-5.7-1.2-8.6-1.8c-3.5-0.8-7-1.5-10.5-2.3c-6.3-1.4-12.6-2.8-18.9-4.2c-3.7-0.9-7.4-1.6-11.1-2.3c-2.5-0.5-5-1.1-7.5-1.7
			c-3.7-1-7.5-1.6-11.3-2.3c-1.6-0.3-3.2-0.8-4.8-1.2c-0.2-0.1-0.4-0.2-0.6-0.3C9.7,169,9.7,168.7,10.1,168.5z"/>
		<path class="st10" d="M189.7,158.9c0,0.1,0,0.1-0.1,0.1c-0.3,0.1-0.4,0.4-0.5,0.7c-1.6,3.1-3.6,5.8-6,8.3c-1.9,1.9-4,3.6-6.2,5.1
			c-2.3,1.6-4.7,3.1-7.1,4.3c-4.6,2.4-9.4,4.2-14.4,5.7c-1.3,0.4-2.6,0.7-3.9,1c-0.4,0.1-0.6,0-0.6-0.4c0,0,0,0,0,0
			c0.2,0,0.3,0,0.5,0c1.3-0.4,2.6-0.8,3.9-1.2c0.9-0.3,1.7-0.7,2.6-1c1.4-0.6,2.8-1,4.2-1.5c3.3-1.3,6.5-2.8,9.6-4.6
			c3.9-2.2,7.5-4.7,10.7-7.9c2-2.1,3.9-4.2,5.4-6.8c1.3-2.3,2.3-4.9,2.9-7.5c0.1-0.4,0.2-0.6,0.6-0.6c0,0.3,0,0.6,0,0.9
			c0,0.1,0,0.1,0,0.2c-0.3,0.5-0.4,1.1-0.4,1.7c0,0.1,0,0.1,0,0.2c-0.2,0.2-0.2,0.4-0.2,0.6l0,0c-0.3,0.3-0.4,0.7-0.3,1.2
			c0,0,0,0,0,0c-0.2,0.1-0.3,0.3-0.2,0.5c0,0.1,0,0.1-0.1,0.2c-0.1,0.1-0.2,0.2-0.1,0.4c0,0,0,0,0,0
			C189.7,158.6,189.6,158.7,189.7,158.9z"/>
		<path class="st11" d="M143.5,198.2c0.2-0.9,0.4-1.7,0.5-2.6c0.1-0.8,0.5-1.5,1.3-2c0.4-0.2,0.6-0.8,0.8-1.2
			c1.1-2.2,2.3-4.3,3.4-6.4c0.2-0.4,0.3-0.8,0.7-1c0.9-0.1,1.8-0.2,2.7-0.4c0,0.1-0.1,0.2-0.1,0.3c-1.2,0.9-1.9,2.2-2.7,3.4
			c-1.3,1.9-2.3,4-3.5,5.9c-0.7,1.1-1.3,2.4-2.1,3.4c-0.3,0.4-0.5,0.7-1,0.9C143.5,198.3,143.5,198.2,143.5,198.2z"/>
		<path class="st12" d="M153,184.5c-0.9,0.2-1.8,0.4-2.7,0.4c0-0.1,0-0.2,0-0.2c0.1,0,0.1-0.1,0.1-0.2c0.1-0.2,0.2-0.5,0.5-0.7
			c0,0.4,0.2,0.5,0.6,0.4c1.3-0.2,2.6-0.6,3.9-1c4.9-1.6,9.8-3.4,14.4-5.7c2.5-1.3,4.8-2.7,7.1-4.3c2.2-1.5,4.3-3.2,6.2-5.1
			c2.4-2.4,4.5-5.2,6-8.3c0.1-0.3,0.2-0.6,0.5-0.7c-0.1,0.7-0.5,1.3-0.8,1.9c-2.2,4-5.2,7.3-8.7,10.2c-3.9,3.2-8.2,5.7-12.7,7.9
			c-2.1,1-4.3,1.9-6.4,2.8c-0.2,0-0.3,0-0.4,0.2c-0.2,0.1-0.5,0.2-0.7,0.3c-0.2-0.1-0.4,0-0.5,0.2c-0.2,0.1-0.3,0.1-0.5,0.2
			c-0.9,0.1-1.8,0.5-2.7,0.8c-0.6,0.2-1.2,0.3-1.7,0.7C153.9,184.2,153.5,184.4,153,184.5z"/>
		<path class="st11" d="M180.2,130.5c0.1-0.6,0.5-1.1,0.8-1.6c1-1.8,2-3.6,3.1-5.4c0.1-0.2,0.2-0.4,0.2-0.6c0.4,0.5,0.6,1,0.3,1.6
			c-0.5,1-0.9,2-1.5,2.9c-0.5,0.9-0.9,1.9-1.5,2.7c-0.2,0.3-0.1,0.6,0,0.8c0.3,0.5,0.6,1,1.1,1.4c1.8,1.7,3.4,3.5,4.8,5.5
			c1.4,2.1,2.6,4.2,3.4,6.6c0.8,2.7,0.8,5.4,0.8,8.1c0,0.3,0,0.5-0.4,0.6c0-0.3,0-0.6,0-1c0.3-4-0.4-7.8-2.3-11.3
			c-1.2-2.2-2.7-4.3-4.4-6.2c-1.3-1.4-2.8-2.7-4.2-4C180.3,130.5,180.3,130.5,180.2,130.5z"/>
		<path class="st13" d="M85.5,185.5c1.6,0.2,3.2,0.7,4.9,1.1c5.4,1.1,10.8,2.5,16.2,3.6c1.4,0.3,2.8,0.7,4.3,1.1
			c0.1,0,0.2,0.1,0.3,0.2c-1,0.1-2-0.3-3-0.5c-3.4-0.7-6.7-1.6-10.1-2.3c-3.3-0.7-6.6-1.5-10-2.1c-0.8-0.1-1.7-0.2-2.4-0.7
			C85.6,185.7,85.6,185.6,85.5,185.5z"/>
		<path class="st13" d="M143.5,198.2c0,0.1,0,0.2,0,0.2c-0.1,0.4-0.3,0.3-0.6,0.2c-2-0.4-4-0.8-6-1.2c-3.4-0.7-6.7-1.6-10.1-2.3
			c-0.3,0-0.5-0.2-0.6-0.4c1.1,0,2.2,0.5,3.3,0.7c2.9,0.5,5.7,1.1,8.5,1.7c1.6,0.3,3.2,0.7,4.9,1
			C143.1,198.1,143.3,198.2,143.5,198.2z"/>
		<path class="st11" d="M154.3,184.1c0.5-0.4,1.2-0.5,1.7-0.7c0.9-0.3,1.8-0.7,2.7-0.8c0,0.1-0.1,0.3-0.2,0.3c-1.3,0.5-2.6,1-4,1.3
			C154.5,184.2,154.4,184.1,154.3,184.1z"/>
		<path class="st13" d="M112.1,191.6c1.1,0,2.1,0.4,3.1,0.6c-0.4,0.4-0.9,0-1.3,0C113.3,192.1,112.6,192.1,112.1,191.6z"/>
		<path class="st11" d="M190.8,155.6c0-0.1,0-0.1,0-0.2c0.3-0.6,0.4-1.1,0.4-1.7c0-0.1,0-0.1,0-0.2c0,0,0.1,0,0.1,0
			c0.3,0.2,0.3,0.5,0.2,0.8c-0.2,0.5-0.1,1.2-0.7,1.6C190.8,155.7,190.8,155.6,190.8,155.6z"/>
		<path class="st12" d="M190.3,157.3c-0.1-0.4,0-0.8,0.3-1.2c0,0.1,0,0.3,0,0.4C190.5,156.8,190.5,157.1,190.3,157.3z"/>
		<path class="st12" d="M191.3,153.4c0,0-0.1,0-0.1,0c0-0.3,0-0.6,0-0.9c0-0.1,0.1-0.3,0.2-0.4c0,0.3,0,0.6,0,1
			C191.4,153.2,191.3,153.3,191.3,153.4z"/>
		<path class="st9" d="M84.1,185.5c0.3-0.3,0.5-0.2,0.8,0C84.6,185.7,84.3,185.7,84.1,185.5z"/>
		<path class="st9" d="M85.5,185.5c0.1,0.1,0.1,0.3,0.2,0.4c-0.3,0-0.6-0.1-0.6-0.4C85.2,185.5,85.4,185.5,85.5,185.5z"/>
		<path class="st13" d="M111.2,191.4c0.3,0,0.6,0,0.8,0.2C111.7,191.6,111.4,191.7,111.2,191.4z"/>
		<path class="st11" d="M159.3,182.4c0.1-0.2,0.3-0.3,0.5-0.2C159.7,182.5,159.5,182.6,159.3,182.4z"/>
		<path class="st11" d="M160.5,182c0.1-0.2,0.2-0.2,0.4-0.2C160.9,182,160.8,182.2,160.5,182z"/>
		<path class="st11" d="M190.6,156.5c0-0.1,0-0.3,0-0.4c0,0,0,0,0,0s0.1,0,0.1,0l0.1,0C191,156.4,190.9,156.5,190.6,156.5z"/>
		<path class="st11" d="M190,158.1c0-0.1,0.1-0.1,0.1-0.2c0.1,0,0.1,0,0.2,0c0.3,0.2,0.1,0.3-0.1,0.4C190,158.2,190,158.1,190,158.1
			z"/>
		<path class="st12" d="M190.7,156.1L190.7,156.1c-0.1,0-0.1,0-0.1,0c0-0.2,0-0.4,0.2-0.6c0,0.1,0.1,0.1,0.1,0.2
			C190.8,155.9,190.8,156,190.7,156.1z"/>
		<path class="st12" d="M190.2,157.9c-0.1,0-0.1,0-0.2,0c0-0.2,0-0.4,0.2-0.5C190.2,157.5,190.2,157.7,190.2,157.9z"/>
		<path class="st13" d="M125.3,194.5c0.1,0,0.3,0,0.4,0c-0.1,0.1-0.2,0.2-0.4,0.1C125.2,194.6,125.2,194.5,125.3,194.5z"/>
		<path class="st13" d="M115.6,192.4c0.2,0,0.4,0,0.6,0C116,192.6,115.8,192.6,115.6,192.4z"/>
		<path class="st13" d="M118.1,192.9c0.2,0,0.4,0,0.6,0C118.5,193.2,118.3,193.2,118.1,192.9z"/>
		<path class="st13" d="M117.5,192.8c0.1,0,0.1,0,0.2,0c0,0.1-0.1,0.1-0.2,0.1C117.5,192.9,117.5,192.8,117.5,192.8z"/>
		<path class="st12" d="M190,158.1c0,0.1,0,0.1,0.1,0.2c-0.1,0.1-0.1,0.1-0.2,0.2C189.8,158.3,189.8,158.2,190,158.1z"/>
		<path class="st12" d="M189.7,158.9c0-0.2,0-0.3,0.2-0.4C189.9,158.6,189.8,158.8,189.7,158.9z"/>
		<path class="st13" d="M116.6,192.6c0.1,0,0.3,0,0.4,0C116.8,192.8,116.7,192.8,116.6,192.6z"/>
		<path class="st14" d="M166.5,119.5c-1.3,0-2.6-0.3-3.8-0.5c-0.5-0.1-1,0.1-1.4-0.3c0.5-0.4,1-0.4,1.6-0.3c0.9,0.2,1.8,0.2,2.6,0.6
			c0.2,0.1,0.5-0.1,0.7,0C166.4,119.1,166.8,119.1,166.5,119.5z"/>
		<path class="st15" d="M56.4,121.6c-1.1,1.2-2.2,2.4-3.5,3.5c0-0.6,0.4-1.1,0.8-1.4c0.5-0.3,0.9-0.8,1.1-1.3
			C55.2,121.8,55.7,121.5,56.4,121.6z"/>
		<path class="st14" d="M78,106c-0.7-0.1-1.3-0.1-1.9-0.4c0-0.1,0-0.1,0.1-0.2c0.4-0.4,0.9,0.1,1.3,0C77.8,105.4,78,105.7,78,106z"
			/>
		<path class="st14" d="M160.3,118.6c-0.3,0-0.6,0-1,0c0-0.3,0.1-0.5,0.4-0.5C160.2,118,160.3,118.2,160.3,118.6z"/>
		<path class="st14" d="M147,116.4c-0.3,0-0.5,0-0.8,0C146.6,115.9,146.7,115.9,147,116.4z"/>
		<path class="st14" d="M133.9,114.5c-0.3,0-0.5,0-0.8,0C133.5,114,133.6,114,133.9,114.5z"/>
		<path class="st14" d="M140.7,115.5c-0.1,0-0.3,0-0.4,0c0-0.1,0-0.3,0.2-0.3C140.6,115.2,140.6,115.3,140.7,115.5z"/>
		<path class="st10" d="M52.5,157.5c1.6-1.7,3.1-3.2,4.6-4.8c7.4-7.7,14.7-15.5,22.1-23.2c2.8-2.9,5.6-5.9,8.4-8.8
			c0.5-0.5,0.9-0.7,1.6-0.5c3.7,0.7,7.4,1.2,11.1,1.8c3.6,0.6,7.1,1.2,10.7,1.8c4.5,0.7,8.9,1.5,13.4,2.2c4,0.7,8.1,1.4,12.1,2
			c3.3,0.5,6.6,1.1,9.9,1.6c1.5,0.2,3,0.5,4.4,0.8c-0.1,0.4-0.3,0.6-0.5,0.9c-8.6,13.6-17.3,27.1-25.9,40.7
			c-0.1,0.1-0.2,0.3-0.3,0.4c-0.2,0.4-0.5,0.4-0.9,0.3c-1.8-0.4-3.6-0.8-5.4-1.2c-8.2-1.8-16.5-3.6-24.7-5.3
			c-6-1.3-12.1-2.6-18.1-3.9c-7-1.5-14.1-3-21.1-4.6C53.4,157.8,53,157.7,52.5,157.5z M102.4,143.1c-0.1-0.1-0.1-0.1-0.2-0.2
			c0.3-0.6,0.6-1.2,0.9-1.8c0.1-0.2,0.3-0.4,0.2-0.6c-0.2-0.3-0.4-0.2-0.7-0.2c-0.3,0-0.5,0.1-0.6,0.4c-0.7,1.3-1.4,2.6-2.1,3.9
			c-0.2,0.3,0,0.5,0.3,0.5c0.5,0.1,0.9,0,1.3-0.3c0.7-0.5,1.4-1.1,2.2-1.6c0,0.6-0.3,1.1-0.4,1.6c0,0.2-0.3,0.5,0,0.7
			c0.3,0.2,0.7,0.4,1.1,0.2c0.2-0.1,0.4-0.3,0.6-0.5c0.8-0.7,1.6-1.4,2.3-2.2c0.4-0.4,0.9-0.8,1.3-1.2c0.3-0.3,0.2-0.5-0.2-0.7
			c-0.5-0.1-0.8,0.1-1.1,0.4c-0.8,0.7-1.5,1.4-2.4,2.2c-0.1-0.5,0.1-0.9,0.2-1.3c0.1-0.6,0-0.8-0.6-0.8c-0.3,0-0.5,0.1-0.7,0.2
			C103.3,142.5,102.8,142.8,102.4,143.1z M101.3,154.3c0.6-0.1,1.1-0.2,1.6-0.5c0.5-0.3,0.9-0.6,0.9-1.3c0-0.6-0.5-0.8-1-1
			c-0.9-0.3-1.8-0.4-2.7-0.6c-0.6-0.1-1,0-1.4,0.5c-0.9,1.2-1.9,2.4-2.8,3.6c-0.1,0.2-0.5,0.4-0.3,0.6c0.2,0.3,0.5,0.3,0.9,0.2
			c0.3,0,0.5-0.2,0.6-0.4c0.3-0.4,0.6-0.7,0.9-1.1c0.3-0.4,0.6-0.5,1.1-0.3c0.5,0.1,0.6,0.5,0.7,0.8c0.1,0.5,0.2,1,0.4,1.5
			c0.1,0.4,0.6,0.5,1.1,0.4c0.4-0.1,0.5-0.4,0.4-0.8C101.5,155.4,101.3,154.9,101.3,154.3z M120.9,146.8c0.7-0.2,1.4-0.2,1.9-0.6
			c0.8-0.6,0.7-1.5-0.3-1.8c-1.1-0.4-2.2-0.6-3.4-0.7c-0.4-0.1-0.7,0.1-1,0.4c-0.8,1.2-1.7,2.3-2.5,3.5c-0.4,0.5-0.3,0.7,0.4,0.8
			c0.4,0,0.7-0.1,0.9-0.4c0.2-0.3,0.5-0.6,0.7-0.9c0.2-0.3,0.5-0.6,0.9-0.5c0.4,0.1,0.8,0.2,0.9,0.7c0.1,0.5,0.3,1,0.5,1.5
			c0.2,0.4,0.4,0.5,1,0.3c0.5-0.1,0.5-0.4,0.4-0.8C121.2,147.8,121.1,147.3,120.9,146.8z M112.4,142.3c-1.5,0-2.9,0.5-3.8,1.4
			c-1.4,1.3-1,2.9,0.8,3.4c1.4,0.4,2.7,0.2,4-0.3c0.8-0.4,1.6-0.9,2-1.7c0.5-0.9,0.3-1.8-0.6-2.3
			C114.2,142.4,113.3,142.2,112.4,142.3z M106.8,154.4c0.7-1.2,0.7-1.2,1.9-0.9c0.1,0,0.1,0,0.2,0.1c0.8,0.2,1.6,0.3,2.4,0.5
			c0.4,0.1,0.9,0.1,1-0.4c0.1-0.5-0.5-0.5-0.8-0.5c-1.3-0.3-2.6-0.5-3.9-0.8c-0.5-0.1-0.9,0-1.2,0.4c-1,1.3-1.9,2.6-2.9,3.8
			c-0.3,0.5-0.3,0.6,0.3,0.7c1.5,0.3,2.9,0.6,4.4,0.9c0.2,0,0.4,0.1,0.7,0c0.2-0.1,0.3-0.2,0.4-0.4c0-0.3-0.2-0.3-0.4-0.3
			c-0.2-0.1-0.4-0.1-0.7-0.1c-1-0.2-2-0.3-3-0.7c0.9-1.5,0.9-1.5,2.5-1.2c0.2,0,0.3,0.1,0.5,0.1c0.2,0,0.3,0,0.5,0
			c0.2-0.1,0.4-0.2,0.4-0.4c0-0.2-0.2-0.3-0.4-0.3C108,154.7,107.5,154.6,106.8,154.4z M89.9,148.9c-1-0.4-1.1-0.4-1.7,0.2
			c-0.3,0.3-0.6,0.7-0.9,1c-0.1,0.2-0.3,0.4-0.6,0.3c-0.7-0.2-1.5-0.2-2.2-0.5c0.4-0.7,1.1-1.1,1.3-1.8c-0.9-0.4-1.1-0.4-1.6,0.3
			c-1.1,1.2-2.1,2.4-3.1,3.7c-0.1,0.2-0.3,0.3-0.3,0.6c0.8,0.4,1,0.4,1.6-0.2c0.4-0.4,0.7-0.8,1.1-1.2c0.1-0.2,0.3-0.4,0.5-0.4
			c0.7,0.2,1.5,0.2,2.3,0.6c-0.4,0.5-0.8,0.9-1.1,1.4c-0.2,0.2-0.5,0.4-0.3,0.7c0.1,0.2,0.9,0.3,1.2,0.1c0.2-0.1,0.3-0.3,0.5-0.5
			c0.6-0.7,1.2-1.4,1.8-2.1C88.8,150.3,89.4,149.7,89.9,148.9z M92.1,151.4c0-0.2,0.1-0.3,0.2-0.5c0.3-0.5,0.7-0.7,1.3-0.5
			c0.9,0.3,1.8,0.3,2.6,0.5c0.3,0.1,0.6,0.1,0.8-0.1c0.2-0.1,0.3-0.2,0.3-0.3c0-0.2-0.1-0.3-0.3-0.3c-0.1,0-0.2-0.1-0.3-0.1
			c-1.3-0.3-2.6-0.5-4-0.8c-0.4-0.1-0.8,0-1.1,0.4c-1.1,1.3-2.1,2.6-3.2,3.9c-0.3,0.3-0.2,0.5,0.2,0.6c1.5,0.3,2.9,0.6,4.4,0.9
			c0.2,0,0.4,0,0.6,0c0.2-0.1,0.4-0.2,0.4-0.4c0-0.2-0.2-0.3-0.4-0.3c-0.3-0.1-0.6-0.1-0.8-0.2c-0.9-0.2-1.7-0.3-2.7-0.6
			c0.3-0.4,0.5-0.6,0.7-1c0.2-0.3,0.5-0.4,0.9-0.3c0.5,0.1,0.9,0.2,1.4,0.2c0.4,0,0.7,0,0.8-0.5C93.5,151.6,92.8,151.7,92.1,151.4z
			 M127.8,147.3c0.3-0.1,0.6-0.2,0.8-0.3c0.9-0.3,1.7-0.5,2.6-0.8c0.2-0.1,0.4-0.1,0.4-0.3c0-0.3-0.3-0.3-0.5-0.4
			c-0.2,0-0.4,0.1-0.6,0.1c-1,0.3-2,0.6-2.9,0.8c-0.3,0.1-0.7,0.2-1.1,0.2c0.1-0.4,0.4-0.7,0.6-1c0.1-0.2,0.4-0.4,0.2-0.7
			c-0.2-0.2-0.5-0.3-0.8-0.2c-0.3,0-0.5,0.2-0.7,0.5c-0.8,1.2-1.7,2.4-2.5,3.6c-0.1,0.2-0.3,0.4-0.2,0.6c0.1,0.3,0.4,0.3,0.7,0.3
			c0.3,0,0.6-0.1,0.7-0.4c0.2-0.3,0.5-0.6,0.7-0.9c0.3-0.5,0.7-0.7,1.2-0.6c0.5,0.1,0.7,0.5,0.8,1c0.1,0.4,0.1,0.9,0.3,1.3
			c0.1,0.4,0.5,0.5,0.9,0.4c0.3-0.1,0.6-0.2,0.5-0.7C128.7,149,128.6,148.1,127.8,147.3z M90.1,141c0.8-0.2,1.5-0.3,2.1-0.8
			c0.7-0.7,0.6-1.3-0.3-1.6c-0.9-0.3-1.8-0.4-2.7-0.6c-0.6-0.1-1,0-1.4,0.5c-0.9,1-1.8,2-2.7,3c-0.2,0.2-0.4,0.4-0.4,0.7
			c0.7,0.3,0.9,0.3,1.4-0.2c0.3-0.3,0.6-0.7,1-1.1c0.5-0.5,1.3-0.3,1.5,0.4c0.1,0.5,0.2,0.9,0.3,1.4c0.1,0.4,0.4,0.6,0.8,0.5
			c0.3-0.1,0.8-0.1,0.7-0.7C90.3,142,90.2,141.5,90.1,141z M124.7,136c0.5-0.8,0.5-0.8,1.4-0.7c0.2,0,0.4,0.1,0.7,0.1
			c0.8,0.1,1.5,0.3,2.3,0.3c0.2,0,0.5,0,0.5-0.3c0.1-0.3-0.2-0.3-0.4-0.4c-1.4-0.2-2.7-0.5-4.1-0.7c-0.4-0.1-0.7,0-1,0.3
			c-0.8,1.1-1.6,2.2-2.5,3.3c-0.2,0.3-0.1,0.5,0.3,0.6c1.1,0.2,2.1,0.4,3.2,0.6c0.4,0.1,0.8,0.2,1.2,0.2c0.3,0,0.6,0,0.6-0.3
			c0.1-0.3-0.3-0.4-0.5-0.4c-0.1,0-0.3,0-0.4,0c-0.9-0.2-1.9-0.3-2.8-0.6c0.7-1.3,0.7-1.3,2.1-1c0.3,0.1,0.6,0.1,1,0.1
			c0.2,0,0.4-0.1,0.4-0.4c0-0.2-0.2-0.2-0.3-0.3C125.8,136.2,125.2,136.4,124.7,136z M82.3,141.3c-0.1,0.4,0.1,0.6,0.5,0.6
			c0.4,0,0.8-0.1,0.9-0.6c0.3-1.3,0.6-2.6,0.9-3.8c0.1-0.4-0.1-0.6-0.5-0.6c-0.3,0-0.6,0-0.9,0.1c-0.3,0.2-0.6,0.3-0.8,0.5
			c-1.6,0.9-3.2,1.8-4.8,2.8c-0.2,0.1-0.4,0.2-0.3,0.4c0.1,0.2,0.3,0.3,0.6,0.3c0.4-0.1,0.8-0.3,1.1-0.5c0.7-0.6,1.5-0.6,2.3-0.4
			c0.1,0,0.2,0.1,0.3,0.1c0.3,0.1,0.8,0,1,0.3C82.6,140.7,82.3,141,82.3,141.3z M117.9,137.8c0.7,0,1.3,0,2-0.2
			c0.1-0.1,0.3-0.1,0.3-0.3c0-0.2-0.2-0.3-0.4-0.3c-0.2,0-0.4,0-0.6,0.1c-0.8,0.1-1.7,0.1-2.5-0.1c-1.1-0.3-1.2-1-0.6-1.8
			c0.9-1.2,3-1.5,4.2-0.7c0.2,0.2,0.4,0.3,0.7,0.4c0.4,0.1,0.8,0.1,0.9-0.3c0.1-0.4-0.3-0.5-0.5-0.6c-0.3-0.3-0.7-0.4-1.1-0.5
			c-1.6-0.4-3.2-0.2-4.6,0.6c-0.5,0.3-0.9,0.6-1.2,1.1c-0.5,0.8-0.3,1.6,0.5,2.1C115.9,137.8,116.9,137.9,117.9,137.8z M111.3,135.4
			c-0.1,0.4-0.1,0.6-0.1,0.9c0,0.3,0,0.6,0.4,0.6c0.4,0,0.8,0,0.8-0.4c0.2-1.3,0.3-2.6,0.4-3.9c0-0.3-0.2-0.5-0.5-0.5
			c-0.5-0.1-0.9,0.1-1.4,0.3c-1.5,0.9-3.1,1.8-4.6,2.8c-0.1,0.1-0.3,0.2-0.4,0.3c-0.2,0.2-0.1,0.4,0.1,0.5c0.3,0.1,0.5,0.1,0.7-0.1
			c0.4-0.2,0.7-0.4,1.1-0.6c0.3-0.2,0.5-0.3,0.9-0.3C109.7,135.1,110.5,135.1,111.3,135.4z M97.8,132.5c0.2,0,0.3,0,0.5,0
			c0.8,0,1.5-0.1,2.2-0.6c0.8-0.6,0.7-1.3-0.1-1.7c-1-0.5-2.1-0.6-3.2-0.7c-0.4,0-0.6,0.2-0.8,0.4c-0.9,1-1.7,2-2.6,3
			c-0.1,0.2-0.4,0.3-0.3,0.6c0.1,0.3,0.4,0.2,0.7,0.2c0.3,0,0.5-0.1,0.7-0.3c0.2-0.2,0.4-0.4,0.6-0.7c0.2-0.4,0.6-0.5,1-0.3
			C96.8,132.5,97.3,132.4,97.8,132.5z M96.4,140.2c0,0.2-0.1,0.3-0.2,0.4c-0.8,0.9-1.5,1.8-2.3,2.7c-0.1,0.2-0.4,0.4-0.2,0.6
			c0.1,0.2,0.4,0.3,0.7,0.2c0.3-0.1,0.6-0.3,0.8-0.5c0.5-0.7,1.2-1.3,1.6-2c0.6-1,1.4-1.4,2.5-0.9c0.2,0.1,0.4,0.1,0.7,0.1
			c0.2,0,0.4,0,0.6-0.1c0.1,0,0.2-0.2,0.2-0.3c0-0.1-0.1-0.2-0.2-0.3c-0.1,0-0.2-0.1-0.3-0.1c-1.7-0.3-3.3-0.6-5-0.9
			c-0.2,0-0.4,0-0.7,0c-0.2,0-0.3,0.1-0.3,0.3c0,0.2,0.1,0.3,0.3,0.3C95.2,139.9,95.8,140,96.4,140.2z M101.7,134.2
			c0.9-1.1,1.7-2,2.4-2.9c0.1-0.1,0.3-0.3,0.2-0.5c-0.1-0.2-0.4-0.2-0.6-0.2c-0.3,0-0.5,0.1-0.7,0.3c-1,1.1-1.9,2.2-2.8,3.4
			c-0.3,0.3-0.2,0.5,0.3,0.6c0.6,0.1,1.2,0.2,1.8,0.3c0.8,0.1,1.5,0.3,2.3,0.4c0.3,0.1,0.7,0,0.8-0.4c0.1-0.4-0.3-0.4-0.6-0.4
			C103.8,134.6,102.8,134.4,101.7,134.2z"/>
		<path class="st16" d="M151.1,183.3c0.1-0.2,0.1-0.4,0.2-0.6c0.4-0.1,0.5-0.4,0.5-0.8c0,0,0,0,0,0c0.1-0.1,0.2-0.2,0.2-0.4
			c0.1-0.2,0.2-0.4,0.3-0.6c0.1,0,0.1-0.1,0.1-0.1c0,0,0-0.1,0-0.1c0.3-0.1,0.4-0.4,0.4-0.7c0-0.1,0-0.1,0.1-0.1
			c0.1,0,0.1-0.1,0.1-0.2c0-0.1,0.1-0.1,0.1-0.2c0-0.1,0.1-0.1,0.1-0.2c0,0,0,0,0,0c0.1-0.1,0.2-0.2,0.2-0.3c0,0,0-0.1,0-0.1
			c0.1-0.1,0.2-0.2,0.2-0.3l0,0c0,0,0,0,0,0c0.1-0.1,0.2-0.2,0.2-0.3l0-0.1c0,0,0,0,0,0c0.1-0.1,0.2-0.2,0.2-0.3c0,0,0-0.1,0-0.1
			c0.1,0,0.1-0.1,0.1-0.2c0,0,0,0,0,0c0.1-0.1,0.2-0.2,0.2-0.3c0,0,0,0,0,0c0.1-0.1,0.2-0.2,0.2-0.3c0,0,0-0.1,0-0.1
			c0.4-0.2,0.5-0.6,0.5-1c0,0,0,0,0,0c0.1-0.1,0.2-0.2,0.2-0.4c0.9-1.7,1.8-3.5,2.8-5.2c2.6-4.8,5.2-9.6,7.8-14.4
			c4-7.2,8-14.5,12-21.7c0.2-0.3,0.3-0.5,0.5-0.8c0.1-0.1,0.2-0.2,0.2-0.3c0,0,0-0.1,0-0.1c0.1-0.1,0.2-0.2,0.2-0.3c0,0,0-0.1,0-0.1
			c0.1,0,0.1-0.1,0.1-0.2c0.1-0.3,0.2-0.6,0.4-0.8c0.1,0,0.2,0,0.4,0c0,0.1,0,0.1,0,0.2c-0.1,0.4-0.3,0.7-0.4,1.1
			c-0.2,0.8-1,1.4-0.8,2.4c0.1,0.2-0.2,0.4-0.4,0.6c-0.5,0.4-0.6,0.4-0.1,0.9c0.5,0.5,0.5,0.9,0.2,1.5c-0.4,1-0.5,2-0.8,3.1
			c-0.2,1.1,0.4,2,1.4,2.5c0.8,0.3,1.5,0.7,2.3,1c0.9,0.4,1.3,1,1.3,1.9c0,0.3-0.1,0.7,0.1,1c0.2,0,0.3-0.2,0.2-0.3
			c-0.2-0.5-0.1-1.1-0.2-1.6c-0.1-0.8,0-0.8,0.7-0.8c0.9,0,1.8-0.1,2.7-0.3c0.5-0.1,0.9-0.1,1.4,0.1c0.3,0.1,0.6,0.4,0.9,0.5
			c0.4,1.3,0.5,2.7,0.6,4.1c0.1,1.3-0.2,2.6-0.4,3.8c-0.6,3.4-2.1,6.4-4,9.2c-1.4,1.9-3,3.7-4.7,5.3c-1.3,1.2-2.7,2.4-4.1,3.4
			c-3.7,2.6-7.6,4.8-11.7,6.6c-3.5,1.5-7,2.8-10.6,3.8c-0.4,0.1-0.7,0.3-0.9,0.7C152.2,182.7,151.9,183.3,151.1,183.3z M182.3,152.6
			c0.5-0.5,0.4-0.9,0.4-1.3c0-0.3,0-0.9-0.1-1.1C182.5,151,182.4,151.7,182.3,152.6z M182.8,148.5c-0.1,0.4-0.1,0.7,0,1.2
			C182.9,149.2,182.9,149,182.8,148.5z"/>
		<path class="st17" d="M179.8,132c0-0.1,0-0.1,0-0.2c0.3-0.4,0.6-0.8,0.6-1.3c1.4,1.3,2.9,2.6,4.2,4c1.7,1.9,3.2,3.9,4.4,6.2
			c1.9,3.5,2.7,7.3,2.3,11.3c-0.1,0.1-0.2,0.3-0.2,0.4c-0.4,0-0.5,0.3-0.6,0.6c-0.6,2.6-1.5,5.2-2.9,7.5c-1.4,2.5-3.3,4.7-5.4,6.8
			c-3.2,3.2-6.8,5.7-10.7,7.9c-3.1,1.8-6.3,3.3-9.6,4.6c-1.4,0.6-2.9,1-4.2,1.5c-0.9,0.4-1.7,0.8-2.6,1c-1.3,0.4-2.6,0.8-3.9,1.2
			c-0.1,0-0.3,0-0.5,0c0-0.2,0.1-0.3,0.2-0.4c0.8,0,1.1-0.6,1.5-1.1c0.3-0.4,0.5-0.6,0.9-0.7c3.6-1,7.1-2.3,10.6-3.8
			c4.1-1.8,8-4,11.7-6.6c1.5-1,2.8-2.2,4.1-3.4c1.7-1.6,3.3-3.4,4.7-5.3c2-2.8,3.4-5.8,4-9.2c0.2-1.3,0.5-2.5,0.4-3.8
			c-0.1-1.4-0.1-2.7-0.6-4.1c-0.2-1.6-0.8-3-1.5-4.4c-1.6-3.4-4-6.1-6.6-8.6C180.2,132.2,180.1,132.1,179.8,132z"/>
		<path class="st18" d="M180.4,130.5c0,0.5-0.3,0.9-0.6,1.3c-0.1,0-0.2,0-0.4,0c0.2-0.5,0.5-0.9,0.7-1.4
			C180.3,130.5,180.3,130.5,180.4,130.5z"/>
		<path class="st17" d="M155.1,176c-0.1,0.4-0.2,0.7-0.5,1C154.7,176.6,154.8,176.3,155.1,176z"/>
		<path class="st12" d="M151.8,182c0,0.3-0.1,0.6-0.5,0.8C151.5,182.5,151.6,182.2,151.8,182z"/>
		<path class="st17" d="M152.8,180.2c0,0.3-0.1,0.5-0.4,0.7C152.5,180.6,152.6,180.3,152.8,180.2z"/>
		<path class="st12" d="M152,181.6c0,0.2,0,0.3-0.2,0.4C151.8,181.8,151.9,181.7,152,181.6z"/>
		<path class="st17" d="M155.3,175.6c0,0.2,0,0.3-0.2,0.4C155.1,175.8,155.2,175.7,155.3,175.6z"/>
		<path class="st17" d="M153.8,178.4c0,0.1,0,0.2-0.2,0.3C153.6,178.6,153.7,178.5,153.8,178.4z"/>
		<path class="st17" d="M154.4,177.4c0,0.2,0,0.3-0.2,0.3C154.2,177.6,154.2,177.5,154.4,177.4z"/>
		<path class="st17" d="M154,178c0,0.1,0,0.2-0.2,0.3C153.8,178.2,153.9,178.1,154,178z"/>
		<path class="st17" d="M178.7,133.3c0,0.1-0.1,0.3-0.2,0.3C178.5,133.4,178.6,133.3,178.7,133.3z"/>
		<path class="st17" d="M178.9,132.9c0,0.1,0,0.3-0.2,0.3C178.7,133,178.8,133,178.9,132.9z"/>
		<path class="st17" d="M153.6,178.8c0,0.1,0,0.3-0.2,0.3C153.4,178.9,153.5,178.9,153.6,178.8z"/>
		<path class="st17" d="M153.4,179.1c0,0.1,0,0.3-0.2,0.3C153.2,179.3,153.3,179.2,153.4,179.1z"/>
		<path class="st17" d="M154.6,177c0,0.1-0.1,0.3-0.2,0.3C154.4,177.2,154.4,177.1,154.6,177z"/>
		<path class="st17" d="M153,179.8c0,0.1,0,0.2-0.1,0.2C152.9,180,153,179.9,153,179.8z"/>
		<path class="st11" d="M150.4,184.5c0,0.1,0,0.2-0.1,0.2C150.3,184.6,150.3,184.5,150.4,184.5z"/>
		<path class="st17" d="M154.2,177.8c0,0.1,0,0.2-0.1,0.2C154,177.8,154.1,177.8,154.2,177.8z"/>
		<path class="st17" d="M179,132.6c0,0.1,0,0.2-0.1,0.2C178.9,132.7,178.9,132.7,179,132.6z"/>
		<path class="st17" d="M153.2,179.5c0,0.1-0.1,0.1-0.1,0.2C153.1,179.6,153.1,179.5,153.2,179.5z"/>
		<path class="st17" d="M152.4,180.9c0,0.1,0,0.1-0.1,0.1C152.3,181,152.4,180.9,152.4,180.9z"/>
		<path class="st12" d="M191.2,153.6c0,0.6-0.1,1.2-0.4,1.7C190.8,154.8,190.9,154.2,191.2,153.6z"/>
		<path class="st8" d="M101.3,154.3c-0.1,0.6,0.2,1.1,0.3,1.6c0.1,0.4,0,0.7-0.4,0.8c-0.6,0.1-1,0-1.1-0.4c-0.1-0.5-0.2-1-0.4-1.5
			c-0.1-0.4-0.2-0.7-0.7-0.8c-0.5-0.1-0.8-0.1-1.1,0.3c-0.3,0.4-0.6,0.8-0.9,1.1c-0.2,0.2-0.4,0.4-0.6,0.4c-0.3,0.1-0.7,0-0.9-0.2
			c-0.2-0.3,0.1-0.5,0.3-0.6c0.9-1.2,1.9-2.4,2.8-3.6c0.4-0.5,0.8-0.7,1.4-0.5c0.9,0.2,1.8,0.3,2.7,0.6c0.5,0.2,1,0.4,1,1
			c0.1,0.6-0.4,1-0.9,1.3C102.5,154.1,101.9,154.2,101.3,154.3z M99.1,153c0.7,0.3,1.4,0.3,2.1,0.4c0.3,0,0.6-0.1,0.8-0.3
			c0.4-0.3,0.4-0.7-0.1-1c-0.6-0.3-1.2-0.4-1.8-0.4c-0.4,0-0.6,0.6-0.9,0.9C99.2,152.8,99.2,152.9,99.1,153z"/>
		<path class="st7" d="M102.4,143.1c0.5-0.3,1-0.6,1.4-0.9c0.2-0.1,0.4-0.3,0.7-0.2c0.6,0,0.7,0.2,0.6,0.8c-0.1,0.4-0.3,0.8-0.2,1.3
			c0.8-0.8,1.6-1.5,2.4-2.2c0.3-0.3,0.6-0.5,1.1-0.4c0.4,0.1,0.5,0.3,0.2,0.7c-0.4,0.4-0.8,0.8-1.3,1.2c-0.8,0.7-1.6,1.4-2.3,2.2
			c-0.2,0.2-0.4,0.3-0.6,0.5c-0.4,0.2-0.8,0-1.1-0.2c-0.3-0.2,0-0.5,0-0.7c0.1-0.5,0.4-1,0.4-1.6c-0.8,0.4-1.5,1-2.2,1.6
			c-0.4,0.3-0.8,0.3-1.3,0.3c-0.3,0-0.5-0.2-0.3-0.5c0.7-1.3,1.4-2.6,2.1-3.9c0.1-0.2,0.3-0.4,0.6-0.4c0.2,0,0.5-0.1,0.7,0.2
			c0.2,0.2-0.1,0.4-0.2,0.6c-0.3,0.6-0.6,1.2-0.9,1.8c0,0.1-0.2,0.2-0.1,0.3C102.2,143.3,102.3,143.2,102.4,143.1z"/>
		<path class="st8" d="M120.9,146.8c0.2,0.6,0.3,1,0.5,1.5c0.1,0.4,0.1,0.7-0.4,0.8c-0.6,0.2-0.9,0.1-1-0.3c-0.2-0.5-0.4-1-0.5-1.5
			c-0.1-0.5-0.5-0.6-0.9-0.7c-0.5-0.1-0.7,0.1-0.9,0.5c-0.2,0.3-0.5,0.6-0.7,0.9c-0.2,0.3-0.5,0.4-0.9,0.4c-0.6,0-0.7-0.2-0.4-0.8
			c0.8-1.2,1.7-2.3,2.5-3.5c0.3-0.4,0.6-0.5,1-0.4c1.1,0.2,2.3,0.3,3.4,0.7c1,0.4,1.1,1.2,0.3,1.8
			C122.3,146.6,121.6,146.6,120.9,146.8z M118.7,145.7c0.7,0.2,1.4,0.3,2,0.3c0.4,0,0.7-0.1,0.9-0.4c0.2-0.2,0.2-0.4,0-0.6
			c-0.6-0.3-1.3-0.5-2-0.5C119.1,144.5,118.9,145.1,118.7,145.7z"/>
		<path class="st7" d="M112.4,142.3c0.9,0,1.7,0.1,2.5,0.6c0.9,0.5,1.2,1.4,0.6,2.3c-0.5,0.8-1.2,1.3-2,1.7c-1.3,0.5-2.7,0.7-4,0.3
			c-1.9-0.5-2.2-2.1-0.8-3.4C109.6,142.8,111,142.3,112.4,142.3z M112.3,143c-1.3,0-2.2,0.6-2.8,1.7c-0.4,0.7-0.2,1.2,0.5,1.5
			c1.4,0.7,3.6-0.2,4.1-1.6c0.3-0.7,0.1-1.1-0.6-1.4C113.2,143.1,112.8,143,112.3,143z"/>
		<path class="st7" d="M106.8,154.4c0.7,0.1,1.2,0.3,1.8,0.4c0.2,0,0.4,0.1,0.4,0.3c0,0.2-0.2,0.3-0.4,0.4c-0.1,0.1-0.3,0.1-0.5,0
			c-0.2,0-0.3-0.1-0.5-0.1c-1.6-0.3-1.6-0.3-2.5,1.2c1,0.3,2,0.4,3,0.7c0.2,0.1,0.4,0.1,0.7,0.1c0.2,0,0.4,0.1,0.4,0.3
			c0,0.2-0.2,0.3-0.4,0.4c-0.2,0.1-0.4,0.1-0.7,0c-1.5-0.3-2.9-0.6-4.4-0.9c-0.6-0.1-0.6-0.2-0.3-0.7c1-1.3,1.9-2.6,2.9-3.8
			c0.3-0.4,0.7-0.5,1.2-0.4c1.3,0.3,2.6,0.5,3.9,0.8c0.3,0.1,0.8,0,0.8,0.5c-0.1,0.5-0.6,0.4-1,0.4c-0.8-0.1-1.6-0.3-2.4-0.5
			c-0.1,0-0.1,0-0.2-0.1C107.5,153.3,107.5,153.3,106.8,154.4z"/>
		<path class="st7" d="M89.9,148.9c-0.5,0.8-1.1,1.4-1.6,2c-0.6,0.7-1.2,1.4-1.8,2.1c-0.1,0.2-0.3,0.4-0.5,0.5
			c-0.3,0.2-1,0.2-1.2-0.1c-0.2-0.3,0.2-0.5,0.3-0.7c0.3-0.5,0.7-0.9,1.1-1.4c-0.8-0.3-1.6-0.4-2.3-0.6c-0.3-0.1-0.4,0.2-0.5,0.4
			c-0.4,0.4-0.7,0.8-1.1,1.2c-0.5,0.6-0.8,0.6-1.6,0.2c0-0.3,0.2-0.4,0.3-0.6c1-1.2,2.1-2.4,3.1-3.7c0.6-0.6,0.7-0.7,1.6-0.3
			c-0.3,0.7-1,1.1-1.3,1.8c0.7,0.3,1.5,0.3,2.2,0.5c0.3,0.1,0.4-0.1,0.6-0.3c0.3-0.3,0.6-0.7,0.9-1C88.8,148.5,89,148.5,89.9,148.9z
			"/>
		<path class="st7" d="M92.1,151.4c0.7,0.3,1.4,0.2,2,0.6c-0.1,0.5-0.5,0.5-0.8,0.5c-0.5-0.1-1-0.1-1.4-0.2c-0.4-0.1-0.7,0-0.9,0.3
			c-0.2,0.3-0.5,0.6-0.7,1c0.9,0.4,1.8,0.4,2.7,0.6c0.3,0.1,0.6,0.1,0.8,0.2c0.2,0,0.4,0.1,0.4,0.3c0,0.2-0.2,0.3-0.4,0.4
			c-0.2,0.1-0.4,0.1-0.6,0c-1.5-0.3-2.9-0.6-4.4-0.9c-0.4-0.1-0.5-0.3-0.2-0.6c1.1-1.3,2.1-2.6,3.2-3.9c0.3-0.4,0.7-0.4,1.1-0.4
			c1.3,0.3,2.6,0.5,4,0.8c0.1,0,0.2,0.1,0.3,0.1c0.2,0.1,0.3,0.2,0.3,0.3c0,0.2-0.1,0.3-0.3,0.3c-0.3,0.1-0.5,0.1-0.8,0.1
			c-0.9-0.2-1.8-0.3-2.6-0.5c-0.6-0.2-1,0-1.3,0.5C92.2,151.1,92.1,151.2,92.1,151.4z"/>
		<path class="st7" d="M127.8,147.3c0.8,0.8,0.9,1.6,1.1,2.5c0.1,0.4-0.2,0.6-0.5,0.7c-0.5,0.1-0.8,0-0.9-0.4
			c-0.1-0.4-0.2-0.9-0.3-1.3c-0.1-0.5-0.3-0.9-0.8-1c-0.5-0.1-0.9,0.1-1.2,0.6c-0.2,0.3-0.4,0.6-0.7,0.9c-0.2,0.2-0.4,0.4-0.7,0.4
			c-0.3,0-0.5,0-0.7-0.3c-0.1-0.2,0.1-0.4,0.2-0.6c0.8-1.2,1.7-2.4,2.5-3.6c0.2-0.2,0.4-0.5,0.7-0.5c0.3,0,0.6,0,0.8,0.2
			c0.2,0.3-0.1,0.5-0.2,0.7c-0.2,0.3-0.5,0.6-0.6,1c0.4,0,0.7-0.1,1.1-0.2c1-0.3,2-0.6,2.9-0.8c0.2-0.1,0.4-0.1,0.6-0.1
			c0.2,0,0.5,0.1,0.5,0.4c0,0.2-0.2,0.3-0.4,0.3c-0.9,0.3-1.7,0.5-2.6,0.8C128.4,147.2,128.1,147.2,127.8,147.3z"/>
		<path class="st7" d="M90.1,141c0.1,0.5,0.2,1,0.3,1.5c0.1,0.6-0.3,0.6-0.7,0.7c-0.4,0.1-0.7,0-0.8-0.5c-0.1-0.5-0.2-0.9-0.3-1.4
			c-0.2-0.6-1-0.9-1.5-0.4c-0.3,0.3-0.6,0.7-1,1.1c-0.5,0.5-0.7,0.5-1.4,0.2c0-0.3,0.2-0.5,0.4-0.6c0.9-1,1.8-2,2.7-3
			c0.4-0.5,0.8-0.6,1.4-0.5c0.9,0.2,1.8,0.3,2.7,0.6c0.9,0.3,1,0.9,0.3,1.6C91.6,140.7,90.8,140.7,90.1,141z M88.1,139.9
			c0.6,0.1,1.2,0.3,1.8,0.3c0.3,0,0.6-0.1,0.9-0.3c0.2-0.1,0.3-0.2,0.3-0.5c0-0.2-0.2-0.3-0.4-0.3c-0.4-0.1-0.7-0.2-1.1-0.3
			c-0.4-0.1-0.8,0-1.1,0.4C88.4,139.4,88.2,139.6,88.1,139.9z"/>
		<path class="st7" d="M124.7,136c0.5,0.3,1.1,0.2,1.7,0.4c0.1,0.1,0.3,0.1,0.3,0.3c0,0.2-0.2,0.3-0.4,0.4c-0.3,0-0.6,0-1-0.1
			c-1.4-0.3-1.4-0.3-2.1,1c0.9,0.3,1.9,0.4,2.8,0.6c0.1,0,0.3,0,0.4,0c0.2,0.1,0.6,0.1,0.5,0.4c-0.1,0.3-0.4,0.3-0.6,0.3
			c-0.4,0-0.8-0.1-1.2-0.2c-1.1-0.2-2.1-0.4-3.2-0.6c-0.4-0.1-0.5-0.3-0.3-0.6c0.8-1.1,1.6-2.2,2.5-3.3c0.2-0.3,0.6-0.4,1-0.3
			c1.4,0.2,2.7,0.5,4.1,0.7c0.2,0,0.5,0,0.4,0.4c0,0.3-0.3,0.3-0.5,0.3c-0.8,0-1.5-0.2-2.3-0.3c-0.2,0-0.4-0.1-0.7-0.1
			C125.2,135.2,125.2,135.2,124.7,136z"/>
		<path class="st7" d="M82.3,141.3c0-0.3,0.4-0.7,0.1-1c-0.2-0.3-0.7-0.2-1-0.3c-0.1,0-0.2-0.1-0.3-0.1c-0.8-0.2-1.6-0.2-2.3,0.4
			c-0.3,0.3-0.7,0.4-1.1,0.5c-0.2,0-0.5,0-0.6-0.3c-0.1-0.2,0.2-0.3,0.3-0.4c1.6-0.9,3.2-1.8,4.8-2.8c0.3-0.2,0.6-0.3,0.8-0.5
			c0.3-0.2,0.6-0.2,0.9-0.1c0.4,0,0.6,0.2,0.5,0.6c-0.3,1.3-0.6,2.6-0.9,3.8c-0.1,0.5-0.5,0.6-0.9,0.6
			C82.3,141.9,82.2,141.7,82.3,141.3z M82.9,138c-0.7,0.3-1.3,0.7-2,1.1c2.1,0.6,1.7,0.6,2-1C83,138.1,83,138.1,82.9,138z"/>
		<path class="st7" d="M117.9,137.8c-1,0.1-2-0.1-2.9-0.6c-0.8-0.5-1-1.3-0.5-2.1c0.3-0.5,0.7-0.8,1.2-1.1c1.5-0.8,3-1,4.6-0.6
			c0.4,0.1,0.8,0.3,1.1,0.5c0.2,0.2,0.6,0.3,0.5,0.6c-0.2,0.4-0.6,0.3-0.9,0.3c-0.3-0.1-0.5-0.2-0.7-0.4c-1.2-0.9-3.3-0.6-4.2,0.7
			c-0.6,0.8-0.5,1.5,0.6,1.8c0.8,0.2,1.6,0.2,2.5,0.1c0.2,0,0.4-0.1,0.6-0.1c0.2,0,0.4,0.1,0.4,0.3c0,0.2-0.2,0.3-0.3,0.3
			C119.2,137.9,118.6,137.8,117.9,137.8z"/>
		<path class="st8" d="M111.3,135.4c-0.8-0.3-1.6-0.3-2.4-0.5c-0.4-0.1-0.6,0.1-0.9,0.3c-0.4,0.2-0.7,0.4-1.1,0.6
			c-0.2,0.1-0.5,0.2-0.7,0.1c-0.3-0.1-0.4-0.3-0.1-0.5c0.1-0.1,0.3-0.2,0.4-0.3c1.5-0.9,3.1-1.8,4.6-2.8c0.4-0.3,0.9-0.4,1.4-0.3
			c0.3,0,0.5,0.2,0.5,0.5c-0.1,1.3-0.3,2.6-0.4,3.9c-0.1,0.4-0.5,0.4-0.8,0.4c-0.4,0-0.5-0.3-0.4-0.6
			C111.2,136,111.3,135.7,111.3,135.4z M111.5,133c-0.6,0.4-1.1,0.7-1.6,1c-0.1,0-0.1,0.1-0.1,0.3c0.1,0,0.2,0,0.3,0.1
			C111.5,134.6,111.5,134.6,111.5,133z"/>
		<path class="st7" d="M97.8,132.5c-0.4,0-0.9,0-1.4-0.2c-0.4-0.1-0.7-0.1-1,0.3c-0.1,0.2-0.4,0.4-0.6,0.7c-0.2,0.2-0.4,0.3-0.7,0.3
			c-0.2,0-0.6,0.1-0.7-0.2c-0.1-0.2,0.1-0.4,0.3-0.6c0.9-1,1.7-2,2.6-3c0.2-0.3,0.5-0.4,0.8-0.4c1.1,0.1,2.2,0.2,3.2,0.7
			c0.9,0.4,0.9,1.1,0.1,1.7c-0.6,0.5-1.4,0.6-2.2,0.6C98.1,132.5,98,132.5,97.8,132.5z M96.5,131.6c0.4,0.1,0.8,0.2,1.2,0.2
			c0.2,0,0.3,0,0.5,0c0.4,0,0.8-0.1,1.1-0.4c0.3-0.3,0.3-0.6-0.1-0.8c-0.5-0.3-1.1-0.4-1.7-0.4c-0.4,0-0.6,0.5-0.8,0.8
			C96.6,131.2,96.5,131.3,96.5,131.6z"/>
		<path class="st7" d="M96.4,140.2c-0.6-0.1-1.2-0.3-1.8-0.4c-0.2,0-0.3-0.1-0.3-0.3c0-0.2,0.1-0.3,0.3-0.3c0.2,0,0.5-0.1,0.7,0
			c1.7,0.3,3.3,0.6,5,0.9c0.1,0,0.2,0.1,0.3,0.1c0.1,0,0.3,0.1,0.2,0.3c0,0.1-0.1,0.2-0.2,0.3c-0.2,0.1-0.4,0.1-0.6,0.1
			c-0.2,0-0.5,0-0.7-0.1c-1.1-0.5-1.9,0-2.5,0.9c-0.5,0.7-1.1,1.3-1.6,2c-0.2,0.3-0.5,0.5-0.8,0.5c-0.3,0-0.5,0-0.7-0.2
			c-0.2-0.2,0.1-0.4,0.2-0.6c0.8-0.9,1.5-1.8,2.3-2.7C96.4,140.5,96.5,140.4,96.4,140.2z"/>
		<path class="st7" d="M101.7,134.2c1.1,0.2,2.1,0.4,3,0.6c0.3,0.1,0.7,0,0.6,0.4c-0.1,0.3-0.5,0.4-0.8,0.4
			c-0.8-0.1-1.5-0.3-2.3-0.4c-0.6-0.1-1.2-0.2-1.8-0.3c-0.4-0.1-0.5-0.3-0.3-0.6c0.9-1.1,1.9-2.3,2.8-3.4c0.2-0.2,0.4-0.3,0.7-0.3
			c0.2,0,0.5,0,0.6,0.2c0.1,0.2-0.1,0.4-0.2,0.5C103.4,132.2,102.6,133.1,101.7,134.2z"/>
		<path class="st18" d="M179.8,132c0.2,0,0.4,0.2,0.6,0.3c2.7,2.5,5.1,5.3,6.6,8.6c0.6,1.4,1.3,2.8,1.5,4.4c-0.4,0-0.6-0.3-0.9-0.5
			c-0.5-0.2-1-0.2-1.4-0.1c-0.9,0.3-1.8,0.3-2.7,0.3c-0.8,0-0.8,0.1-0.7,0.8c0,0.5,0,1.1,0.2,1.6c0,0.1,0,0.3-0.2,0.3
			c-0.2-0.3-0.1-0.6-0.1-1c0-0.9-0.4-1.6-1.3-1.9c-0.8-0.3-1.5-0.7-2.3-1c-1.1-0.5-1.7-1.4-1.4-2.5c0.2-1,0.3-2.1,0.8-3.1
			c0.2-0.6,0.2-1-0.2-1.5c-0.5-0.5-0.4-0.5,0.1-0.9c0.2-0.2,0.5-0.3,0.4-0.6c-0.2-1,0.5-1.6,0.8-2.4
			C179.5,132.7,179.8,132.4,179.8,132z"/>
		<path class="st18" d="M182.3,152.6c0.1-0.9,0.2-1.6,0.3-2.3c0.1,0.1,0.2,0.8,0.1,1.1C182.7,151.7,182.8,152.1,182.3,152.6z"/>
		<path class="st18" d="M182.8,148.5c0.2,0.4,0.1,0.7,0,1.2C182.7,149.3,182.7,149,182.8,148.5z"/>
		<path class="st16" d="M99.1,153c0.1-0.2,0.1-0.2,0.1-0.3c0.3-0.3,0.4-0.9,0.9-0.9c0.6,0,1.2,0.1,1.8,0.4c0.5,0.2,0.5,0.6,0.1,1
			c-0.2,0.2-0.5,0.3-0.8,0.3C100.5,153.4,99.8,153.3,99.1,153z"/>
		<path class="st10" d="M102.4,143.1c-0.1,0.1-0.1,0.2-0.3,0.1c-0.1-0.1,0-0.2,0.1-0.3C102.2,143,102.3,143,102.4,143.1z"/>
		<path class="st16" d="M118.7,145.7c0.2-0.5,0.5-1.2,0.9-1.2c0.7,0,1.4,0.1,2,0.5c0.2,0.1,0.2,0.4,0,0.6c-0.2,0.3-0.6,0.4-0.9,0.4
			C120,146,119.4,145.8,118.7,145.7z"/>
		<path class="st10" d="M112.3,143c0.4,0,0.8,0,1.2,0.2c0.7,0.3,0.9,0.7,0.6,1.4c-0.6,1.4-2.7,2.3-4.1,1.6c-0.6-0.3-0.8-0.8-0.5-1.5
			C110.2,143.7,111.1,143.1,112.3,143z"/>
		<path class="st16" d="M88.1,139.9c0.1-0.3,0.3-0.5,0.5-0.7c0.3-0.4,0.6-0.5,1.1-0.4c0.4,0.1,0.7,0.2,1.1,0.3
			c0.2,0.1,0.4,0.1,0.4,0.3c0,0.2-0.1,0.3-0.3,0.5c-0.3,0.2-0.6,0.2-0.9,0.3C89.3,140.2,88.7,140,88.1,139.9z"/>
		<path class="st18" d="M82.9,138c0,0.1,0.1,0.1,0.1,0.1c-0.3,1.7,0,1.6-2,1C81.6,138.7,82.3,138.3,82.9,138z"/>
		<path class="st18" d="M111.5,133c0,1.6,0,1.6-1.4,1.3c-0.1,0-0.2,0-0.3-0.1c0-0.2,0-0.2,0.1-0.3
			C110.4,133.7,110.9,133.4,111.5,133z"/>
		<path class="st16" d="M96.5,131.6c0-0.3,0.1-0.4,0.2-0.5c0.3-0.3,0.4-0.7,0.8-0.8c0.6,0,1.1,0.1,1.7,0.4c0.4,0.2,0.4,0.5,0.1,0.8
			c-0.3,0.2-0.7,0.4-1.1,0.4c-0.2,0-0.3,0-0.5,0C97.3,131.8,96.9,131.7,96.5,131.6z"/>
	</g>
</g>
<polygon class="st10" points="118.3,170.4 58.2,154.5 92.6,121.3 144.9,129.9 "/>
</svg>
